<?xml version="1.0" encoding="utf-8"?>
<!-- Generator: Adobe Illustrator 16.0.0, SVG Export Plug-In . SVG Version: 6.00 Build 0)  -->
<!DOCTYPE svg PUBLIC "-//W3C//DTD SVG 1.1//EN" "http://www.w3.org/Graphics/SVG/1.1/DTD/svg11.dtd">
<svg version="1.1" id="Layer_1" xmlns="http://www.w3.org/2000/svg" xmlns:xlink="http://www.w3.org/1999/xlink" x="0px" y="0px"
	 width="866px" height="332px" viewBox="0 0 866 332" enable-background="new 0 0 866 332" xml:space="preserve">
<pattern  width="10.006" height="20" patternUnits="userSpaceOnUse" id="Unnamed_Pattern_4" viewBox="0 -20 10.006 20" overflow="visible">
	<g>
		<polygon fill="none" points="0,-20 10.006,-20 10.006,0 0,0 		"/>
		<polygon fill="#FFFFFF" points="5,-20 0,-20 0,0 5,0 		"/>
	</g>
</pattern>
<g>
	<path fill="#FBEAF2" d="M847.395,328h-826c0-10-7.394-17.383-17.394-17.383V21.764C14,21.764,21.394,14,21.394,5h826
		c0,9,7.605,16.764,16.605,16.764v288.854C855,310.618,847.395,318,847.395,328"/>
	<g opacity="0.2">
		<g>
			<defs>
				<rect id="SVGID_1_" x="4" y="5" width="860" height="323"/>
			</defs>
			<clipPath id="SVGID_2_">
				<use xlink:href="#SVGID_1_"  overflow="visible"/>
			</clipPath>
			
				<pattern  id="SVGID_3_" xlink:href="#Unnamed_Pattern_4" patternTransform="matrix(0.866 -0.4286 -0.5 -0.7423 11626.6816 2137)">
			</pattern>
			<path clip-path="url(#SVGID_2_)" fill="url(#SVGID_3_)" d="M847.395,328h-826c0-10-7.394-17.383-17.394-17.383V21.764
				C14,21.764,21.394,14,21.394,5h826c0,9,7.605,16.764,16.605,16.764v288.854C855,310.618,847.395,318,847.395,328"/>
		</g>
	</g>
</g>
</svg>
