<?xml version="1.0" encoding="utf-8"?>
<!-- Generator: Adobe Illustrator 16.0.0, SVG Export Plug-In . SVG Version: 6.00 Build 0)  -->
<!DOCTYPE svg PUBLIC "-//W3C//DTD SVG 1.1//EN" "http://www.w3.org/Graphics/SVG/1.1/DTD/svg11.dtd">
<svg version="1.1" id="Layer_1" xmlns="http://www.w3.org/2000/svg" xmlns:xlink="http://www.w3.org/1999/xlink" x="0px" y="0px"
	 width="671.5px" height="992px" viewBox="0 0 671.5 992" enable-background="new 0 0 671.5 992" xml:space="preserve">
<pattern  width="10.006" height="20" patternUnits="userSpaceOnUse" id="Unnamed_Pattern_2" viewBox="0 -20 10.006 20" overflow="visible">
	<g>
		<polygon fill="none" points="0,-20 10.006,-20 10.006,0 0,0 		"/>
		<polygon fill="#FFFFFF" points="5,-20 0,-20 0,0 5,0 		"/>
	</g>
</pattern>
<g>
	<path fill="#FBEAF3" d="M642.75,991h-614c0-15.464-12.536-28-28-28V29c15.464,0,28-12.536,28-28h614c0,15.464,12.537,28,28,28v934
		C655.287,963,642.75,975.536,642.75,991"/>
	<g opacity="0.2">
		<g>
			<defs>
				<rect id="SVGID_1_" x="0.75" y="1.002" width="670" height="989.998"/>
			</defs>
			<clipPath id="SVGID_2_">
				<use xlink:href="#SVGID_1_"  overflow="visible"/>
			</clipPath>
			
				<pattern  id="SVGID_3_" xlink:href="#Unnamed_Pattern_2" patternTransform="matrix(1.3856 -0.9225 -0.8 -1.5978 12127.1328 10722.7773)">
			</pattern>
			<path clip-path="url(#SVGID_2_)" fill="url(#SVGID_3_)" d="M642.75,991h-614c0-15.464-12.536-28-28-28V29
				c15.464,0,28-12.536,28-28h614c0,15.464,12.537,28,28,28v934C655.287,963,642.75,975.536,642.75,991"/>
		</g>
	</g>
</g>
</svg>
