<?xml version="1.0" encoding="utf-8"?>
<!-- Generator: Adobe Illustrator 22.0.0, SVG Export Plug-In . SVG Version: 6.00 Build 0)  -->
<svg version="1.1" id="Layer_1" xmlns="http://www.w3.org/2000/svg" xmlns:xlink="http://www.w3.org/1999/xlink" x="0px" y="0px"
	 viewBox="0 0 218.1 215.8" style="enable-background:new 0 0 218.1 215.8;" xml:space="preserve">
<style type="text/css">
	.st0{filter:url(#Adobe_OpacityMaskFilter);}
	.st1{mask:url(#SVGID_1_);}
	.st2{fill:#E8E4F1;}
</style>
<defs>
	<filter id="Adobe_OpacityMaskFilter" filterUnits="userSpaceOnUse" x="1.1" y="0.2" width="216.5" height="215.4">
		<feFlood  style="flood-color:white;flood-opacity:1" result="back"/>
		<feBlend  in="SourceGraphic" in2="back" mode="normal"/>
	</filter>
</defs>
<mask maskUnits="userSpaceOnUse" x="1.1" y="0.2" width="216.5" height="215.4" id="SVGID_1_">
	<g class="st0">
		<g>
			<path d="M40.7,9.2c0.3,0.1,0.5,0.1,0.5,0.1c0,0,0.2-0.2,0.3-0.4l0.5-0.8c0.1-0.2,0.2-0.4,0.2-0.4c0,0-0.3-0.1-0.5-0.2l-0.6-0.2
				c-0.3-0.1-0.6,0-0.8,0.2l-0.7,0.9c-0.2,0.2-0.1,0.5,0.2,0.6L40.7,9.2z"/>
			<path d="M73.1,88.8c0,0,0.2,0.1,0.4,0.2l0.5,0.2c0.3,0.1,0.5,0.1,0.5,0.1c0,0,0.2-0.4,0.3-0.7l0.1-0.5c0.1-0.3,0-0.5-0.1-0.6
				c-0.1-0.1-0.6-0.1-0.8,0.1l-0.6,0.7C73.3,88.6,73.2,88.8,73.1,88.8z"/>
			<path d="M114.6,29.4c0,0.2,0,0.2,0.1,0.1s0.3-0.5,0.3-0.6C114.9,28.9,114.6,29.2,114.6,29.4z"/>
			<path d="M36.5,124.9c-0.2,0.2-0.2,0.5-0.1,0.7l0.5,0.7c0.2,0.2,0.5,0.2,0.8,0.1l1.1-0.8c0.2-0.2,0.4-0.3,0.4-0.4
				c0,0-0.2-0.2-0.4-0.4l-0.7-0.5c-0.2-0.1-0.6-0.1-0.8,0L36.5,124.9z"/>
			<path d="M29.1,32.3c-0.2,0-0.4,0.2-0.4,0.4c0,0.2,0.3,0.7,0.5,0.7l0.9,0c0.3,0,0.4-0.2,0.4-0.4c0-0.2-0.2-0.8-0.3-0.8
				C30.1,32.2,29.3,32.3,29.1,32.3z"/>
			<path d="M17.5,122.2c0.1,0.3,0.3,0.5,0.4,0.5c0.2,0,0.8-0.2,1.1-0.3l0.5-0.3c0.2-0.1,0.4-0.2,0.4-0.2c0,0-0.1-0.2-0.3-0.4l-0.7-1
				c-0.2-0.2-0.5-0.3-0.7-0.2l-0.5,0.3c-0.2,0.1-0.4,0.4-0.4,0.7L17.5,122.2z"/>
			<path d="M7.1,23.3c0,0.3,0.2,0.5,0.3,0.5c0.1,0,0.4-0.2,0.5-0.4l0.3-0.9c0-0.3-0.1-0.5-0.4-0.6c-0.2-0.1-0.9,0-0.9,0.3L7.1,23.3z
				"/>
			<path d="M42.2,118c-0.2,0-0.4,0.2-0.5,0.3c0,0.2,0.1,0.6,0.3,0.5l1.6-0.5c0.2-0.1,0.3-0.2,0.1-0.2C43.5,118.1,42.5,118,42.2,118z
				"/>
			<path d="M51,138.8c-0.2,0-0.4,0-0.5,0c0,0,0.1,0.3,0.3,0.4l0.9,0.7c0.2,0.1,0.4,0.1,0.4-0.1c0-0.2,0-0.7,0-0.7
				C52,139.1,51.3,138.9,51,138.8z"/>
			<path d="M8.8,136c0.1-0.1,0.1-0.2,0.1-0.3c0-0.1-0.2-0.4-0.4-0.5l-0.4-0.2C7.9,135,7.7,135,7.7,135c0,0-0.1,0.2-0.1,0.3
				c0,0.1,0.1,0.3,0.3,0.5C8,135.9,8.7,136.1,8.8,136z"/>
			<path d="M172.5-2.2c0,0.2,0.2,0.4,0.5,0.4l0.5-0.1c0.3,0,0.4-0.2,0.3-0.4c-0.1-0.2-0.4-0.6-0.6-0.7C173.1-3,172.5-2.4,172.5-2.2z
				"/>
			<path d="M65,94.4c0,0-0.1,0-0.2,0c0,0-0.2,0.2-0.2,0.5l-0.1,1c0,0.3,0.1,0.3,0.2,0.1l0.6-0.8c0.1-0.2,0.2-0.4,0.1-0.5
				C65.4,94.6,65,94.4,65,94.4z"/>
			<path d="M65.8,18.3c0.2,0.1,0.5,0.1,0.6,0.1c0.1,0,0.3-0.3,0.3-0.5l-0.2-1.2c-0.1-0.2-0.3-0.3-0.5-0.2l-2,0.9
				c-0.2,0.1-0.2,0.2,0,0.3L65.8,18.3z"/>
			<path d="M27.1,151.6c-0.1,0.2,0,0.5,0.2,0.6c0.2,0.1,0.8,0.1,0.8-0.1l0.1-1.8c0-0.2,0-0.4,0-0.4c0,0-0.2,0.2-0.3,0.3L27.1,151.6z
				"/>
			<path d="M102.2,28c-0.2,0.1-0.3,0.2,0,0.3c0.2,0.1,0.8,0,0.9-0.1c0-0.1-0.1-0.5-0.4-0.4L102.2,28z"/>
			<path d="M105.6,29.9c0.1,0,0.2-0.1,0.2-0.1c0-0.1-0.1-0.3-0.2-0.2c-0.1,0-0.5,0.1-0.5,0.2c0,0,0.1,0.2,0.1,0.2
				C105.2,29.8,105.5,29.9,105.6,29.9z"/>
			<path d="M112.5,53.3c0.2-0.2,0.2-0.4-0.1-0.5c-0.2-0.1-0.9-0.2-1-0.1c-0.1,0.2-0.2,0.7-0.1,0.8C111.4,53.7,112.3,53.5,112.5,53.3
				z"/>
			<path d="M186,167.1c0,0.2-0.1,0.5-0.1,0.5c0,0,0.2,0,0.5,0l0.7-0.1c0.2,0,0.5-0.2,0.6-0.5c0.1-0.2,0.2-0.9,0.1-1
				c0-0.1-0.3-0.5-0.5-0.6c-0.2,0-0.7-0.1-0.8-0.1c-0.1,0-0.2,0.3-0.3,0.5L186,167.1z"/>
			<path d="M155.9,188.3c-0.1,0.1-0.1,0.3-0.2,0.3c0,0,0.1,0.1,0.2,0.1c0.1,0,0.5,0,0.6-0.2l0.4-0.7c0.1-0.1,0-0.3-0.1-0.3
				c-0.1,0-0.5,0-0.6,0.2L155.9,188.3z"/>
			<path d="M70.2,174.7c0.2,0.2,0.3,0.3,0.3,0.3c0,0,0.2-0.2,0.3-0.4l0.4-1.3c0.1-0.3,0-0.3-0.2-0.2l-0.8,0.6
				C69.9,173.9,70,174.5,70.2,174.7z"/>
			<path d="M67.5,185.9c0.2-0.1,0.4-0.3,0.4-0.5c0-0.2-0.2-1-0.4-1l-0.9-0.2c-0.3,0-0.4,0.2-0.3,0.4l0.4,1
				C66.7,185.9,67.3,186,67.5,185.9z"/>
			<path d="M-24.9,192.4c0.1,0.3,0.3,0.5,0.6,0.5l0.7-0.1c0.3,0,0.6-0.2,0.7-0.4c0.1-0.2,0.4-0.8,0.3-0.9c0,0-0.3-0.1-0.5-0.2
				l-1.6-0.4c-0.3,0-0.5,0.1-0.4,0.4L-24.9,192.4z"/>
			<path d="M96.1,53.7c0,0.3,0.3,0.5,0.6,0.4c0.3,0,0.9-0.2,0.9-0.3c0-0.1-0.3-0.5-0.5-0.8l-0.4-0.5c-0.2-0.2-0.4-0.4-0.4-0.4
				c-0.1,0-0.2,0.3-0.2,0.5L96.1,53.7z"/>
			<path d="M51.6,32.3c-0.1,0.1-0.1,0.3,0,0.4l0.3,0.3c0.1,0.1,0.3,0.1,0.4-0.1l0.4-0.5c0.1-0.1,0.1-0.3-0.1-0.4l-0.3-0.2
				c-0.1-0.1-0.3-0.1-0.4,0.1L51.6,32.3z"/>
			<path d="M20.3,155.5c-0.2,0.1-0.4,0.3-0.4,0.4c0,0.1,0,0.3,0.1,0.4c0.1,0.1,0.6,0.1,0.8,0l0.6-0.5c0.2-0.2,0.3-0.4,0.2-0.5
				c-0.1-0.1-0.5-0.2-0.7,0L20.3,155.5z"/>
			<path d="M73.6,175.5c-0.1,0.2,0,0.4,0,0.4c0.1,0,0.4-0.1,0.5-0.2c0.1-0.1,0.2-0.5,0.1-0.6S73.7,175.3,73.6,175.5z"/>
			<path d="M17.9,83.5c0.2,0.1,0.5,0.1,0.5-0.1c0-0.2,0.1-0.7,0-0.7c-0.1,0-0.5-0.2-0.8-0.3l-0.6-0.2c-0.3-0.1-0.5-0.2-0.5-0.2
				c0,0,0,0.1,0,0.2c0,0.1,0.2,0.5,0.4,0.6L17.9,83.5z"/>
			<path d="M21.5,8.1c-0.1,0.2-0.2,0.4-0.2,0.4c0,0,0.3-0.1,0.5-0.3l0.4-0.4c0.1-0.2,0.2-0.4,0.2-0.4c-0.1,0-0.4,0.1-0.5,0.3
				L21.5,8.1z"/>
			<path d="M-4.2,196.8c0.2,0.1,0.5-0.1,0.5-0.3l0.2-0.7c0.1-0.2-0.1-0.6-0.3-0.7l-0.9-0.5c-0.2-0.1-0.4,0-0.5,0.2l-0.2,1.2
				c0,0.3,0.1,0.5,0.4,0.6L-4.2,196.8z"/>
			<path d="M71.3,12.8c-0.1,0.2,0.1,0.5,0.3,0.5c0.2,0.1,0.9,0,1-0.2l0.6-0.9c0.1-0.2,0-0.4-0.2-0.4l-0.9-0.1
				c-0.2,0-0.5,0.2-0.5,0.4L71.3,12.8z"/>
			<path d="M174.1,129.7c-0.1,0.1-0.2,0.3-0.2,0.4c-0.1,0.1-0.1,0.5,0.1,0.6c0.2,0,0.6-0.1,0.6-0.3l0-0.5c0-0.3,0-0.5,0-0.5
				C174.4,129.3,174.1,129.6,174.1,129.7z"/>
			<path d="M43.6,168.4c0,0.3,0,0.5,0,0.6c0,0,0.1,0.1,0.1,0.1c0,0,0.2-0.3,0.1-0.6l0-0.8c0-0.3-0.1-0.5-0.1-0.5
				c-0.1,0-0.2,0.4-0.2,0.7L43.6,168.4z"/>
			<path d="M71,141.7c0.1,0,0.2,0,0.2,0c0,0-0.2-0.1-0.3-0.1C70.8,141.6,70.9,141.7,71,141.7z"/>
			<path d="M38.1,162.2c0,0,0.2-0.1,0.5-0.3l0.4-0.4c0.2-0.2,0.2-0.5,0.1-0.6c-0.2-0.1-0.7-0.3-0.8,0l-0.2,0.8
				C38,162,38,162.2,38.1,162.2z"/>
			<path d="M-31.2,113.6c0-0.3-0.2-0.6-0.4-0.7c-0.2-0.1-0.9-0.3-1-0.2c0,0.1-0.2,0.4-0.1,0.6c0,0.2,0.1,0.8,0.3,1
				c0.1,0.2,0.6,0.6,0.8,0.6c0.1,0,0.5-0.2,0.5-0.4L-31.2,113.6z"/>
			<path d="M75.4,148.9c0,0.2,0.1,0.3,0.4,0.2c0,0,0.2-0.1,0.4-0.3c0.2-0.2,0.2-0.3,0-0.4C76,148.3,75.4,148.7,75.4,148.9z"/>
			<path d="M-22.6,176.9c-0.1,0.2,0,0.4,0.1,0.5c0.2,0.1,0.7,0.3,0.8,0.2c0.1-0.1,0.2-0.5,0.1-0.7l-0.3-0.4
				C-22.1,176.4-22.5,176.7-22.6,176.9z"/>
			<path d="M45.6,81.7c0.1,0.1,0.3,0.2,0.4,0.2c0.1,0,0.4-0.1,0.3-0.4l-0.2-1c0-0.3-0.2-0.3-0.4-0.1c0,0-0.2,0.2-0.3,0.4
				C45.3,81.1,45.5,81.6,45.6,81.7z"/>
			<path d="M74.2,150.6c-0.1,0-0.3,0.1-0.5,0.2c-0.1,0.1-0.4,0.6-0.4,0.8l0.1,0.7c0,0.2,0.1,0.3,0.2,0.3s0.4-0.1,0.4-0.2l0.8-1.3
				c0.1-0.1,0.1-0.3,0-0.3C74.9,150.7,74.4,150.6,74.2,150.6z"/>
			<path d="M68.1,72.8c0.1,0.1,0.4,0.1,0.5-0.1l0.6-0.6c0.1-0.1,0.2-0.3,0.1-0.3c0,0-0.2-0.2-0.3-0.2c-0.1-0.1-0.5-0.1-0.6,0
				l-0.6,0.6c-0.1,0.1-0.1,0.3,0,0.4L68.1,72.8z"/>
			<path d="M128.2,53.4c0.1,0.1,0.4,0.1,0.5-0.1c0.1-0.1,0.3-0.7,0.1-0.9l-0.6-0.5c-0.2-0.2-0.4-0.1-0.4,0.2l-0.1,0.5
				C127.7,52.8,128,53.3,128.2,53.4z"/>
			<path d="M97,105.9c0.2,0,0.3-0.2,0.2-0.4l-0.2-0.4c-0.1-0.2-0.4-0.4-0.5-0.4c-0.2,0-0.6,0.2-0.6,0.3c0,0.2,0.2,0.7,0.5,0.7
				L97,105.9z"/>
			<path d="M142.5,145.9c0.2,0.1,0.4,0.1,0.4,0.1c0-0.1-0.1-0.4-0.3-0.6l-0.5-0.5c-0.2-0.2-0.4-0.2-0.5-0.1
				c-0.1,0.1-0.1,0.5,0.1,0.6L142.5,145.9z"/>
			<path d="M46.1,102.3c0.1,0,0.2-0.1,0.3-0.2l0.1-0.2c0-0.1,0-0.2-0.1-0.3l-0.7-0.3c-0.1,0-0.2-0.1-0.2-0.1c0,0,0,0.1-0.1,0.2
				l-0.2,0.5c0,0.1,0,0.2,0.1,0.2L46.1,102.3z"/>
			<path d="M61.6-4.5c-0.1,0.2,0,0.5,0.2,0.6l1.8,1c0.2,0.1,0.5,0,0.6-0.1c0.1-0.2,0.4-0.9,0.3-1.1l-0.1-0.7c0-0.2-0.2-0.4-0.4-0.5
				l-1.5-0.2c-0.2,0-0.5,0.1-0.6,0.3L61.6-4.5z"/>
			<path d="M51.8,196.3c0,0.2,0.2,0.5,0.4,0.5l0.4,0.1c0.2,0.1,0.5,0,0.6-0.2l0.5-0.8c0.1-0.2,0.1-0.5-0.1-0.7l-1.4-1.2
				c-0.2-0.1-0.4-0.2-0.5-0.1c-0.1,0.1-0.3,0.6-0.3,0.8L51.8,196.3z"/>
			<path d="M-13.2,2.1c-0.1,0.2-0.2,0.5-0.2,0.5c0,0.1,0.2,0.3,0.5,0.4l0.7,0.2c0.3,0.1,0.6,0,0.7-0.2c0.1-0.2,0.2-0.8,0-1l-0.7-0.5
				C-12.5,1.5-13,1.9-13.2,2.1z"/>
			<path d="M131,16.8c0,0,0.1,0.2,0.4,0.3l0.4,0.3c0.2,0.1,0.4,0.1,0.5,0c0.1-0.1,0-0.4-0.2-0.5l-0.6-0.2
				C131.3,16.7,131,16.8,131,16.8z"/>
			<path d="M192.9,3.3c-0.2,0.2-0.1,0.4,0.1,0.5l0.6,0.3c0.2,0.1,0.6,0,0.7-0.2l1.1-1c0.2-0.2,0.2-0.5,0-0.6L195,1.9
				c-0.2-0.1-0.5-0.1-0.7,0.1L192.9,3.3z"/>
			<path d="M-12.8,105.5c0.3,0,0.5-0.1,0.5-0.2c0-0.1-0.1-0.5-0.4-0.6l-0.6-0.3c-0.2-0.1-0.5,0-0.7,0.2c-0.1,0.2-0.2,0.9,0.1,0.9
				L-12.8,105.5z"/>
			<path d="M74.5,39.6c0,0.2,0.1,0.4,0.3,0.4c0.2,0,0.7-0.3,0.6-0.5l-0.3-0.9c-0.1-0.2-0.2-0.4-0.2-0.4c0,0-0.2,0.2-0.2,0.4
				L74.5,39.6z"/>
			<path d="M25.8,68c-0.1,0.1,0,0.4,0.2,0.5l0.5,0.4c0.2,0.1,0.4,0.2,0.4,0.2c0,0,0.1-0.2,0.1-0.4c0-0.2,0-0.7-0.2-0.8
				C26.6,67.8,25.9,67.9,25.8,68z"/>
			<path d="M198.5,41.3c-0.1,0.1-0.2,0.4-0.2,0.7l-0.1,1.4c0,0.3,0.1,0.6,0.3,0.7c0.2,0.1,0.7,0.4,0.8,0.4c0,0,0.2-0.4,0.2-0.7
				l0.1-2.2c0-0.3-0.1-0.5-0.2-0.6C199.2,41.1,198.6,41.2,198.5,41.3z"/>
			<path d="M94,170.6c0.1,0.2,0.2,0.4,0.2,0.4c0.1,0,0.3-0.1,0.4-0.3c0.1-0.2,0.1-0.8-0.1-0.8C94.3,169.9,93.9,170.4,94,170.6z"/>
			<path d="M102.5,114.5c0.2,0.1,0.4-0.1,0.4-0.4l0-0.8c0-0.3-0.1-0.3-0.3-0.1l-0.4,0.6C101.9,114,102.3,114.4,102.5,114.5z"/>
			<path d="M144.5,164.8c0.2,0.1,0.5,0.2,0.5,0.1c0-0.1,0-0.4-0.2-0.6l-1.1-1c-0.2-0.2-0.5-0.2-0.6-0.1s-0.2,0.7,0,0.9L144.5,164.8z
				"/>
			<path d="M-4.2,60.9c-0.1-0.2-0.3-0.3-0.4-0.2c-0.2,0.1-0.5,0.7-0.5,0.9l0.2,0.6c0.1,0.2,0.3,0.4,0.5,0.3c0.2-0.1,0.6-0.5,0.5-0.8
				L-4.2,60.9z"/>
			<path d="M116.3,210.5c0.1-0.2,0-0.4-0.2-0.6l-1-0.8c-0.2-0.1-0.4-0.1-0.4,0.2l0,1c0,0.2,0.2,0.5,0.4,0.6l0.4,0.1
				C115.7,211,116.2,210.6,116.3,210.5z"/>
			<path d="M120.5,36c0,0-0.2,0-0.5,0.1c-0.2,0.1-0.9,0.3-0.9,0.5c0,0.2,0.2,0.7,0.5,0.7l1.2,0c0.3,0,0.4-0.2,0.2-0.4l-0.3-0.5
				C120.7,36.2,120.5,36,120.5,36z"/>
			<path d="M-22.4,32.9c0,0.2,0.2,0.5,0.4,0.5l0.9,0.2c0.3,0,0.5-0.1,0.6-0.2c0.1-0.2-0.1-0.7-0.4-0.8l-0.9-0.3
				C-22,32.2-22.4,32.7-22.4,32.9z"/>
			<path d="M135.1,104.8c-0.1-0.3-0.2-0.5-0.3-0.5c0,0-0.3,0-0.5,0.2l-0.8,0.6c-0.2,0.2-0.4,0.5-0.3,0.7c0.1,0.2,0.5,0.8,0.8,0.7
				l1-0.4c0.3-0.1,0.4-0.4,0.3-0.7L135.1,104.8z"/>
			<path d="M115.4,173.6c0-0.2,0-0.3,0-0.3c0,0,0-0.1-0.1-0.1s-0.2,0-0.4,0.1c-0.2,0.1-0.6,0.4-0.6,0.6c0,0.2,0.2,0.6,0.4,0.6
				C114.8,174.3,115.4,173.8,115.4,173.6z"/>
			<path d="M25.1,165.6c0-0.2-0.2-0.4-0.4-0.3l-2,0.5c-0.2,0.1-0.4,0.3-0.4,0.4c0,0.2,0.2,0.7,0.4,0.6l2-0.2c0.2,0,0.4-0.3,0.5-0.5
				L25.1,165.6z"/>
			<path d="M211.7,48.6c0.2,0.2,0.4,0.4,0.6,0.4c0.1,0.1,0.6,0.2,0.7,0.2c0.1,0,0.3-0.3,0.3-0.6c0-0.2,0-1-0.2-1.2l-0.4-0.4
				c-0.2-0.2-0.5-0.2-0.7,0l-0.5,0.5C211.2,47.8,211.5,48.5,211.7,48.6z"/>
			<path d="M83.9,116.8c0.1-0.1,0.2-0.3,0.2-0.6l-0.1-1.1c0-0.3-0.2-0.4-0.3-0.4c-0.1,0.1-0.4,0.5-0.4,0.7l0.1,1.1
				C83.5,116.8,83.8,116.9,83.9,116.8z"/>
			<path d="M38.3-4.2c0.1,0,0.2-0.1,0.2-0.2c0-0.1-0.2-0.4-0.3-0.4c-0.1,0-0.3,0-0.3,0.1C37.9-4.5,38.2-4.2,38.3-4.2z"/>
			<path d="M152.7-1.2c0,0.1,0.1,0.4,0.3,0.6c0.1,0.2,0.6,0.6,0.8,0.6c0.2,0,0.7-0.2,0.7-0.3c0-0.1-0.1-0.5-0.3-0.7l-0.3-0.4
				c-0.2-0.2-0.3-0.4-0.3-0.4c0,0-0.2-0.1-0.4,0S152.7-1.3,152.7-1.2z"/>
			<path d="M93.5,134.7c0.1,0,0.2,0,0.3-0.1c0.1-0.1,0.1-0.5,0-0.5c-0.1,0-0.5-0.1-0.5,0.1C93.2,134.3,93.4,134.7,93.5,134.7z"/>
			<path d="M125.9,61.5C125.9,61.5,125.9,61.5,125.9,61.5C125.9,61.5,125.9,61.5,125.9,61.5C125.9,61.5,125.9,61.5,125.9,61.5z"/>
			<path d="M128.1,131.7c0.2,0.1,0.4,0,0.4-0.1c0-0.1-0.1-0.6-0.3-0.7c-0.2-0.1-0.7-0.3-0.8-0.1c-0.1,0.1-0.2,0.6,0.1,0.7
				L128.1,131.7z"/>
			<path d="M135.2,128.7c0.1,0.1,0.4,0.1,0.6,0l0.6-0.2c0.3-0.1,0.5-0.3,0.4-0.4c0-0.1-0.3-0.4-0.6-0.3l-0.9,0.1
				c-0.3,0-0.5,0.1-0.5,0.2C134.9,128.1,135.1,128.6,135.2,128.7z"/>
			<path d="M177.5,188.1c0.2,0.1,0.4,0.2,0.4,0.1c0,0-0.1-0.2-0.3-0.3l-0.4-0.3c-0.2-0.1-0.4-0.2-0.4-0.1c-0.1,0.1,0,0.4,0.3,0.4
				L177.5,188.1z"/>
			<path d="M57.9,217.1c-0.1,0.2-0.1,0.5,0.1,0.7c0.2,0.2,1,0.3,1.1,0.1l1-1.3c0.2-0.2,0.3-0.6,0.3-0.8c0-0.2-0.1-0.8-0.3-0.8
				c-0.2,0-0.8,0-0.9,0.2L57.9,217.1z"/>
			<path d="M154.8,43.3c0.2,0,0.4-0.2,0.3-0.4l-0.2-0.8c-0.1-0.2-0.2-0.3-0.3,0l-0.3,0.8C154.1,43,154.5,43.3,154.8,43.3z"/>
			<path d="M192.7,76.6c0,0.2,0.1,0.4,0.1,0.4c0,0,0.3,0.1,0.6,0.2l2.8,0.8c0.3,0.1,0.5,0.2,0.5,0.2c0,0-0.2-0.1-0.4-0.3l-3-2.2
				c-0.2-0.2-0.5-0.2-0.5-0.2C192.8,75.6,192.7,76.3,192.7,76.6z"/>
			<path d="M0.2,173.9c0,0.2,0.1,0.6,0.3,0.7L1,175c0.2,0.1,0.4,0.3,0.4,0.3c0,0,0.2-0.1,0.4-0.3l1.1-1.3c0.1-0.2,0.1-0.4-0.2-0.5
				l-1.7-0.7c-0.2-0.1-0.4,0-0.5,0.3L0.2,173.9z"/>
			<path d="M137.8,34.6c0,0.3,0.3,0.5,0.5,0.5l2,0.2c0.3,0,0.5-0.1,0.5-0.2c0-0.1-0.1-0.6-0.3-0.7l-2.4-1.1c-0.2-0.1-0.4,0-0.4,0.3
				L137.8,34.6z"/>
			<path d="M12.5,158.1c-0.1,0.1,0,0.4,0.2,0.6l2.9,2.6c0.2,0.2,0.5,0.2,0.7,0c0.2-0.2,0.6-0.7,0.6-0.7c0,0-0.2-0.2-0.4-0.3
				l-3.3-2.3C13,157.8,12.6,158,12.5,158.1z"/>
			<path d="M206.4,198.7c0,0.1,0.1,0.3,0.3,0.3c0.2,0,0.8,0.1,1.1,0.1l2.1,0c0.3,0,0.4-0.2,0.3-0.4c-0.1-0.2-0.5-0.8-0.8-0.8
				l-2.5,0.3C206.6,198.3,206.4,198.6,206.4,198.7z"/>
			<path d="M71.3,196.5c-0.1,0.2,0,0.4,0.2,0.5l1.8,0.9c0.2,0.1,0.4,0.1,0.4,0.1c0-0.1-0.1-0.4-0.3-0.6l-1.4-1.2
				C71.8,196.1,71.4,196.4,71.3,196.5z"/>
			<path d="M60.3,188c0,0,0,0.2,0,0.5l0,0.5c0,0.2,0.2,0.6,0.4,0.7l0.6,0.3c0.2,0.1,0.4,0.2,0.4,0.2c0,0,0-0.2,0-0.5l0-0.9
				c0-0.2-0.2-0.5-0.4-0.6C61,188.2,60.3,188,60.3,188z"/>
			<path d="M187.3,87.2c0.1,0.2,0.3,0.4,0.5,0.4c0.2,0,0.8-0.1,0.8-0.2c0-0.1-0.1-0.5-0.4-0.6l-0.7-0.2
				C187.3,86.6,187.2,87,187.3,87.2z"/>
			<path d="M175-3c-0.1,0.2,0,0.4,0.2,0.5l0.7,0.1c0.3,0,0.4-0.2,0.3-0.4L176-3.7c-0.1-0.3-0.1-0.5-0.2-0.5c0,0-0.2,0.2-0.3,0.4
				L175-3z"/>
			<path d="M9.1-2.2c0,0.2,0.3,0.3,0.6,0.2l1.4-0.2c0.3,0,0.3-0.3,0.2-0.5L11-3c-0.2-0.2-0.5-0.3-0.7-0.2L9.5-2.9
				C9.2-2.8,9.1-2.3,9.1-2.2z"/>
			<path d="M51.6,6.5c0.3,0,0.4-0.2,0.4-0.5l-0.1-0.5c-0.1-0.3-0.3-0.6-0.4-0.6c-0.2-0.1-0.8,0-0.9,0.2l-0.3,1
				c0,0.3,0.1,0.5,0.4,0.5L51.6,6.5z"/>
			<path d="M103.5,148.8c0,0.2,0.1,0.4,0.3,0.4s0.7,0,0.8,0c0,0,0.1-0.1,0.1-0.2c0-0.1,0.1-0.5,0-0.6c0-0.1-0.3-0.3-0.4-0.2
				C104.1,148.1,103.5,148.6,103.5,148.8z"/>
			<path d="M114.5,125.4c-0.1-0.2-0.3-0.3-0.4-0.3c-0.1,0.1-0.2,0.4,0,0.6l0.9,0.8c0.2,0.2,0.3,0.3,0.3,0.3c0,0,0,0,0,0
				c0,0-0.1-0.2-0.3-0.5L114.5,125.4z"/>
			<path d="M53.7,208.9c0,0,0,0.2,0.1,0.5c0.1,0.2,0.4,0.8,0.7,0.8l1.6,0.1c0.3,0,0.5-0.2,0.6-0.4c0.1-0.2,0-0.9-0.3-0.9l-2.2-0.1
				C53.9,208.8,53.7,208.9,53.7,208.9z"/>
			<path d="M92,127.7c-0.1-0.1-0.4,0.1-0.6,0.2c-0.2,0.2-0.5,0.9-0.3,1.1l2,1.4c0.2,0.2,0.5,0.2,0.7,0c0.1-0.1,0.3-0.7,0.1-0.9
				l-1.1-1.2C92.5,128.1,92.1,127.8,92,127.7z"/>
			<path d="M127.1,156.8c0.1-0.1,0-0.3-0.3-0.4L126,156c-0.2-0.1-0.4-0.1-0.5,0c-0.1,0.1-0.1,0.5,0.2,0.6l0.7,0.5
				C126.6,157.1,127,156.9,127.1,156.8z"/>
			<path d="M101.4,200.8c-0.1,0-0.2,0.2-0.3,0.5l-0.1,0.5c0,0.2,0.2,0.4,0.4,0.4l0.8-0.1c0.2,0,0.4-0.2,0.5-0.3c0-0.2,0-0.6-0.1-0.7
				c-0.1-0.1-0.4-0.2-0.5-0.3C102.1,200.7,101.5,200.8,101.4,200.8z"/>
			<path d="M33.3,85.6C33.3,85.6,33.3,85.7,33.3,85.6c0,0.1,0.2,0.2,0.5,0.4l0.7,0.4c0.2,0.1,0.5,0.2,0.6,0.1
				c0.1-0.1-0.1-0.5-0.3-0.5l-0.9-0.2C33.6,85.6,33.3,85.6,33.3,85.6z"/>
			<path d="M79.6,210.3c0,0.1,0.2,0.2,0.4,0.3c0.2,0.1,0.6,0.2,0.5,0l-0.5-0.5c-0.2-0.2-0.4-0.3-0.4-0.3
				C79.5,209.9,79.5,210.2,79.6,210.3z"/>
			<path d="M165.5,57.6c0.2,0.2,0.4,0.1,0.4-0.2l0.3-1.6c0-0.3,0-0.5-0.1-0.5c-0.1,0-0.5,0-0.7,0.2l-0.6,0.7
				c-0.1,0.2-0.1,0.6,0.1,0.8L165.5,57.6z"/>
			<path d="M81.2,211.8c0-0.2-0.1-0.3-0.2-0.3c-0.1,0-0.3,0.1-0.2,0.3C81,212,81.2,212,81.2,211.8z"/>
			<path d="M181.5,10.8c0.1,0,0.3-0.1,0.5-0.3l0.7-0.8c0.2-0.2,0.1-0.5-0.2-0.5l-0.6-0.1c-0.3-0.1-0.5,0.1-0.5,0.4l0,0.6
				C181.3,10.4,181.4,10.8,181.5,10.8z"/>
			<path d="M178.4,49.2c0.2-0.1,0.3-0.3,0.3-0.3c0-0.1-0.2-0.4-0.4-0.5l-0.5-0.4c-0.2-0.2-0.3-0.1-0.3,0.1l0.2,1.1
				C177.8,49.3,178.3,49.3,178.4,49.2z"/>
			<path d="M162.2,115.8c0,0,0.1-0.1,0.1-0.2c0-0.1-0.1-0.4-0.3-0.5l-0.7-0.5c-0.2-0.2-0.5-0.2-0.5-0.1c-0.1,0.1-0.1,0.4,0.1,0.6
				l0.8,0.6C161.9,115.8,162.2,115.8,162.2,115.8z"/>
			<path d="M137.2,158.8c0-0.2,0.1-0.5,0-0.5c0,0-0.2,0-0.5,0l-0.5,0c-0.3,0-0.5,0.3-0.6,0.5l-0.3,1.2c-0.1,0.2,0.1,0.5,0.4,0.5
				l0.7,0c0.3,0,0.5-0.2,0.5-0.5L137.2,158.8z"/>
			<path d="M180.5,84.9c-0.1,0.1-0.1,0.3,0,0.6l0.4,0.9c0.1,0.2,0.3,0.4,0.4,0.4c0.1,0,0.4-0.3,0.4-0.4c0-0.2-0.1-0.7-0.3-0.9
				C181.2,85.2,180.6,84.8,180.5,84.9z"/>
			<path d="M222.9,134.8c0.1,0.1,0.2,0.2,0.3,0.2c0.1,0,0.3-0.1,0.3-0.3l0.2-1.1c0-0.2-0.1-0.3-0.2-0.4l-0.6-0.1
				c-0.2,0-0.3,0.1-0.3,0.3l-0.1,0.5C222.5,134.2,222.8,134.6,222.9,134.8z"/>
			<path d="M221.8,133.2c0.1,0,0.3,0,0.6-0.1l0.9-0.3c0.2-0.1,0.5-0.4,0.5-0.7l0-1.2c0-0.3-0.1-0.5-0.1-0.6
				c-0.1-0.1-0.4-0.2-0.7-0.2c-0.2,0-1,0.3-1,0.5l-0.3,1.9C221.6,132.9,221.8,133.2,221.8,133.2z"/>
			<path d="M122.5,63c0.3,0,0.5-0.1,0.5-0.3c0-0.1-0.3-0.4-0.6-0.3l-0.8,0.4c-0.2,0.1-0.2,0.2,0,0.2L122.5,63z"/>
			<path d="M109.2,168.8c0.1,0,0.2-0.1,0.1-0.3l-0.2-0.3c-0.1-0.2-0.2-0.3-0.3-0.1C108.8,168.2,109.1,168.8,109.2,168.8z"/>
			<path d="M192.4,54.4c-0.1,0-0.1,0.2-0.2,0.4s0.1,0.7,0.3,0.9c0.2,0.2,0.9,0.6,1,0.7c0.1,0,0.3,0.1,0.4,0c0.1-0.1,0.1-0.5-0.1-0.7
				l-0.5-0.7c-0.2-0.2-0.4-0.5-0.4-0.5C192.9,54.3,192.5,54.3,192.4,54.4z"/>
			<path d="M126.1,43.3c-0.1,0.1,0,0.3,0.1,0.3c0.1,0.1,0.5,0.1,0.5,0c0-0.2-0.1-0.6-0.1-0.6C126.5,43,126.2,43.2,126.1,43.3z"/>
			<path d="M164.9,80.7c-0.3,0.1-0.4,0.4-0.4,0.7l0.2,0.7c0.1,0.3,0.4,0.4,0.6,0.3l2.4-0.9c0.3-0.1,0.5-0.2,0.5-0.2
				c0,0-0.1-0.2-0.3-0.4c-0.2-0.2-0.8-0.6-1-0.6c-0.3,0-1.2,0.2-1.5,0.3L164.9,80.7z"/>
			<path d="M116.6,30.7c0.2,0.1,0.4,0.1,0.4,0.1c0,0,0-0.2,0-0.4c0-0.2-0.1-0.8-0.1-0.8c-0.1,0-0.3,0-0.4,0.2
				C116.3,29.9,116.4,30.6,116.6,30.7z"/>
			<path d="M210.9,66.8c0.1-0.1,0.2-0.3,0.2-0.6l0-0.6c0-0.3-0.1-0.6-0.2-0.6c-0.1-0.1-0.5,0-0.5,0.3l0,1.2
				C210.4,66.8,210.8,66.9,210.9,66.8z"/>
			<path d="M166.4,55.3c-0.1,0.3-0.1,0.5,0,0.6c0.1,0.1,0.6,0.2,0.8,0.2c0.3,0,1-0.2,1.1-0.5l0.5-1.3c0.1-0.3-0.1-0.5-0.3-0.6
				l-0.8-0.2c-0.3,0-0.6,0.1-0.7,0.4L166.4,55.3z"/>
			<path d="M178.6,22.2C178.8,22.2,178.8,22.2,178.6,22.2c-0.1-0.2-0.5-0.3-0.5-0.2C178.1,22,178.5,22.2,178.6,22.2z"/>
			<path d="M124,130.8c0.2,0,0.3-0.1,0.2-0.3l-0.5-0.7c-0.1-0.2-0.3-0.2-0.5,0l-0.2,0.5c-0.1,0.2,0.1,0.4,0.3,0.5L124,130.8z"/>
			<path d="M134.7,75.7c-0.1,0.2,0.1,0.3,0.3,0.4l1.4,0.2c0.3,0,0.4,0,0.4-0.2c0-0.1-0.3-0.5-0.6-0.6l-0.7-0.2
				C135.3,75.2,134.8,75.5,134.7,75.7z"/>
			<path d="M174.3,55.3c0,0,0.1,0.1,0.2,0.3c0.1,0.1,0.6,0.5,0.9,0.6l1.1,0.5c0.2,0.1,0.4,0,0.4-0.1c0-0.2-0.1-0.7-0.1-0.8
				c0-0.1-0.3-0.3-0.6-0.3l-1.4-0.1C174.5,55.2,174.3,55.3,174.3,55.3z"/>
			<path d="M142,54.8c0.2,0.1,0.4,0.1,0.5,0c0.1-0.1,0.1-0.4,0.1-0.4c0,0-0.2-0.1-0.5-0.1l-1-0.1c-0.2,0-0.3,0,0,0.1L142,54.8z"/>
			<path d="M210.5,144.4c0,0,0,0.2,0.1,0.5l0.3,1c0.1,0.2,0.3,0.4,0.5,0.3l1.2-0.2c0.2,0,0.4-0.2,0.5-0.3c0-0.1-0.1-0.6-0.3-0.7
				l-1.8-0.6C210.7,144.4,210.5,144.4,210.5,144.4z"/>
			<path d="M92.2-3.1c0.1,0.1,0.1,0.1,0.1,0.1c0,0,0.1,0,0.2,0.1c0.1,0,0.5-0.1,0.6-0.3l0.6-1.3C93.8-4.8,93.9-5,93.9-5
				c0,0-0.3,0.1-0.5,0.3l-1.1,1C92.1-3.5,92-3.4,92-3.4C92-3.3,92.1-3.1,92.2-3.1z"/>
			<path d="M129.3,79.5c0.1-0.1,0.1-0.4,0.1-0.6c0-0.2-0.1-0.9-0.2-1c-0.1,0-0.4-0.1-0.5-0.1c-0.1,0-0.3,0.2-0.2,0.5l0.4,1.1
				C128.9,79.6,129.2,79.6,129.3,79.5z"/>
			<path d="M180.8,92.1c0.2-0.2,0.4-0.5,0.4-0.8l0-1.3c0-0.3,0-0.5-0.1-0.5c0,0-0.3,0.2-0.4,0.4l-1.6,2.2c-0.1,0.2-0.3,0.4-0.3,0.4
				c0,0,0.1,0.1,0.3,0.2c0.2,0.1,0.8,0.2,1,0L180.8,92.1z"/>
			<path d="M217,149.3c0-0.1,0-0.3-0.1-0.3c-0.1,0-0.4,0-0.6,0.2l-1.1,0.8c-0.2,0.2-0.3,0.4-0.2,0.4c0.1,0.1,0.5,0.2,0.7,0.1
				l0.8-0.4C216.7,150,217,149.5,217,149.3z"/>
			<path d="M-24.1,59.2c0.1-0.2,0.2-0.4,0.1-0.4c-0.1,0-0.5,0.1-0.7,0.3l-1.1,1.3c-0.2,0.2-0.2,0.4-0.1,0.5c0.1,0.1,0.7,0.1,0.8-0.1
				L-24.1,59.2z"/>
			<path d="M185.2,89.5c-0.1-0.2-0.2-0.4-0.4-0.4c-0.2,0-0.6,0.4-0.5,0.7l0.1,1c0,0.2,0.2,0.4,0.4,0.3c0.2-0.1,0.6-0.6,0.6-0.8
				L185.2,89.5z"/>
			<path d="M62.4,18.9c0.2,0.2,0.5,0.3,0.8,0.3c0,0,1.2-0.3,2.2-0.6c0.4-0.1,0.6-0.2,0.6-0.2c0.2-0.1,0.3-0.3,0.2-0.5
				c-0.1-0.2-0.8-0.6-1.1-0.5L62.5,18c-0.2,0.1-0.4,0.3-0.3,0.5C62.2,18.7,62.4,18.9,62.4,18.9z"/>
			<path d="M213,78.7c-0.2,0.2-0.2,0.5,0,0.6c0.2,0.1,0.9,0.2,1.1,0l1.8-2c0.2-0.2,0.2-0.5,0-0.7c-0.2-0.2-1-0.2-1.2,0L213,78.7z"/>
			<path d="M193,29.7c0.2-0.2,0.5-0.5,0.6-0.8c0,0,0.1-0.4,0-0.7c0-0.3-0.2-0.3-0.4-0.1l-3.5,3.4c-0.2,0.2-0.3,0.4-0.3,0.4
				c0,0,0.4,0,0.6-0.2L193,29.7z"/>
			<path d="M170.4,88.3c0.2,0.1,0.4-0.1,0.5-0.3l0.3-1.5c0-0.2-0.1-0.3-0.2-0.1l-1,1.2C169.9,87.8,170.2,88.3,170.4,88.3z"/>
			<path d="M189.4,99.9c0.1-0.2,0-0.6-0.2-0.7c-0.2-0.1-1-0.4-1.1-0.3c-0.2,0.1-0.6,0.7-0.6,0.9l0,1.9c0,0.3,0.1,0.5,0.2,0.6
				c0.1,0.1,0.4,0,0.5-0.2L189.4,99.9z"/>
			<path d="M156.6,40.4c-0.1,0.2,0,0.5,0.2,0.7l0.9,0.5c0.2,0.1,0.4,0,0.3-0.3l-0.5-1.6c-0.1-0.2-0.3-0.3-0.4-0.1L156.6,40.4z"/>
			<path d="M146.5,158.9c0.1,0.1,0.2,0.2,0.2,0.2c0,0,0.2-0.1,0.2-0.2c0.1-0.1,0.2-0.4,0.2-0.6l-0.1-0.5c0-0.1-0.2-0.2-0.3-0.2
				l-0.6,0.1c-0.1,0-0.2,0.2-0.1,0.3L146.5,158.9z"/>
			<path d="M173.3,178c0,0.3,0.3,0.5,0.6,0.4l2.3-0.4c0.3-0.1,0.5-0.4,0.5-0.6l-0.1-0.8c0-0.3-0.3-0.4-0.6-0.4l-2.2,0.7
				C173.5,176.9,173.3,177.7,173.3,178z"/>
			<path d="M174.6,205.3c0.1,0,0.4,0,0.6,0s0.9-0.3,1-0.6s0.1-0.9-0.1-0.8l-1.6,0.2c-0.3,0-0.4,0.2-0.4,0.4
				C174.1,204.7,174.5,205.2,174.6,205.3z"/>
			<path d="M132.5,173.5c-0.2-0.1-0.5,0.1-0.6,0.3c-0.1,0.2-0.4,0.8-0.4,0.8c0,0,0.3,0,0.5-0.2l0.6-0.4
				C133,173.8,132.7,173.5,132.5,173.5z"/>
			<path d="M224.6,166.3c0.2-0.1,0.4-0.3,0.4-0.5c0-0.1-0.1-0.5-0.1-0.5c-0.1,0-0.2,0-0.3,0c0,0-0.4,0.1-0.6,0.2l-1.7,0.6
				c-0.3,0.1-0.3,0.3-0.2,0.5c0.2,0.2,0.8,0.7,1,0.5L224.6,166.3z"/>
			<path d="M125.6,210.9c0-0.2,0.1-0.4,0.1-0.4c0,0-0.2,0.1-0.4,0.2l-0.5,0.3c-0.2,0.1-0.2,0.3,0,0.4
				C125,211.5,125.6,211.2,125.6,210.9z"/>
			<path d="M126.7,60.9c0.1-0.2-0.1-0.3-0.3-0.3c-0.2,0-0.8,0.2-0.7,0.3c0.1,0.1,0.3,0.5,0.4,0.5C126.1,61.4,126.6,61.1,126.7,60.9z
				"/>
			<path d="M160.3,113.9c0,0-0.2-0.1-0.5-0.1l-0.5-0.1c-0.3,0-0.5,0-0.4,0c0,0.1,0.3,0.3,0.5,0.3C159.6,114,160.3,113.9,160.3,113.9
				z"/>
			<path d="M158.8,162.7c0-0.1-0.2-0.2-0.5-0.2l-0.8-0.2c-0.2-0.1-0.4,0-0.5,0c0,0.1,0.2,0.3,0.4,0.4l1,0.2
				C158.7,162.9,158.8,162.8,158.8,162.7z"/>
			<path d="M15.9,184.9c0-0.1,0-0.4-0.1-0.5c-0.1-0.2-0.5-0.6-0.7-0.6l-1-0.1c-0.2,0-0.5,0.2-0.5,0.4l-0.1,0.6
				c0,0.2,0.2,0.5,0.4,0.5l1.5,0.2C15.6,185.4,15.9,185.1,15.9,184.9z"/>
			<path d="M25.8,187.1c0.2-0.1,0.5-0.3,0.5-0.4c0-0.2-0.2-0.6-0.4-0.7l-0.7-0.1c-0.3,0-0.5,0.2-0.5,0.5l-0.1,0.5c0,0.3,0,0.5,0,0.5
				c0,0,0.3,0,0.5-0.1L25.8,187.1z"/>
			<path d="M165.1,120.4c0.2,0.2,0.5,0.3,0.7,0.1c0.2-0.1,0.4-0.7,0.2-0.8l-1.5-0.6c-0.2-0.1-0.3,0-0.2,0.2L165.1,120.4z"/>
			<path d="M21,60.9c0.1,0,0.2,0,0.2-0.1l0.1-0.2c0-0.1,0-0.2-0.1-0.3l-0.4-0.2c-0.1,0-0.2-0.1-0.2-0.1c0,0-0.1,0.1-0.1,0.2
				l-0.1,0.2c0,0.1,0,0.2,0,0.2c0,0,0.1,0.2,0.2,0.2L21,60.9z"/>
			<path d="M197.9,114.5c0,0.2,0.1,0.3,0.2,0.2c0.1-0.1,0.3-0.5,0.2-0.6C198.2,114.1,197.9,114.3,197.9,114.5z"/>
			<path d="M177.6,156.6c0.2,0,0.4,0,0.4,0c0.1,0,0.3-0.3,0.4-0.4c0.1-0.2,0.2-0.8,0-0.9l-1-0.7c-0.2-0.1-0.4,0-0.4,0.3l0,1.2
				C176.9,156.3,177.4,156.6,177.6,156.6z"/>
			<path d="M188.9,152.9c0.3,0,0.4-0.2,0.4-0.5l-0.1-1.2c0-0.3-0.1-0.5-0.1-0.5c-0.1,0-0.3,0.1-0.5,0.3l-0.4,0.8
				c-0.1,0.2-0.2,0.5-0.2,0.6c0,0.1,0,0.4,0.1,0.4c0,0,0.2,0,0.5,0C188.7,152.9,188.9,152.9,188.9,152.9z"/>
			<path d="M157.4,147.7c0,0,0.1-0.1,0.3-0.3c0.1-0.2,0.2-0.6,0-0.5c-0.2,0-0.6,0.2-0.5,0.4C157.2,147.4,157.3,147.7,157.4,147.7z"
				/>
			<path d="M197.7,168.2c0.1-0.2,0-0.5-0.2-0.7l-0.6-0.6c-0.2-0.2-0.4-0.3-0.4-0.2c-0.1,0-0.2,0.4-0.2,0.6c0,0,0.1,0.6,0.2,1.2
				c0,0.2,0,0.2,0,0.2c0,0.2,0.2,0.4,0.4,0.4C197,169.1,197.6,168.4,197.7,168.2z"/>
			<path d="M3.4,212.9c0.1,0.2,0.2,0.3,0.3,0.3c0,0,0.2-0.2,0.4-0.5l0.7-1c0.2-0.2,0.1-0.6-0.1-0.8l-1-1c-0.2-0.2-0.5-0.3-0.7-0.2
				c-0.2,0.1-0.6,0.5-0.5,0.8l0.4,1.2C2.9,212.1,3.3,212.8,3.4,212.9z"/>
			<path d="M138.4,183.6c0,0-0.3-0.1-0.5-0.2l-0.7-0.1c-0.3,0-0.5,0-0.6,0.2s-0.2,0.6-0.2,0.6c0,0.1,0.2,0.3,0.4,0.2l1.2-0.3
				C138.3,183.9,138.4,183.7,138.4,183.6z"/>
			<path d="M148,139.4c-0.2-0.2-0.4-0.3-0.6-0.2c-0.2,0.1-0.7,0.5-0.6,0.6s0.3,0.6,0.6,0.5l0.8-0.2c0.2-0.1,0.3-0.3,0.1-0.5
				L148,139.4z"/>
			<path d="M153,209c0.2-0.2,0.1-0.5-0.1-0.6l-1.1-0.5c-0.3-0.1-0.5,0-0.6,0.3l-0.1,0.5c-0.1,0.3,0,0.6,0.2,0.7
				c0.2,0.1,0.9,0.3,1.1,0.1L153,209z"/>
			<path d="M144,77.4c0-0.2-0.1-0.3-0.2,0l-0.4,0.8c-0.1,0.2,0,0.4,0.2,0.4c0.2,0,0.7-0.1,0.6-0.4L144,77.4z"/>
			<path d="M210.6,167.3c-0.1-0.1-0.2-0.2-0.3-0.2c-0.1,0-0.4,0.2-0.5,0.3l-0.7,0.6c-0.1,0.1-0.2,0.2-0.2,0.2c0,0,0.1,0.1,0.3,0.2
				l0.6,0.4c0.1,0.1,0.3,0.1,0.4-0.1l0.5-0.5c0.1-0.1,0.2-0.3,0.1-0.5L210.6,167.3z"/>
			<path d="M203.9,115.4c-0.1,0.2,0.1,0.3,0.3,0.2l1.9-1.4c0.2-0.1,0.2-0.4,0-0.5l-1.2-0.7c-0.2-0.1-0.4,0-0.5,0.2L203.9,115.4z"/>
			<path d="M124.1,1.9c0,0.1,0.2,0.3,0.4,0.3l1.5,0.1c0.2,0,0.4,0,0.4,0c0,0-0.2-0.1-0.4-0.2l-1.5-0.5
				C124.4,1.5,124.1,1.7,124.1,1.9z"/>
			<path d="M121.2,91.4c0,0,0,0.1,0,0.2s0.3,0.3,0.5,0.4l1.5,0.3c0.3,0.1,0.5,0.1,0.5,0.1c0,0-0.2-0.1-0.4-0.2l-1.6-0.6
				C121.4,91.4,121.2,91.4,121.2,91.4z"/>
			<path d="M212.4,87.9c0,0.2,0.2,0.5,0.4,0.5l1.4,0.2c0.3,0,0.5,0,0.5,0c0,0-0.1-0.2-0.2-0.4l-1.2-2.1c-0.1-0.2-0.3-0.4-0.3-0.4
				c0,0-0.2,0.2-0.3,0.5L212.4,87.9z"/>
			<path d="M140.4,198.9c-0.2,0.1-0.2,0.4-0.1,0.6l0.6,1.1c0.1,0.2,0.4,0.3,0.6,0.2l1.1-0.6c0.2-0.1,0.2-0.4,0-0.5l-1.2-0.9
				C141.1,198.6,140.6,198.8,140.4,198.9z"/>
			<path d="M152.6,115c-0.1,0.2,0,0.4,0.3,0.4l1.5,0.3c0.2,0,0.4,0,0.5-0.1c0-0.1-0.1-0.4-0.3-0.5l-1.2-0.7
				C153.1,114.4,152.7,114.8,152.6,115z"/>
			<path d="M155.4,149.5c-0.1,0.1,0,0.3,0.2,0.4l0.6,0.3c0.2,0.1,0.5,0,0.6-0.1c0.1-0.2,0.3-0.7,0-0.7l-0.8-0.2
				C155.8,149.1,155.4,149.4,155.4,149.5z"/>
			<path d="M176.2,121.9c-0.2,0.2-0.2,0.4,0,0.5l0.8,0.5c0.2,0.1,0.5,0.2,0.7,0.1c0.1-0.1,0.4-0.5,0.3-0.7l-0.5-0.6
				c-0.2-0.2-0.5-0.2-0.7-0.1L176.2,121.9z"/>
			<path d="M176.3,215.2c-0.1,0.2-0.2,0.5-0.2,0.7l0,0.9c0,0.2,0,0.5,0.1,0.5c0.1,0,0.3,0.1,0.4,0c0.1,0,0.4-0.3,0.5-0.5l0.6-1.1
				c0.1-0.2,0-0.5-0.2-0.6l-0.4-0.2C176.9,214.7,176.4,215,176.3,215.2z"/>
			<path d="M133.2,202.3c0.1,0,0.2-0.1,0.2-0.4l-0.1-0.8c0-0.3-0.1-0.3-0.2,0l-0.2,0.5C132.8,201.9,133,202.3,133.2,202.3z"/>
			<path d="M171.3,157.3c0,0.1,0.1,0.2,0.2,0.2c0.1,0,0.3-0.2,0.4-0.3c0-0.1,0-0.4-0.1-0.3C171.6,156.9,171.3,157.2,171.3,157.3z"/>
			<path d="M97.1,215.4c-0.1,0.2,0.1,0.5,0.3,0.6l0.5,0.2c0.2,0.1,0.4,0,0.5,0c0-0.1,0.1-0.4,0-0.7l-0.3-1.1
				c-0.1-0.2-0.1-0.4-0.2-0.4c0,0-0.2,0.2-0.3,0.4L97.1,215.4z"/>
			<path d="M188.4,190.3c-0.3,0-0.6,0.1-0.6,0.3c-0.1,0.2-0.1,0.8,0.1,1l0.6,0.3c0.3,0.1,0.6,0,0.7-0.2l0.3-0.6
				c0.1-0.3,0.1-0.5,0.1-0.5C189.5,190.4,188.6,190.3,188.4,190.3z"/>
			<path d="M211.3,182.5c-0.1,0.3-0.1,0.6,0,0.8c0.1,0.2,0.3,0.6,0.5,0.7c0.2,0.1,0.7,0,0.8-0.3l0.4-1.3c0.1-0.3-0.1-0.5-0.4-0.6
				l-0.6-0.1c-0.3,0-0.5,0.1-0.6,0.4C211.3,182.3,211.3,182.5,211.3,182.5z"/>
			<path d="M168.8,153c-0.1,0.2-0.1,0.4-0.1,0.4c0,0.1,0.2,0.4,0.4,0.5c0.2,0.1,0.8,0.3,0.9,0.2c0.1-0.1,0.2-0.5,0.2-0.8
				c0-0.2-0.2-0.8-0.4-0.9C169.6,152.5,168.9,152.8,168.8,153z"/>
			<path d="M158.6,86.5c0,0.2,0.1,0.3,0.1,0.3c0.1,0,0.4,0,0.5-0.1c0.2-0.1,0.5-0.4,0.4-0.6c-0.1-0.2-0.4-0.6-0.5-0.5
				C159,85.7,158.6,86.3,158.6,86.5z"/>
			<path d="M124.3,204.6c-0.2,0-0.4,0.3-0.4,0.5c0.1,0.2,0.3,0.7,0.4,0.7c0.2,0,0.6-0.2,0.6-0.2s0.2-0.4,0.2-0.5
				c0-0.1,0.1-0.5,0.1-0.5c0,0-0.3,0-0.6,0C124.5,204.5,124.3,204.6,124.3,204.6z"/>
			<path d="M111.3,215.9c0,0.1,0.1,0.3,0.3,0.5l0.5,0.7c0.1,0.2,0.4,0.4,0.5,0.3c0.2-0.1,0.6-0.4,0.6-0.7l0.1-1.1
				c0-0.3-0.2-0.4-0.5-0.4l-1.1,0.3C111.5,215.6,111.3,215.8,111.3,215.9z"/>
			<path d="M140.7,209c0.2,0,0.4-0.1,0.4-0.4l-0.1-0.8c0-0.3-0.1-0.3-0.3-0.1l-0.5,0.7C140.1,208.6,140.5,209,140.7,209z"/>
			<path d="M109,72.2c0.2,0.1,0.3,0,0.4-0.3l0.1-0.5c0.1-0.3-0.1-0.3-0.3-0.2C109,71.3,108.8,72.1,109,72.2z"/>
			<path d="M163.1,90c-0.2,0.2-0.3,0.4-0.3,0.5c0,0.1,0.3,0.3,0.5,0.3c0.2,0,0.8-0.3,0.7-0.6C164,90,163.3,89.9,163.1,90z"/>
			<path d="M106.7,211.9c-0.1,0.1,0,0.4,0.2,0.5l1,0.7c0.2,0.1,0.4,0.2,0.4,0.2c0,0,0-0.1,0.1-0.3c0-0.1-0.1-0.6-0.3-0.8l-0.6-0.6
				C107.3,211.6,106.8,211.8,106.7,211.9z"/>
			<path d="M160.5,151.2c0,0.1,0,0.3,0,0.4c0,0.1,0.3,0.6,0.5,0.7l0.6,0.2c0.3,0.1,0.5,0.2,0.6,0.2c0.1,0,0.4-0.2,0.5-0.5l0.3-0.6
				c0.1-0.3,0-0.5-0.3-0.5l-1.5-0.2C160.9,150.9,160.5,151.1,160.5,151.2z"/>
			<path d="M127.1,103.3c0,0.1,0.2,0.2,0.4,0.3l1.5,0.3c0.3,0,0.5,0,0.6,0c0-0.1-0.1-0.3-0.4-0.4l-1.4-0.4
				C127.5,103,127.2,103.2,127.1,103.3z"/>
			<path d="M210.8,135.9c-0.1,0.2-0.3,0.6-0.3,0.8c0,0,0,0.2,0,0.4s0.2,0.5,0.4,0.5l0.9,0.1c0.2,0,0.5-0.2,0.5-0.4l0.2-1.1
				c0-0.2-0.1-0.5-0.3-0.7c-0.2-0.1-0.9-0.3-1.1-0.1L210.8,135.9z"/>
			<path d="M139.4,92c0,0.1,0.1,0.3,0.3,0.4l0.4,0.3c0.2,0.2,0.4,0.3,0.4,0.2c0,0,0-0.3-0.2-0.5l-0.5-0.5
				C139.7,91.8,139.5,91.9,139.4,92z"/>
			<path d="M180.8,91c0,0.1,0.2,0.1,0.4,0.1l0.4-0.1c0.2-0.1,0.4-0.2,0.3-0.2c0-0.1-0.3-0.2-0.5-0.2C181.4,90.5,180.8,90.9,180.8,91
				z"/>
			<path d="M198.5,108.1c0.1,0.3,0.2,0.3,0.3,0l0.5-1.3c0.1-0.3-0.1-0.4-0.3-0.4c-0.3,0-1,0.3-0.9,0.5L198.5,108.1z"/>
			<path d="M145.6,109.7c0,0.2,0.2,0.3,0.4,0.4l0.8,0.1c0.2,0,0.5,0,0.5,0c0,0-0.1-0.2-0.2-0.4l-0.2-0.5c-0.1-0.2-0.3-0.4-0.5-0.3
				S145.6,109.5,145.6,109.7z"/>
			<path d="M150.4,96.6c0.1,0,0.2-0.2,0.2-0.4c0-0.2-0.2-0.4-0.3-0.3C150.2,96.1,150.2,96.6,150.4,96.6z"/>
			<path d="M203.9,78.4c-0.2,0.2-0.2,0.5-0.1,0.6c0.1,0.2,0.7,0.5,0.8,0.2l0.4-0.8c0.1-0.2,0.1-0.4,0-0.5c-0.1,0-0.5,0-0.7,0.1
				C204.1,78.3,203.9,78.4,203.9,78.4z"/>
			<path d="M-18.3,77.2c0,0.1,0.2,0.2,0.3,0.3c0.2,0.1,0.8,0.2,0.8,0c0.1-0.2,0-0.6-0.2-0.6l-0.6,0C-18.1,77-18.3,77.2-18.3,77.2z"
				/>
			<path d="M-13,172.5c0,0.2,0.1,0.3,0.3,0.3c0.2,0,0.6,0.1,0.6,0c0,0-0.1-0.3-0.2-0.4C-12.5,172.3-13,172.3-13,172.5z"/>
			<path d="M-15.3,77.1c0.1,0.2,0.2,0.4,0.3,0.4c0.1,0,0.4-0.2,0.5-0.3c0-0.2-0.1-0.6-0.3-0.7C-15,76.5-15.4,76.9-15.3,77.1z"/>
			<path d="M157.7,207.8c-0.1,0.2,0.1,0.3,0.3,0.2l0.5-0.4c0.2-0.2,0.2-0.4,0.1-0.6c-0.1-0.2-0.6-0.3-0.6-0.1L157.7,207.8z"/>
			<path d="M165.8,146.3c-0.1,0.1-0.1,0.2,0,0.3c0.1,0.1,0.3,0.2,0.3,0.2c0,0,0.1-0.1,0.1-0.3c0-0.2,0-0.5,0-0.6
				C166.1,146,165.8,146.2,165.8,146.3z"/>
			<path d="M210.1,93.4c-0.2,0.2-0.2,0.4,0,0.5c0.2,0.1,0.9,0.3,1,0.1l0.7-0.5c0.2-0.2,0.2-0.4,0.1-0.5c-0.1-0.1-0.8-0.3-1-0.1
				L210.1,93.4z"/>
			<path d="M159.6,36.7c-0.1,0.3,0.1,0.5,0.4,0.5l0.7,0c0.3,0,0.6-0.2,0.7-0.5c0.1-0.3,0.3-1,0.3-1.1c0,0-0.2-0.2-0.5-0.3
				c-0.2-0.1-1,0-1.1,0.2L159.6,36.7z"/>
			<path d="M233.7,102.3c0,0,0,0.2,0,0.3c0,0.2,0.2,0.6,0.3,0.7c0.1,0,0.4,0,0.3-0.3c-0.1-0.2-0.3-0.7-0.4-0.7
				C233.9,102.3,233.8,102.2,233.7,102.3z"/>
			<path d="M153.9,117.1c0.1,0.2,0.2,0.4,0.4,0.4c0.1,0,0.6-0.2,0.6-0.3c0,0,0-0.3-0.1-0.5l-0.6-2.3c-0.1-0.2-0.3-0.3-0.4-0.2
				c-0.1,0.1-0.5,0.6-0.4,0.9L153.9,117.1z"/>
			<path d="M175.2,27.2c0,0.2,0.2,0.3,0.4,0.3l1.3,0.1c0.2,0,0.4-0.1,0.4-0.1c0-0.1-0.2-0.4-0.4-0.4l-1.2-0.4
				C175.5,26.6,175.2,27,175.2,27.2z"/>
			<path d="M131.5,201.5c0.3,0,0.5-0.2,0.5-0.4l0-0.9c0-0.3-0.3-0.4-0.5-0.4L130,200c-0.3,0.1-0.5,0.2-0.5,0.4
				c0,0.2,0.3,0.7,0.5,0.8L131.5,201.5z"/>
			<path d="M229.8,92.5c0,0.1,0,0.4,0.1,0.7l0.1,0.6c0.1,0.3,0.3,0.5,0.6,0.5l1,0.1c0.3,0,0.6-0.2,0.7-0.4l0.4-1.3
				c0.1-0.3-0.1-0.5-0.4-0.5l-2-0.2C230.1,92.1,229.8,92.3,229.8,92.5z"/>
			<path d="M106.1,175.4c0,0.1,0.1,0.3,0.3,0.4c0.2,0.1,0.7,0.3,0.7,0.2c0,0-0.1-0.2-0.3-0.4l-0.4-0.4
				C106.3,175.1,106.1,175.3,106.1,175.4z"/>
			<path d="M106.1,102.1c-0.1,0.2-0.1,0.5,0.1,0.6l0.6,0.5c0.2,0.2,0.4,0.1,0.5-0.1c0.1-0.2,0.1-1-0.1-1.1
				C107,101.9,106.2,101.9,106.1,102.1z"/>
			<path d="M137.5,96c0,0.1,0.2,0.2,0.4,0.2l0.6,0.2c0.2,0.1,0.5,0,0.5,0c0-0.1,0-0.3,0-0.4c0,0-0.2-0.1-0.5-0.1l-0.6,0
				C137.7,95.8,137.5,95.9,137.5,96z"/>
			<path d="M199.8,184.6c-0.2,0.2-0.1,0.5,0.1,0.7c0.2,0.2,1,0.6,1.2,0.7l0.5,0.2c0.3,0.1,0.5,0,0.6-0.1c0.1-0.2,0.2-0.8,0.1-1
				l-0.4-0.5c-0.2-0.2-0.5-0.4-0.6-0.5c-0.2-0.1-0.8-0.1-1,0.1L199.8,184.6z"/>
			<path d="M167.4,53.8c0,0.3,0.2,0.5,0.3,0.5c0.2,0,0.7-0.1,0.7-0.1c0.1,0,0.2-0.3,0.1-0.5l-0.5-0.7c-0.1-0.2-0.3-0.4-0.4-0.4
				c-0.1,0-0.3,0.3-0.3,0.6L167.4,53.8z"/>
			<path d="M112.9,161.7c0.2,0.1,0.4,0,0.4-0.2l0.1-1c0-0.3-0.1-0.3-0.3-0.2l-0.6,0.6C112.4,161,112.7,161.5,112.9,161.7z"/>
			<path d="M112.7,14.4c0.1,0.2,0.4,0.4,0.6,0.3c0.2-0.1,0.7-0.4,0.7-0.7l0-1.7c0-0.3-0.1-0.6-0.2-0.7c-0.1-0.1-0.5-0.4-0.7-0.3
				l-1.4,0.3c-0.3,0.1-0.3,0.3-0.2,0.5L112.7,14.4z"/>
			<path d="M46.6,115.4c-0.2,0.2-0.2,0.5,0.1,0.6l0.8,0.5c0.2,0.1,0.5,0,0.5-0.3l0.3-1.6c0.1-0.3,0.1-0.5,0-0.6s-0.4,0-0.6,0.2
				L46.6,115.4z"/>
			<path d="M43.1,24.2c-0.1,0.2,0,0.5,0.3,0.5l1.8,0.4c0.2,0.1,0.4-0.1,0.4-0.4l0-0.6c0-0.3-0.2-0.6-0.4-0.7L44.4,23
				c-0.2-0.1-0.5,0-0.7,0.2L43.1,24.2z"/>
			<path d="M99.6,113.6c0.1,0.1,0.3,0.2,0.4,0.2c0.1,0,0.4,0,0.4-0.1s0.2-0.6,0.2-0.6c0-0.1-0.1-0.3-0.3-0.4l-1.2-0.4
				c-0.1,0-0.3,0-0.3,0.1c0,0.1-0.1,0.4-0.1,0.4c0,0.1,0.1,0.3,0.3,0.4L99.6,113.6z"/>
			<path d="M69.6,138.5c0.1-0.2,0.1-0.4-0.1-0.4c-0.2,0-0.9,0-1.1,0.2l-0.9,0.8c-0.2,0.2-0.1,0.3,0.1,0.3l0.8,0.1
				c0.2,0,0.6-0.1,0.7-0.4L69.6,138.5z"/>
			<path d="M175.9,179.7c0.2,0.1,0.4,0.1,0.4,0.1C176.3,179.8,176.2,179.7,175.9,179.7l-0.8-0.5c-0.2-0.1-0.4-0.1-0.4-0.1
				c0,0.1,0.2,0.3,0.4,0.4L175.9,179.7z"/>
			<path d="M116.9,192.1c0.2,0,0.4-0.1,0.4-0.2c0-0.1-0.1-0.4-0.2-0.4c-0.1,0-0.4,0-0.6,0.1c-0.2,0.1-0.7,0.2-0.6,0.3
				c0.1,0.1,0.4,0.3,0.6,0.3C116.7,192.1,116.9,192.1,116.9,192.1z"/>
			<path d="M87.3,155.2c0,0.1,0,0.2,0.1,0.2c0.1,0,0.3,0,0.4-0.1c0,0,0,0,0.1-0.1c0-0.1,0-0.1,0-0.1c0-0.1,0-0.2-0.1-0.2
				C87.7,154.9,87.4,155.1,87.3,155.2z"/>
			<path d="M160.5-15.4c0.2,0.2,0.4,0.4,0.4,0.4s0-0.1,0-0.3c0-0.2-0.1-0.8-0.3-1l-1.4-1.5c-0.2-0.2-0.4-0.3-0.5-0.2
				c-0.1,0.1-0.1,0.6,0.1,0.8L160.5-15.4z"/>
			<path d="M203.9,17.5c0,0.1,0.1,0.2,0.2,0.3c0.1,0.1,0.6,0.4,0.8,0.6l1.2,0.6c0.2,0.1,0.5,0.1,0.6,0c0.1-0.1,0-0.5-0.2-0.7
				l-1.6-1.5c-0.2-0.2-0.5-0.2-0.6-0.1C204.2,16.8,203.9,17.4,203.9,17.5z"/>
			<path d="M153.4,36.6c0.1,0.2,0.3,0.4,0.5,0.4c0.2,0,0.7-0.1,0.8-0.3c0.1-0.2,0-0.7-0.3-0.8c-0.2-0.1-0.9-0.3-1-0.3
				c-0.1,0-0.2,0.2-0.2,0.4L153.4,36.6z"/>
			<path d="M112.3,97.9c0,0.2,0,0.4,0.1,0.5c0.1,0.1,0.4,0.3,0.5,0.2s0.2-0.5,0-0.6C112.8,97.8,112.3,97.7,112.3,97.9z"/>
			<path d="M20.2,162c-0.2,0-0.4,0.1-0.5,0.3l-1.1,1.7c-0.1,0.2-0.2,0.4-0.2,0.4c0,0,0.2,0,0.5,0.1l1.9,0.4c0.3,0,0.6-0.1,0.7-0.3
				l0.8-1.1c0.1-0.2,0.1-0.5-0.1-0.6l-0.9-0.5C21,162.2,20.4,162,20.2,162z"/>
			<path d="M98.9,144.6c0.1-0.1-0.1-0.3-0.4-0.4l-1.5-0.6c-0.3-0.1-0.5-0.2-0.5-0.2c0,0,0.2,0.2,0.4,0.4l1.3,0.9
				C98.5,144.8,98.9,144.7,98.9,144.6z"/>
			<path d="M73.2,103.3c0,0,0-0.2-0.1-0.4c0-0.2-0.3-0.6-0.5-0.6l-0.6,0c-0.2,0-0.4,0.1-0.4,0.3l-0.1,0.5c0,0.2,0.1,0.3,0.2,0.3
				l1.1,0.1C73,103.5,73.2,103.4,73.2,103.3z"/>
			<path d="M189.5,120.6c0.2,0,0.2,0,0.1-0.1c-0.2-0.1-0.6-0.3-0.7-0.2C188.8,120.3,189.3,120.6,189.5,120.6z"/>
			<path d="M68.7,129.2c0.2,0.2,0.4,0.3,0.4,0.2c0-0.1,0.1-0.5,0-0.7c-0.1-0.2-0.5-0.7-0.7-0.6c-0.2,0.1-0.4,0.5-0.2,0.7L68.7,129.2
				z"/>
			<path d="M106.9,77.4c0,0,0.3,0.1,0.5,0.1l0.7,0.1c0.3,0,0.5,0,0.5-0.2c0-0.1-0.1-0.6-0.3-0.7l-0.8-0.3c-0.2-0.1-0.5,0-0.6,0.2
				C106.9,76.8,106.8,77.4,106.9,77.4z"/>
			<path d="M91.4,184.8c-0.1,0.2-0.2,0.6-0.2,0.7c0,0.2,0.2,0.6,0.5,0.7l0.6,0.2c0.3,0.1,0.6-0.1,0.7-0.3l0.3-0.6
				c0.1-0.2,0-0.6-0.2-0.8l-0.6-0.4c-0.2-0.1-0.5-0.3-0.5-0.3S91.6,184.5,91.4,184.8z"/>
			<path d="M78.9,161.7c0.1-0.2,0-0.4-0.2-0.5l-0.5-0.1c-0.2,0-0.5,0.1-0.6,0.2c-0.1,0.1-0.3,0.6-0.3,0.6c0,0,0.1,0.2,0.3,0.3
				c0.2,0.1,0.8,0.1,1-0.1L78.9,161.7z"/>
			<path d="M-13.2,122.6c0.1,0,0.3-0.1,0.3-0.2c0-0.1,0.1-0.5,0.1-0.5s-0.2-0.1-0.4-0.1c-0.2,0-0.9,0.1-0.9,0.2c0,0.1,0,0.4,0.1,0.5
				C-13.9,122.5-13.3,122.6-13.2,122.6z"/>
			<path d="M136.6,150.5c0,0,0.2-0.1,0.3-0.3c0.1-0.2,0.4-0.7,0.4-0.7c0,0-0.2-0.2-0.3-0.3c-0.1-0.1-0.4,0-0.4,0.3l0,0.5
				C136.4,150.2,136.5,150.5,136.6,150.5z"/>
			<path d="M34.1,203.2c-0.2,0.1-0.3,0.4-0.2,0.6l0.4,0.8c0.1,0.2,0.4,0.3,0.7,0.2l0.6-0.2c0.2-0.1,0.5-0.2,0.5-0.3
				c0,0,0-0.3-0.1-0.6l-0.4-0.6c-0.1-0.2-0.5-0.3-0.7-0.2L34.1,203.2z"/>
			<path d="M37.7,15.2c0,0.2,0.1,0.5,0.2,0.5c0.1,0,0.5-0.1,0.6-0.3l0.6-1.1c0.1-0.2,0-0.5-0.2-0.5l-0.6-0.2c-0.2,0-0.5,0-0.5,0
				c0,0-0.1,0.4-0.1,0.6L37.7,15.2z"/>
			<path d="M200.1,135.8c-0.1,0.2-0.1,0.5-0.1,0.5s0.3,0.1,0.6,0.2l1,0.2c0.3,0,0.5,0,0.6-0.1c0.1-0.1,0.2-0.6,0.2-0.8
				c0-0.2-0.3-0.8-0.5-0.9l-0.7-0.2c-0.3-0.1-0.6,0.1-0.7,0.3L200.1,135.8z"/>
			<path d="M136.7-1.6c0,0.3,0.2,0.5,0.5,0.6l0.6,0.1c0.3,0,0.5-0.2,0.6-0.4l0.2-0.9c0-0.3-0.2-0.5-0.4-0.4l-0.9,0.1
				c-0.3,0-0.5,0.3-0.5,0.5C136.7-1.8,136.7-1.6,136.7-1.6z"/>
			<path d="M205.1,8.1c0.3,0,0.5-0.2,0.5-0.4c0-0.2-0.2-0.7-0.5-0.7l-1-0.1c-0.3,0-0.5,0.2-0.5,0.4c0,0.3,0.3,1,0.6,0.9L205.1,8.1z"
				/>
			<path d="M13.6,116.8c0,0.1,0.1,0.3,0.2,0.4c0.2,0.2,0.7,0.6,0.8,0.5c0.1-0.1,0.2-0.5-0.1-0.6l-0.5-0.3
				C13.9,116.7,13.6,116.7,13.6,116.8z"/>
			<path d="M-4.1,120.3c-0.1,0.2-0.1,0.6,0.1,0.8c0.1,0.2,0.7,0.6,0.9,0.7c0.2,0.1,0.7,0,0.9-0.2l0.3-0.6c0.1-0.2,0-0.6-0.2-0.8
				l-0.8-0.7c-0.2-0.2-0.4-0.3-0.5-0.2c0,0-0.3,0.3-0.4,0.6L-4.1,120.3z"/>
			<path d="M75.2,21.4c0,0.1,0.2,0.1,0.5,0l0.4-0.1c0.2-0.1,0.2-0.1,0-0.1C75.9,21.2,75.2,21.3,75.2,21.4z"/>
			<path d="M16.2,30.2c0.1,0.2,0.3,0.3,0.4,0.2c0.1-0.1,0-0.4-0.2-0.5C16.2,29.8,16.1,30,16.2,30.2z"/>
			<path d="M160.6,17c-0.2-0.1-0.4,0-0.3,0c0.1,0.1,0.4,0.4,0.7,0.4c0.2,0.1,0.8,0.3,0.8,0.2c0,0,0.1-0.2,0.1-0.2
				c0,0-0.1-0.1-0.1-0.1C161.6,17.4,160.8,17.1,160.6,17z"/>
			<path d="M149.9,78.5c0,0.1,0,0.1,0,0.2c0,0,0.3,0.1,0.6,0.2l0.4,0c0.2,0,0.3,0,0-0.1l-0.6-0.3C150.2,78.4,149.9,78.5,149.9,78.5z
				"/>
			<path d="M73.4,18.7c0,0.3-0.1,0.5,0,0.5c0,0,0.2-0.2,0.4-0.4l1.2-1.9c0.1-0.2,0-0.5-0.2-0.7c-0.2-0.1-1-0.1-1,0.1L73.4,18.7z"/>
			<path d="M102.2,0.5c-0.2,0.2-0.2,0.5,0.1,0.7l0.5,0.4c0.2,0.2,0.5,0.3,0.7,0.3c0.1,0,0.5-0.1,0.6-0.4l0.8-2.4
				c0.1-0.3,0.1-0.5,0-0.6c-0.1-0.1-0.6-0.1-0.8,0.1L102.2,0.5z"/>
			<path d="M49.3,129.3c-0.1,0.3,0,0.3,0.1,0.2c0.2-0.1,0.6-0.6,0.5-0.7C49.9,128.7,49.4,129,49.3,129.3z"/>
			<path d="M37.7,67c-0.1,0.2-0.1,0.5,0.1,0.6c0.2,0.1,0.8,0.5,0.8,0.5c0.1,0,0.3,0.1,0.3,0c0,0,0.2-0.4,0.2-0.6l0.1-0.4
				c0-0.2,0-0.5-0.2-0.6s-0.7-0.2-0.8,0L37.7,67z"/>
			<path d="M120,99.2c0.2,0.1,0.6,0,0.7-0.2l0.3-0.4c0.2-0.2,0.2-0.5,0-0.7c-0.2-0.2-0.9-0.5-1.1-0.3l-0.7,0.6
				c-0.2,0.2-0.1,0.4,0.1,0.6L120,99.2z"/>
			<path d="M125.4,36.2c-0.2,0.2-0.2,0.4-0.2,0.5c0.1,0,0.3,0.1,0.4,0.2c0.1,0,0.4-0.1,0.6-0.3l0.9-1c0.2-0.2,0.2-0.5,0.1-0.6
				c-0.1-0.1-0.4-0.3-0.5-0.3c0,0-0.3,0.2-0.5,0.4L125.4,36.2z"/>
			<path d="M43.1,175.3c0,0,0-0.2,0.1-0.4l0.1-0.7c0-0.2-0.1-0.4-0.2-0.5c-0.1,0-0.5,0-0.5,0c0,0,0.1,0.2,0.1,0.4l0.2,0.7
				C43,175.2,43.1,175.3,43.1,175.3z"/>
			<path d="M35.8,110c0.2,0,0.2-0.3,0.2-0.5l-0.3-0.7c-0.1-0.2-0.2-0.2-0.2,0l-0.2,0.9C35.3,109.9,35.6,110,35.8,110z"/>
			<path d="M-2.4,134.6c0-0.3-0.2-0.5-0.4-0.5s-0.7,0.3-0.7,0.5c0,0.2,0.1,0.9,0.2,1.1l0.3,0.5c0.1,0.2,0.3,0.4,0.4,0.4
				c0.1,0,0.3-0.4,0.2-0.7L-2.4,134.6z"/>
			<path d="M98.5,59c0,0.2,0.3,0.2,0.5,0.1l1.3-0.4c0.3-0.1,0.5-0.3,0.5-0.4c0-0.1-0.1-0.4-0.1-0.5c0,0-0.3-0.1-0.6-0.1l-0.8,0
				c-0.3,0-0.6,0.1-0.6,0.3C98.6,58.2,98.4,58.9,98.5,59z"/>
			<path d="M188.8,64.8c0,0.2,0.1,0.4,0.3,0.4l1.5,0.1c0.2,0,0.4,0,0.5-0.1c0,0,0-0.4,0-0.6c-0.1-0.2-0.4-0.8-0.6-0.8l-1,0.1
				C189.3,64.1,188.9,64.6,188.8,64.8z"/>
			<path d="M-6.1,153.7c0,0.2,0.2,0.4,0.3,0.4c0.1,0,0.7-0.1,0.8-0.3l0.4-0.8c0.1-0.2,0-0.5-0.2-0.6c-0.2-0.1-0.8-0.4-0.9-0.4
				c-0.1,0-0.5,0-0.5,0c0,0.1-0.1,0.4,0,0.6L-6.1,153.7z"/>
			<path d="M3.5,111.4c-0.1,0.2,0,0.4,0.1,0.5c0.1,0,0.5,0,0.6-0.1c0.2-0.1,0.7-0.4,0.9-0.6l0.4-0.4c0.1-0.2,0.1-0.4-0.1-0.5l-1-0.5
				c-0.2-0.1-0.4,0.1-0.5,0.3L3.5,111.4z"/>
			<path d="M13.4,139.9c0,0.1,0.2,0.2,0.4,0.3l1.1,0.4c0.2,0.1,0.5,0.1,0.6,0c0.1-0.1,0.2-0.4,0.2-0.4c0,0,0,0,0,0
				c-0.4-0.5-1.2-1.1-1.2-1.1c-0.2-0.1-0.5-0.1-0.6,0C13.7,139.2,13.4,139.8,13.4,139.9z"/>
			<path d="M-7.8,23.7c0,0.1,0.2,0.3,0.4,0.4l1.1,0.5c0.2,0.1,0.6,0,0.8-0.2l0.4-0.4c0.2-0.2,0.3-0.4,0.3-0.4c0,0-0.1-0.3-0.3-0.4
				l-1.4-0.9c-0.2-0.1-0.5-0.1-0.7,0.1l-0.4,0.5C-7.7,23.1-7.8,23.6-7.8,23.7z"/>
			<path d="M71.2,11c-0.2,0.2-0.1,0.5,0.2,0.5l2.4,0.8c0.3,0.1,0.5,0.1,0.5,0.1c0,0,0-0.3,0-0.5l-0.1-1.1c0-0.3,0-0.5-0.1-0.5
				c0,0-0.3-0.1-0.5-0.2l-0.6-0.2c-0.3-0.1-0.6,0-0.9,0.2L71.2,11z"/>
			<path d="M78.1,102.5c0.1-0.1,0.1-0.3,0.1-0.3c0,0-0.1-0.1-0.3-0.3c-0.2-0.1-0.7-0.4-0.7-0.3c0,0.1-0.1,0.5-0.1,0.6
				c0,0.2,0.2,0.6,0.3,0.7s0.4,0.1,0.5-0.1L78.1,102.5z"/>
			<path d="M50.7,143.1c-0.2-0.2-0.4-0.3-0.5-0.3c-0.1,0-0.3,0.4-0.2,0.6l0.3,0.9c0.1,0.2,0.4,0.4,0.6,0.3c0.2-0.1,0.7-0.5,0.5-0.7
				L50.7,143.1z"/>
			<path d="M53.8,140.7c0.1,0,0.3-0.2,0.5-0.4c0.2-0.2,0.6-1.1,0.6-1.3c0-0.2,0-0.9-0.2-0.9c-0.1,0-0.6,0.1-0.8,0.4l-0.8,1.4
				c-0.1,0.2-0.2,0.5-0.1,0.6C53.2,140.5,53.7,140.6,53.8,140.7z"/>
			<path d="M72.9,40.3c-0.1-0.1-0.2-0.1-0.2-0.1c0,0-0.1,0.2-0.1,0.4c0,0.2,0,0.6,0.1,0.4C72.8,40.9,73,40.4,72.9,40.3z"/>
			<path d="M120.3,23.4c-0.1-0.2-0.3-0.4-0.5-0.4c-0.2,0-0.8,0.3-0.8,0.4c0,0.1,0.1,0.4,0.3,0.6l1,0.7c0.2,0.1,0.3,0.1,0.3-0.2
				L120.3,23.4z"/>
			<path d="M94.9-2c0.2,0.1,0.4,0,0.4-0.3l0-0.9c0-0.3-0.1-0.5-0.2-0.5c-0.1,0-0.6,0-0.6,0c0,0-0.2,0.2-0.4,0.4
				c-0.2,0.2-0.4,0.8-0.1,0.9L94.9-2z"/>
			<path d="M117.1,9.7c-0.1,0.3-0.2,0.7-0.1,0.9c0.1,0.3,0.4,0.9,0.6,0.9c0.2,0,0.9-0.2,1-0.4l0.7-1.3c0.1-0.3,0.2-0.7,0.1-1
				l-0.1-0.5c0-0.3-0.2-0.6-0.4-0.6c-0.2-0.1-0.8,0-0.9,0.3L117.1,9.7z"/>
			<path d="M41.8,77.4c0,0.2,0.1,0.5,0.2,0.5c0.2,0,0.7-0.1,0.7-0.3l0.1-0.6c0-0.2-0.1-0.4-0.3-0.4C42.4,76.6,41.8,77.2,41.8,77.4z"
				/>
			<path d="M184.2,46.4c0,0.3,0,0.6,0,0.8c0.1,0.2,0.3,0.5,0.5,0.5c0.1,0,0.6-0.4,0.6-0.7l0.4-2c0-0.3-0.1-0.5-0.4-0.4
				c-0.2,0-1,0.5-1,0.7L184.2,46.4z"/>
			<path d="M93.2,21.7c0,0.1,0.1,0.4,0.1,0.6l0.5,2.7c0,0.2,0.1,0.5,0.1,0.4c0,0,0.1-0.1,0.2-0.2c0.1-0.1,0.1-0.5,0.1-0.7l-0.7-3
				c-0.1-0.2-0.1-0.4-0.2-0.3C93.2,21.3,93.2,21.6,93.2,21.7z"/>
			<path d="M83.8-3.6c0.1,0.2,0.4,0.4,0.6,0.3l1.4-0.6c0.2-0.1,0.4-0.4,0.3-0.7l-0.6-1.7c-0.1-0.2-0.4-0.3-0.6-0.2l-1.4,1
				c-0.2,0.2-0.3,0.5-0.2,0.8L83.8-3.6z"/>
			<path d="M85.2,19.3c0.1-0.2,0.1-0.6-0.1-0.7c-0.2-0.1-0.8-0.2-0.8,0.1l-0.1,1.5c0,0.3,0.1,0.3,0.3,0.1L85.2,19.3z"/>
			<path d="M44.8,162.4c-0.1,0-0.2,0.1-0.2,0.2c0,0.1,0.1,0.6,0.3,0.8l2.7,2.3c0.2,0.2,0.5,0.2,0.6,0c0.1-0.2,0.2-0.8,0-1l-2.7-2
				C45.3,162.5,44.9,162.4,44.8,162.4z"/>
			<path d="M107.2,15.8c-0.2-0.1-0.3-0.1-0.4,0.1c-0.1,0.2-0.2,0.7-0.2,0.9c0,0.2,0.3,0.4,0.5,0.2l0.4-0.4
				C107.6,16.4,107.3,15.9,107.2,15.8z"/>
			<path d="M52.5,127.7c-0.2,0.2-0.1,0.4,0.1,0.6l0.5,0.4c0.2,0.1,0.4,0.1,0.5,0c0.1-0.2,0.2-0.7,0-0.9S52.7,127.5,52.5,127.7z"/>
			<path d="M151.7,8.1c-0.2,0.2-0.2,0.5,0,0.7l0.5,0.4c0.2,0.1,0.4,0.2,0.4,0.2c0,0,0.2-0.1,0.3-0.3l0.9-1c0.2-0.2,0.3-0.5,0.4-0.6
				c0-0.2,0-0.6-0.2-0.7c-0.2-0.1-0.8-0.1-1,0.1L151.7,8.1z"/>
			<path d="M-18.7,37.9c-0.3,0-0.5,0-0.5,0c0,0,0,0.3,0,0.6l0.3,1.5c0,0.3,0.1,0.5,0.1,0.5c0,0,0.1-0.2,0.2-0.4l0.7-1.5
				c0.1-0.3,0-0.5-0.3-0.6C-18.4,37.9-18.7,37.9-18.7,37.9z"/>
			<path d="M79.3,137.3c-0.1,0-0.3,0.1-0.4,0.3l-0.7,1.2c-0.1,0.2,0,0.5,0.1,0.6c0.2,0.1,0.8,0.2,0.9-0.1l0.4-1.6
				C79.6,137.5,79.4,137.3,79.3,137.3z"/>
			<path d="M8.6,107.5c-0.1-0.2-0.5-0.2-0.7-0.1l-2.9,1.4c-0.2,0.1-0.3,0.4-0.1,0.6c0.2,0.2,1,0.6,1.2,0.5l1.4-0.7
				c0.2-0.1,0.6-0.4,0.8-0.5C8.5,108.5,8.7,107.6,8.6,107.5z"/>
			<path d="M19.8,135.8c0.1,0,0.1-0.2,0.2-0.4l0.6-2.7c0-0.2,0-0.3-0.1-0.3c0,0,0,0-0.1,0c-0.3,0.1-0.5,0.2-0.5,0.2
				c-0.2,0.1-0.3,0.3-0.4,0.4l-0.5,2.3c0,0.2-0.1,0.4,0,0.4c0,0.1,0.1,0.2,0.2,0.2C19.3,135.9,19.8,135.8,19.8,135.8z"/>
			<path d="M-26.2,159.1c0.1,0,0.2-0.1,0.3-0.3l0.1-0.7c0-0.2-0.1-0.4-0.3-0.5c-0.2,0-0.8,0.1-0.9,0.3c-0.1,0.2-0.3,0.8-0.2,0.9
				C-27,158.8-26.3,159.1-26.2,159.1z"/>
			<path d="M15.3,155c0.1-0.1,0-0.4-0.1-0.6l-0.3-0.5c-0.1-0.2-0.3-0.2-0.5,0l-0.4,0.4c-0.1,0.2-0.1,0.4,0.1,0.6l0.5,0.4
				C14.9,155.4,15.2,155.2,15.3,155z"/>
			<path d="M33.2,114.5c0-0.3-0.1-0.5-0.2-0.5c-0.1,0-0.6,0-0.6,0s-0.1,0.4-0.1,0.5c0,0.2,0.2,0.6,0.3,0.6
				C32.8,115.2,33.2,114.8,33.2,114.5z"/>
			<path d="M58.9,108.2C58.9,108.2,58.9,108.2,58.9,108.2C58.9,108.2,58.9,108.2,58.9,108.2C58.9,108.2,58.9,108.2,58.9,108.2z"/>
			<path d="M95.9,62.9c0.1,0.2,0.4,0.1,0.5-0.1l0.5-1c0.1-0.2,0-0.3-0.2-0.2L95.9,62C95.7,62.1,95.7,62.7,95.9,62.9z"/>
			<path d="M134.6,83.9c0,0.1-0.1,0.3-0.1,0.5c0,0.2,0.2,0.8,0.5,0.9l1.1,0.2c0.3,0,0.5-0.2,0.5-0.4l0-0.7c0-0.3-0.2-0.5-0.5-0.6
				l-0.8-0.1C135,83.7,134.6,83.9,134.6,83.9z"/>
			<path d="M92.6,48.5c0-0.1,0-0.3-0.1-0.4c-0.1-0.1-0.4-0.4-0.5-0.4c-0.1-0.1-0.6-0.1-0.8,0.1l-0.5,0.4c-0.2,0.2-0.2,0.4-0.2,0.5
				c0.1,0.1,0.5,0.4,0.7,0.5l0.6,0.2c0.2,0.1,0.4,0.1,0.5,0C92.4,49.3,92.6,48.7,92.6,48.5z"/>
			<path d="M75.3,5.4c0-0.2-0.1-0.4-0.1-0.5c-0.1-0.1-0.4-0.3-0.6-0.4c-0.2,0-0.7,0-0.9,0.2l-0.4,0.5c-0.2,0.2-0.2,0.5-0.1,0.6
				c0.1,0.1,0.6,0.4,0.9,0.4l0.6,0.1c0.3,0.1,0.5,0,0.5-0.1C75.2,6.2,75.3,5.5,75.3,5.4z"/>
			<path d="M48,50.2c0-0.1,0-0.2,0-0.3c0-0.1,0-0.5,0-0.6c0-0.1-0.2-0.3-0.5-0.5c-0.2-0.1-1-0.3-1-0.1c0,0.2,0.1,0.9,0.3,1l0.7,0.4
				C47.8,50.3,48,50.3,48,50.2z"/>
			<path d="M28.3,32.1c-0.2-0.1-0.6-0.1-0.8,0.1l-0.4,0.5c-0.1,0.2,0,0.5,0.2,0.6l1.1,0.3c0.3,0.1,0.5,0,0.6-0.2c0-0.2,0-0.8-0.3-1
				L28.3,32.1z"/>
			<path d="M20.4,102.5c0-0.2-0.2-0.4-0.4-0.4l-2.9,0.1c-0.3,0-0.5,0.1-0.5,0.1c0,0,0.1,0.2,0.3,0.5l0.6,1c0.1,0.2,0.5,0.3,0.7,0.3
				l1.5-0.4C20,103.4,20.4,102.7,20.4,102.5z"/>
			<path d="M-1.5,37.7c0-0.2-0.2-0.4-0.5-0.4l-2.7,0.4c-0.3,0.1-0.5,0.1-0.5,0.1c0,0,0.1,0.2,0.3,0.4l0.7,0.9
				c0.2,0.2,0.5,0.3,0.7,0.2l1.4-0.6C-1.8,38.6-1.5,37.9-1.5,37.7z"/>
			<path d="M124.5-10.4c0.2-0.1,0.5-0.3,0.6-0.5c0.1-0.2,0.3-0.8,0.1-0.9c-0.1-0.1-0.7-0.3-1-0.1l-1.3,0.7c-0.2,0.1-0.4,0.2-0.4,0.3
				c0,0,0.1,0.2,0.2,0.3c0.1,0.1,0.7,0.4,0.9,0.4L124.5-10.4z"/>
			<path d="M2.2,47.4c0,0-0.2,0-0.4-0.1c-0.2,0-0.9,0.2-0.9,0.4l-0.3,1.7c-0.1,0.3,0,0.3,0.2,0.1L2,47.8C2.1,47.6,2.2,47.4,2.2,47.4
				z"/>
			<path d="M-15.2,135.6c0-0.3-0.2-0.5-0.4-0.5l-0.6-0.1c-0.3,0-0.5,0.2-0.5,0.4l0,2c0,0.3,0.2,0.5,0.5,0.4l0.6,0
				c0.3,0,0.5-0.2,0.5-0.5L-15.2,135.6z"/>
			<path d="M47,138.7c-0.1,0.3,0,0.5,0,0.5c0.1,0,0.4-0.1,0.6-0.3l0.9-1.3c0.2-0.2,0.1-0.5-0.2-0.6s-1,0-1.1,0.2L47,138.7z"/>
			<path d="M70.1,195c-0.1,0.1-0.2,0.4-0.2,0.7l-0.1,0.7c0,0.3,0,0.6,0.2,0.7c0.1,0.1,0.6,0.3,0.6,0.3c0.1,0,0.4-0.2,0.6-0.4
				l0.8-1.2c0.1-0.2,0.3-0.4,0.3-0.4s-0.2-0.1-0.5-0.2l-0.9-0.3C70.6,194.7,70.2,194.9,70.1,195z"/>
			<path d="M62.5,9.5c0.1,0,0.2-0.2,0.3-0.4L63.6,7c0.1-0.2,0.1-0.5,0.1-0.6c0-0.1-0.1-0.1-0.2,0.2l-1,2.6
				C62.4,9.4,62.5,9.5,62.5,9.5z"/>
			<path d="M103.5,56c0.2,0,0.3-0.2,0.2-0.5l-0.1-0.8c0-0.3-0.1-0.3-0.3,0l-0.3,0.6C103.1,55.6,103.4,56,103.5,56z"/>
			<path d="M193.4,180.3c0.2,0.1,0.5,0,0.6-0.2l0.5-1c0.1-0.2,0-0.5-0.2-0.6l-1.1-0.5c-0.2-0.1-0.5,0-0.6,0.2l-0.6,1
				c-0.1,0.2,0,0.5,0.2,0.6L193.4,180.3z"/>
			<path d="M89.2,82.6c0.3,0,0.6-0.1,0.8-0.3c0.2-0.2,0.6-1,0.5-1.2l-0.2-2.2c0-0.3-0.2-0.6-0.5-0.7c-0.2-0.1-1.1-0.3-1.3-0.2
				l-0.9,0.7c-0.2,0.2-0.4,0.5-0.4,0.8l0.1,2.2c0,0.3,0.1,0.6,0.2,0.6c0.1,0.1,0.7,0.2,0.9,0.2L89.2,82.6z"/>
			<path d="M-5.1,119.8c0,0,0-0.2,0-0.5l0.1-1.3c0-0.3,0-0.5-0.1-0.5c-0.1,0-0.4,0.2-0.5,0.4l-0.7,1.1c-0.1,0.3-0.1,0.6,0.2,0.7
				C-5.8,119.6-5.1,119.8-5.1,119.8z"/>
			<path d="M13.4,73.7c0,0-0.2,0-0.3,0l-1.4,0.2c-0.2,0-0.2,0.2-0.2,0.3l0.2,0.4c0.1,0.1,0.2,0.3,0.4,0.3l0.8,0.1
				c0.2,0,0.3-0.1,0.4-0.3l0.1-0.7C13.4,73.9,13.4,73.7,13.4,73.7z"/>
			<path d="M41.1,22.2c0-0.3-0.1-0.5-0.3-0.5c-0.2,0-0.7,0.2-0.7,0.5l0,1.8c0,0.3,0.1,0.5,0.2,0.5c0.1,0,0.5-0.3,0.5-0.6L41.1,22.2z
				"/>
			<path d="M238.3,132.2c-0.2-0.1-0.3-0.1-0.3-0.1c0,0-0.2,0.2-0.3,0.4l-0.6,1c-0.1,0.2-0.1,0.5,0.1,0.7l0.5,0.5
				c0.2,0.2,0.4,0.1,0.5-0.2l0.6-1.8C238.8,132.6,238.4,132.3,238.3,132.2z"/>
			<path d="M88.7,17c0,0.2,0.2,0.4,0.4,0.5c0.2,0,0.7-0.1,0.7-0.2c0-0.1,0-0.6-0.1-0.8l-0.5-1.1c-0.1-0.2-0.3-0.4-0.4-0.3
				c-0.1,0-0.4,0.3-0.4,0.6L88.7,17z"/>
			<path d="M85.1,61.1c0.2,0.1,0.5,0,0.7-0.2l0.9-1.8c0.1-0.2,0.2-0.4,0.2-0.5c0,0-0.3,0-0.5,0.2l-1.8,1.4c-0.2,0.2-0.2,0.4,0.1,0.6
				C84.9,61,85.1,61.1,85.1,61.1z"/>
			<path d="M138,42.1c0.1,0.2,0.2,0.2,0.3,0l0.3-1.3c0.1-0.3-0.1-0.4-0.3-0.4c-0.2,0-0.8,0.4-0.8,0.6L138,42.1z"/>
			<path d="M77.2,145.4c0,0.2,0,0.3,0.1,0.3c0.1,0,0.3,0,0.4-0.1c0.1-0.1,0.1-0.5,0-0.6C77.7,145,77.3,145.3,77.2,145.4z"/>
			<path d="M91.8,44.9c-0.2,0-0.5,0-0.5,0.1c0,0.1,0.1,0.3,0.4,0.4l1.2,0.5c0.2,0.1,0.4,0,0.4-0.1c0-0.2-0.1-0.6-0.2-0.7
				c-0.1,0-0.5-0.1-0.7-0.1L91.8,44.9z"/>
			<path d="M49,20.2c0-0.2-0.1-0.3-0.3-0.2l-0.8,0.6c-0.2,0.2-0.2,0.4,0,0.6l0.6,0.6c0.2,0.2,0.3,0.3,0.3,0.3c0,0,0.1-0.2,0.1-0.4
				L49,20.2z"/>
			<path d="M93,104.3c-0.3,0-0.5,0.1-0.5,0.1c0,0,0,0.3,0.1,0.5l0.8,1.5c0.1,0.2,0.3,0.2,0.3,0l0.5-1.7c0.1-0.2-0.1-0.5-0.4-0.4
				L93,104.3z"/>
			<path d="M108.6,59.7c0.2-0.1,0.3-0.4,0.2-0.7l-0.4-1.2c-0.1-0.3-0.3-0.3-0.5,0l-0.5,0.8c-0.2,0.2-0.2,0.6,0,0.7
				C107.5,59.5,108.4,59.8,108.6,59.7z"/>
			<path d="M74,20c0-0.2-0.2-0.3-0.3-0.1l-0.3,0.6c-0.1,0.2,0,0.4,0.1,0.5s0.7-0.1,0.6-0.3L74,20z"/>
			<path d="M72,32.1c0,0.2,0.1,0.3,0.2,0.1c0.1-0.2,0.3-0.8,0.2-0.8S72,31.9,72,32.1z"/>
			<path d="M152.4,90.9c0.1-0.2,0.3-0.5,0.3-0.7c0-0.2-0.2-0.7-0.4-0.8c-0.2-0.1-1-0.2-1.2,0l-0.7,1.1c-0.1,0.2-0.2,0.5-0.1,0.6
				c0.1,0.1,0.5,0.3,0.7,0.3C151.2,91.5,152.3,91.1,152.4,90.9z"/>
			<path d="M164.2,13.1c0,0,0-0.3,0.1-0.5l0.3-2.6c0-0.3,0-0.4-0.1-0.3c-0.1,0.1-0.3,0.6-0.4,0.9l-0.2,2.1c0,0.3,0,0.5,0.1,0.5
				C163.9,13.1,164.2,13.1,164.2,13.1z"/>
			<path d="M30,128c-0.1-0.2-0.2-0.4-0.2-0.4c0,0-0.1,0.2-0.1,0.5l-0.1,2.3c0,0.2,0.2,0.4,0.4,0.3l0.8-0.2c0.2-0.1,0.3-0.3,0.2-0.6
				L30,128z"/>
			<path d="M14.5,52.9c0.2-0.2,0.4-0.4,0.4-0.4c0-0.1-0.1-0.1-0.3,0l-1.9,1c-0.2,0.1-0.4,0.3-0.3,0.5c0.1,0.1,0.7,0.2,0.8,0.1
				L14.5,52.9z"/>
			<path d="M32.2,47.5c-0.1-0.2-0.2-0.3-0.4-0.2c-0.2,0.1-0.6,0.4-0.7,0.6c0,0.2,0.1,0.8,0.3,0.7l0.6-0.2
				C32.2,48.2,32.2,47.6,32.2,47.5z"/>
			<path d="M89.7,61.9c-0.1-0.2-0.3-0.3-0.6-0.3l-0.7,0.2c-0.2,0.1-0.3,0.3-0.2,0.5l0.3,0.8c0.1,0.2,0.3,0.3,0.5,0.2l0.7-0.3
				c0.2-0.1,0.3-0.4,0.2-0.6L89.7,61.9z"/>
			<path d="M7.1,75.2c0.1-0.1,0.1-0.2,0.2-0.3l0.1-0.3c0-0.1,0-0.2,0-0.3l-0.3-0.3c-0.1-0.1-0.2-0.1-0.2,0c-0.1,0-0.2,0.2-0.3,0.3
				l-0.3,0.8c0,0.1,0,0.2,0.1,0.2l0.2,0.1c0.1,0,0.2,0,0.3,0L7.1,75.2z"/>
			<path d="M108.2,7.6c-0.1-0.1-0.3-0.2-0.5-0.2c-0.2,0-0.7,0.1-0.7,0.2c0,0.1,0.3,0.4,0.5,0.4C107.8,8,108.3,7.7,108.2,7.6z"/>
			<path d="M53.9,80.5c0.2,0,0.3-0.3,0.2-0.5c0-0.3-0.2-0.6-0.4-0.4c-0.1,0.2-0.4,0.9-0.4,0.9C53.4,80.5,53.8,80.6,53.9,80.5z"/>
		</g>
	</g>
</mask>
<g class="st1">
	<polygon class="st2" points="214.4,118.7 215.1,118.1 215.3,117.3 215.6,116.5 216,115.8 216.3,115 216.4,114.1 216.9,113.4 
		217.1,112.6 217,111.8 217.2,111 217.4,110.1 217.6,109.3 217.2,108.5 217.5,107.6 217.6,106.8 217.1,106 217.1,105.2 217.1,104.3 
		216.9,103.5 216.5,102.8 216.6,101.9 216.5,101 216,100.3 215.4,99.6 215.3,98.8 214.7,98.2 214.6,97.2 214.1,96.6 213.7,95.9 
		212.9,95.4 212.7,94.5 211.9,94.1 211.3,93.5 210.7,93 210.4,92.1 209.5,91.8 208.8,91.4 208.1,90.9 207.5,90.3 206.7,90 
		206.9,89.9 207.4,89.2 207.8,88.5 208.3,87.8 208.6,87.1 209,86.4 209.8,85.9 210,85.1 210.4,84.4 210.5,83.5 210.9,82.8 
		211.4,82.1 211.3,81.2 211.8,80.5 211.8,79.6 212.2,78.9 211.8,78 212.3,77.2 212.1,76.4 212.2,75.5 212.2,74.7 212.1,73.9 
		211.9,73.1 211.8,72.3 211.7,71.4 211.4,70.7 210.9,70 211.1,69 210.3,68.5 210.1,67.6 209.9,66.8 209.4,66.2 208.9,65.4 
		208.3,64.8 208,63.9 207.2,63.4 206.6,62.7 206.1,62 205.4,62.4 204.7,62.7 204,63.1 203.3,63.7 202.5,63.9 201.6,63.8 200.8,64.3 
		200,64 199.2,63.7 198.4,63.6 197.6,63.4 196.8,63.3 196.1,62.8 195.3,62.5 194.7,61.9 193.8,61.7 193.6,60.8 192.8,60.3 
		192.3,59.6 191.9,58.9 191.5,58.1 191.7,57.2 191.1,56.4 191.2,55.6 190.9,54.7 191.2,53.9 191.5,53.1 191.8,52.3 191.8,51.4 
		192.5,50.9 192.7,50 193.1,49.2 193.9,48.8 194.5,48.3 194.9,47.4 195.6,46.9 196.5,46.9 197.1,46.5 197.2,45.6 196.6,44.8 
		196.5,43.9 196.2,43 195.8,42.2 195,41.7 194.7,40.9 194.2,40.2 193.8,39.5 193.5,38.7 192.6,38.4 192.1,37.8 191.7,37 191.2,36.3 
		190.5,35.8 189.7,35.6 189.1,35 188.4,34.5 187.6,34.2 187,33.6 186.3,33.3 185.5,33.1 184.7,32.9 184,32.4 183.2,32.3 182.4,32 
		181.6,31.8 180.7,32 180,31.6 179.2,31.5 178.3,31.2 177.5,31.7 176.7,31.3 175.9,31.3 175,31.4 174.3,31.7 174.3,30.9 174.3,30.1 
		174,29.3 173.6,28.5 173.4,27.7 173.5,26.8 173.1,26 172.9,25.2 172.6,24.4 172.2,23.6 171.6,23 171.4,22.2 171.1,21.4 170.6,20.7 
		170.2,19.9 169.7,19.3 169.1,18.7 168.6,18 168.1,17.4 167.5,16.8 166.5,16.6 166,15.9 165.4,15.3 164.5,15.1 164,14.4 163.2,14.1 
		162.4,13.7 161.7,13.3 160.8,13.3 160.1,13 159.3,12.7 158.6,12.1 157.8,12 156.9,12.1 156.1,11.9 155.3,11.4 154.5,11.4 
		153.6,11.6 152.8,11.4 152,11.7 151.2,11.9 150.3,11.6 149.5,11.7 148.6,11.8 147.9,12.3 147,12.2 146.3,12.6 145.5,13 144.6,13 
		144.1,13.8 143.2,13.9 142.6,14.5 142.5,14.4 142,13.7 141.7,12.9 141.3,12.2 141.1,11.4 140.9,10.6 140.5,9.9 140.2,9.1 
		139.4,8.6 139,7.9 138.5,7.2 137.9,6.7 137.4,6 136.7,5.6 136,5.2 135.5,4.5 134.8,4 134.1,3.7 133.4,3.3 132.7,2.7 131.9,2.5 
		131.2,2.1 130.6,1.5 129.7,1.5 129,0.9 128.2,0.9 127.4,0.5 126.6,0.5 125.7,0.3 124.9,0.2 124.1,0.3 123.3,0.5 122.4,0.3 
		121.5,0.7 120.6,0.5 119.7,0.6 118.8,0.7 118.1,1.1 117.8,1.9 118,2.7 117.8,3.5 118,4.3 117.6,5.1 117.4,5.9 116.9,6.6 116.7,7.4 
		116.1,7.9 115.7,8.7 115.2,9.4 114.6,10 114,10.6 113,10.6 112.3,11 111.5,11.3 110.8,11.7 109.9,11.8 109.1,11.9 108.2,11.4 
		107.4,11.5 106.5,11.5 105.8,10.9 105,10.8 104.4,10.1 103.6,9.9 102.8,9.5 102.5,8.7 102,8 101.4,7.4 100.9,6.7 100.8,5.8 
		100.4,5.1 100,4.4 99.9,3.5 99.9,2.7 100.3,1.9 100.2,1 99.3,0.8 98.4,0.6 97.5,0.6 96.6,0.5 95.7,0.6 94.8,0.2 94,0.6 93.2,0.4 
		92.4,0.2 91.6,0.5 90.8,0.7 89.9,0.8 89.1,1 88.3,1.2 87.5,1.4 86.8,1.8 86,2.1 85.4,2.7 84.5,2.9 83.8,3.3 83.2,3.8 82.5,4.3 
		81.9,4.8 81.4,5.5 80.7,6 80.1,6.6 79.5,7.1 79.3,8 78.8,8.7 78.2,9.3 77.9,10 77.2,10.6 76.7,11.2 76.6,12.1 76.3,12.8 75.8,13.3 
		75.1,13.3 74.5,12.6 73.6,12.5 72.8,12.2 72,12.1 71.2,11.6 70.4,11.5 69.5,11.6 68.7,11.2 67.8,11.5 67,11.2 66.2,11.2 65.3,11.4 
		64.5,11 63.7,11.2 62.9,11.6 62.1,11.8 61.2,11.9 60.4,12.1 59.7,12.4 58.7,12.3 58,12.7 57.4,13.4 56.4,13.3 55.9,14.1 55.1,14.4 
		54.3,14.6 53.6,15.1 52.9,15.6 52.5,16.4 51.6,16.6 51.2,17.4 50.4,17.9 50,18.5 49.6,19.3 49.1,20 48.6,20.6 48.3,21.4 47.8,22.1 
		47.5,22.9 46.9,23.5 46.6,24.3 46.1,25 45.9,25.8 45.6,26.6 45.4,27.4 45.5,28.3 45.1,29 44.9,29.9 45,30.7 45,31.5 45.2,32.4 
		45,32.2 44.2,32.2 43.3,32.2 42.5,32 41.7,31.9 40.9,32.1 40.1,32.2 39.3,31.9 38.5,32.2 37.6,31.9 36.8,32.4 36.1,32.6 35.3,32.9 
		34.4,32.8 33.7,33.3 33,33.7 32,33.6 31.5,34.4 30.8,34.7 30.1,35.2 29.4,35.5 28.7,36 28.1,36.5 27.3,36.9 26.8,37.5 26.3,38.2 
		25.4,38.5 25.2,39.4 24.4,39.8 24.2,40.7 23.5,41.2 23.2,42 22.9,42.8 22.5,43.7 22.3,44.5 21.5,45.2 21.3,46.1 21.1,47 21.8,47.5 
		22.6,47.7 23.5,47.9 23.9,48.7 24.5,49.2 25.2,49.8 25.8,50.4 25.9,51.3 26.5,51.9 26.9,52.7 27.2,53.5 27.1,54.4 26.9,55.2 27,56 
		26.9,56.8 27.1,57.7 26.9,58.6 26.4,59.3 25.9,60 25.4,60.7 25,61.4 24.2,61.8 23.7,62.4 23.1,63 22.5,63.6 21.5,63.6 20.8,64 
		20.1,64.5 19.2,64.6 18.4,64.4 17.5,64.6 16.8,64.1 16,64 15.1,64 14.4,63.5 13.6,63.3 13,62.7 12.2,62.2 11.5,62.9 11.2,63.8 
		10.5,64.4 10.1,65.2 9.7,66 8.9,66.6 8.7,67.4 8.1,68 7.7,68.7 7.5,69.5 7.1,70.3 6.8,71.1 6.8,71.9 6.6,72.7 6.2,73.5 6.6,74.4 
		6.4,75.2 6.2,76 6.2,76.8 6,77.6 6.5,78.4 6.2,79.3 6.8,80 7,80.8 6.8,81.7 6.9,82.5 7.3,83.3 7.9,83.9 7.7,84.9 8.3,85.5 
		8.5,86.3 9,87 9.4,87.7 10.1,88.3 10.6,88.9 10.9,89.6 10.3,90.2 9.7,90.8 8.8,90.9 8.2,91.5 7.5,92.1 7.1,92.8 6.4,93.4 5.9,94 
		5.5,94.8 4.8,95.3 4.4,96.1 4.2,96.9 3.8,97.7 3.3,98.4 2.8,99.1 2.8,99.9 2.3,100.7 2.1,101.5 1.8,102.3 1.8,103.1 1.8,103.9 
		1.6,104.7 1.2,105.5 1.1,106.4 1.3,107.2 1.2,108 1.1,108.9 1.6,109.7 1.7,110.5 1.7,111.3 1.5,112.2 2,112.9 2.1,113.8 2.2,114.6 
		2.8,115.3 3.2,116 3.2,116.9 4,117.5 4.3,118.3 4.4,119.2 5.2,119.6 5.6,120.3 6.3,120.9 6.6,121.7 7.3,122.2 8,122.6 8.3,123.6 
		9.1,123.9 9.8,124.4 10.5,124.7 11,125.6 11.8,125.8 11.8,125.8 11.5,126.6 10.7,127 10.1,127.7 9.6,128.3 9.6,129.3 9,129.9 
		8.7,130.6 8.1,131.2 8.1,132.1 7.5,132.8 7.6,133.7 7,134.4 7.2,135.3 6.6,136 6.6,136.8 6.6,137.7 6.6,138.5 6.5,139.3 6.7,140.1 
		6.4,141 6.8,141.7 6.8,142.6 6.7,143.4 7.3,144.1 7.3,145 7.6,145.8 7.9,146.5 7.9,147.4 8.4,148.1 9,148.7 9.1,149.6 9.6,150.3 
		10.3,151 10.6,151.8 11.1,152.6 12.1,152.9 12.5,153.9 13.3,153.4 13.8,152.8 14.7,152.6 15.4,152.2 16.2,152.1 17,151.8 
		17.8,151.5 18.6,151.6 19.5,151.7 20.3,151.9 21.1,152 21.8,152.5 22.5,152.9 23.2,153.3 24.2,153.4 24.7,154.2 25.2,154.8 
		25.6,155.5 26.4,156 26.8,156.8 27,157.6 27.4,158.4 27.4,159.2 27.2,160.1 27.6,160.9 27.1,161.7 27,162.5 27.2,163.5 26.5,164.1 
		26.3,164.9 25.7,165.5 25.6,166.5 24.7,166.8 24.3,167.6 23.6,168.1 22.8,168.3 22.1,168.6 21.6,169.2 21.9,169.9 21.7,170.9 
		22.3,171.7 22.5,172.6 23.3,173.2 23.3,174.2 24,174.8 24.2,175.6 25,176 25.1,177 25.9,177.4 26.3,178.2 26.9,178.7 27.5,179.2 
		28.2,179.8 28.8,180.2 29.7,180.5 30.2,181.1 31,181.4 31.7,181.8 32.5,182.1 33.2,182.5 34,182.7 34.7,183.2 35.5,183.3 
		36.3,183.4 37.1,183.6 37.9,183.7 38.7,184.2 39.5,184.2 40.3,184.2 41.1,184.2 41.9,183.9 42.8,184.2 43.5,183.8 44.6,183.7 
		44.2,184.8 44.5,185.6 44.7,186.4 44.8,187.2 44.8,188.1 45.4,188.8 45.3,189.7 45.6,190.5 46.1,191.3 46.4,192 47,192.7 47,193.7 
		47.5,194.3 47.9,195.1 48.4,195.7 49.1,196.2 49.6,196.9 50,197.7 50.9,198 51.5,198.5 52.2,199 52.5,199.9 53.2,200.4 54,200.8 
		54.7,201.2 55.3,201.8 56.2,201.8 56.8,202.5 57.6,202.8 58.5,202.9 59.3,203 60.1,203.3 60.9,203.3 61.7,203.7 62.5,204.1 
		63.3,204.2 64.2,203.9 65,204.1 65.8,204 66.7,204.4 67.5,204.2 68.3,204.1 69.2,203.9 69.9,203.6 70.8,203.5 71.6,203.2 
		72.3,202.9 73.1,202.5 73.8,202.3 74.7,202.2 75.3,201.5 76.3,201.5 76.3,201.2 76.5,202 76.7,202.8 77,203.6 77.3,204.4 
		77.7,205.1 78.4,205.6 78.5,206.5 79.2,207.1 79.8,207.6 80,208.5 80.8,208.9 81.2,209.6 81.8,210.3 82.3,210.9 83,211.3 
		83.8,211.7 84.5,212.1 85.1,212.7 86,212.7 86.7,213.3 87.4,213.6 88.2,213.8 89,214.1 89.7,214.5 90.5,214.6 91.3,214.8 
		92.1,215.3 92.9,215.3 93.7,215.1 94.5,215.4 95.4,215.2 96.3,215.2 97.1,215 98.1,215.4 99,215.2 99.8,214.8 100.9,214.8 
		100.3,213.8 100.4,213 100.3,212.1 100.4,211.3 100.8,210.5 101.2,209.7 101.6,209.1 102.1,208.4 102.5,207.7 102.8,206.8 
		103.6,206.5 104,205.6 104.7,205.1 105.5,204.8 106.2,204.3 107.1,204.4 107.9,204.1 108.8,204.2 109.6,204.1 110.4,203.9 
		111.2,204.2 112.1,204.1 112.8,204.8 113.7,204.7 114.3,205.4 115,205.9 115.7,206.3 116.1,207.1 116.6,207.7 117.4,208.1 
		117.7,209 117.9,209.8 118.4,210.5 118.2,211.4 118.7,212.2 118.3,213 118.6,213.8 118.3,214.7 119.3,214.8 120.3,214.8 
		121.1,215.2 122,215.2 122.9,215.2 123.8,215.3 124.6,215.5 125.4,215.4 126.2,215 127.1,215.2 127.8,214.8 128.7,214.9 
		129.5,214.8 130.2,214.2 131,213.9 131.7,213.5 132.5,213.4 133.2,212.9 134.1,212.8 134.8,212.3 135.5,211.9 135.9,211 
		136.8,210.9 137.3,210.2 138,209.8 138.5,209.1 139.1,208.5 139.5,207.7 140.2,207.3 140.6,206.5 140.7,205.7 141.5,205.1 
		141.6,204.3 141.9,203.5 142.2,202.8 142.7,202 143.5,202.4 144.3,202.7 145,203.3 145.8,203.6 146.6,203.9 147.4,204 148.3,204.1 
		149.1,204.3 149.9,204.6 150.8,204.3 151.6,204.3 152.5,204.6 153.3,204.7 154.1,204.4 155,204.2 155.8,204.3 156.6,203.9 
		157.5,204.1 158.3,203.9 159,203.3 159.7,203 160.6,202.9 161.3,202.5 162,202 162.8,201.8 163.7,201.6 164.3,201 164.9,200.4 
		165.5,199.8 166.4,199.6 166.9,198.9 167.4,198.3 168,197.6 168.6,197 169.1,196.4 169.8,195.9 170.3,195.2 170.3,194.2 
		171.2,193.8 171.1,192.8 171.9,192.2 172,191.4 172.5,190.7 172.6,189.8 172.7,189 173.3,188.3 173.2,187.4 173.4,186.6 
		173.7,185.8 173.6,185 173.5,184.1 173.7,183.3 173.7,183.1 174.5,183.5 175.3,183.6 176.1,183.9 176.9,183.6 177.7,183.5 
		178.6,183.7 179.4,183.6 180.2,183.5 181,183.7 181.8,183.4 182.6,183 183.4,182.9 184.2,182.7 185,182.5 185.7,182.2 186.6,182 
		187.2,181.5 187.8,180.9 188.7,180.8 189.4,180.3 190,179.7 190.8,179.4 191.4,178.9 191.8,178.1 192.7,177.8 193.2,177.1 
		193.7,176.5 194.3,175.9 194.8,175.2 195.2,174.5 195.3,173.6 195.6,172.8 196.1,172 196.7,171.3 197,170.4 197.4,169.6 
		197.3,168.8 196.8,168.3 195.9,168.2 195.3,167.6 194.8,166.9 194.1,166.5 193.6,165.8 192.8,165.3 192.5,164.5 192.3,163.7 
		191.7,163 191.9,162.1 191.5,161.3 191.5,160.5 191.6,159.6 191.8,158.8 191.5,157.9 191.8,157.1 192.2,156.3 192.8,155.7 
		193.4,155.1 193.6,154.3 194.1,153.6 194.8,153.1 195.6,152.8 196.4,152.4 196.9,151.7 197.8,151.5 198.6,151.3 199.4,151 
		200.2,150.9 201.1,151.1 201.9,151.4 202.7,151.4 203.5,151.7 204.4,151.8 204.9,152.6 205.6,153 206.4,153.5 206.8,152.5 
		207.7,152.1 208,151.2 208.7,150.6 209,149.7 209.6,149 209.9,148.2 210.6,147.7 210.7,146.8 211.1,146.1 211.3,145.3 211.4,144.5 
		211.9,143.8 212.1,143 212.2,142.2 212,141.3 212.4,140.5 212.5,139.7 212.2,138.9 212.3,138 212.2,137.2 212.1,136.4 211.9,135.6 
		211.9,134.8 212,133.9 211.5,133.2 211.5,132.4 210.7,131.8 210.5,131 210.3,130.2 210.2,129.3 209.5,128.8 209.2,128 208.7,127.3 
		208.3,126.5 207.5,126 208.2,125.4 208.9,124.9 209.7,124.5 210.2,123.9 211,123.5 211.4,122.7 212,122.1 212.8,121.7 213.1,120.9 
		213.6,120.1 214,119.4 	"/>
</g>
</svg>
