<?xml version="1.0" encoding="utf-8"?>
<!-- Generator: Adobe Illustrator 16.0.0, SVG Export Plug-In . SVG Version: 6.00 Build 0)  -->
<!DOCTYPE svg PUBLIC "-//W3C//DTD SVG 1.1//EN" "http://www.w3.org/Graphics/SVG/1.1/DTD/svg11.dtd">
<svg version="1.1" id="Layer_1" xmlns="http://www.w3.org/2000/svg" xmlns:xlink="http://www.w3.org/1999/xlink" x="0px" y="0px"
	 width="102.167px" height="83.333px" viewBox="0 0 102.167 83.333" enable-background="new 0 0 102.167 83.333"
	 xml:space="preserve">
<g>
	<path fill="#674FA0" d="M25.001,60.146c0.021,0.205,0.036,0.439,0.036,0.705c0.001,1.636-0.491,4.326-2.283,7.709
		c-1.016,1.924-2.497,3.449-3.742,4.486c-1.245,1.037-2.246,1.59-2.258,1.594l0.199,0.365l1.01,1.867
		c0.052-0.027,1.176-0.637,2.607-1.82c1.428-1.184,3.175-2.94,4.428-5.304c1.961-3.708,2.574-6.774,2.576-8.897
		c0-0.51-0.036-0.961-0.101-1.366c3.389-1.155,7.239-3.511,10.874-8.103c7.576-9.57,8.886-28.434,8.886-28.434l1.349,9.647
		c0,0,5.26-2.008,8.918-5.539c0.213,0.87,0.317,1.692,0.317,2.428c0,0.376-0.026,0.731-0.077,1.059
		c-0.216,1.435-0.34,2.703-0.342,3.879c-0.003,1.764,0.294,3.34,0.967,4.846c0.672,1.505,1.686,2.914,3.062,4.488
		c0.213,0.243,0.331,0.439,0.392,0.576c0.061,0.139,0.068,0.217,0.068,0.27c0,0.049-0.008,0.082-0.026,0.134
		c-0.021,0.051-0.056,0.116-0.116,0.194c-0.119,0.156-0.334,0.343-0.567,0.502c-0.156,0.106-0.315,0.203-0.466,0.293h0.002
		c-0.309,0.187-0.539,0.418-0.729,0.662c-0.188,0.246-0.335,0.506-0.456,0.781c-0.237,0.549-0.373,1.147-0.375,1.774
		c0.001,0.356,0.046,0.723,0.167,1.092c0.086,0.265,0.219,0.534,0.404,0.784c-0.092,0.066-0.192,0.143-0.305,0.227
		c-0.234,0.17-0.438,0.424-0.549,0.689c-0.117,0.268-0.15,0.525-0.15,0.738c0.001,0.263,0.044,0.472,0.091,0.65
		c0.048,0.178,0.101,0.329,0.149,0.461c0.019,0.049,0.033,0.092,0.05,0.135c-0.464,0.399-0.806,0.881-1.007,1.375
		c-0.271,0.655-0.324,1.291-0.325,1.838c0.002,0.672,0.077,1.244,0.073,1.629c0,0.115-0.006,0.209-0.015,0.281
		c-0.026,0.219-0.106,0.473-0.241,0.672c-0.14,0.201-0.313,0.369-0.666,0.51c-0.238,0.09-0.566,0.158-1.027,0.158
		c-0.633,0.004-1.512-0.137-2.664-0.525l0.001,0.002c-1.281-0.432-2.481-0.643-3.603-0.643c-1.582-0.006-3.002,0.428-4.191,1.162
		c-1.192,0.733-2.156,1.746-2.956,2.889c-1.596,2.288-2.586,5.119-3.393,7.746c-0.353,1.15-0.502,2.254-0.502,3.281
		c0,2.527,0.895,4.569,1.771,5.965c0.878,1.396,1.747,2.174,1.808,2.23l1.198-1.349l0.492-0.546l-0.002-0.004l-0.012-0.01
		l-0.076-0.072c-0.068-0.067-0.174-0.176-0.303-0.321c-0.254-0.286-0.606-0.724-0.955-1.278c-0.702-1.119-1.384-2.699-1.384-4.615
		c0-0.781,0.113-1.625,0.392-2.537c0.437-1.434,0.926-2.887,1.509-4.223c0.581-1.33,1.259-2.535,2.041-3.478
		c0.521-0.627,1.086-1.138,1.699-1.515c0.822-0.502,1.727-0.783,2.861-0.789c0.805,0,1.729,0.151,2.793,0.51l0.008,0.003
		c1.342,0.45,2.477,0.655,3.466,0.657c1.075,0.002,1.993-0.256,2.702-0.715c0.711-0.455,1.174-1.09,1.436-1.693
		c0.175-0.404,0.271-0.797,0.316-1.157v-0.001l0.002-0.033l-0.002,0.03c0.025-0.207,0.033-0.404,0.033-0.593
		c-0.002-0.621-0.076-1.172-0.072-1.627c-0.002-0.373,0.043-0.66,0.129-0.861c0.092-0.201,0.195-0.359,0.516-0.57l-0.05,0.03
		l0.056-0.034c0.252-0.158,0.487-0.414,0.619-0.695c0.137-0.283,0.176-0.561,0.176-0.783c-0.002-0.266-0.048-0.471-0.094-0.647
		c-0.048-0.178-0.102-0.325-0.148-0.457c-0.022-0.056-0.039-0.108-0.058-0.157c0.054-0.043,0.108-0.08,0.167-0.131
		c0.221-0.188,0.473-0.414,0.694-0.793c0.144-0.248,0.26-0.587,0.259-0.959c0.001-0.316-0.085-0.632-0.22-0.893
		c-0.134-0.264-0.308-0.48-0.502-0.678l-0.003-0.002l-0.002-0.002v-0.002l0.002,0.004l-0.002-0.004l-0.024-0.058
		c-0.021-0.06-0.04-0.166-0.039-0.299c-0.001-0.203,0.047-0.464,0.129-0.675c0.074-0.207,0.189-0.36,0.214-0.375
		c0.225-0.139,0.578-0.346,0.95-0.644c0.378-0.306,0.794-0.704,1.099-1.284c0.203-0.384,0.343-0.854,0.34-1.363
		c0.003-0.43-0.096-0.872-0.283-1.293c-0.186-0.422-0.456-0.827-0.805-1.225c-1.289-1.476-2.133-2.684-2.65-3.849
		c-0.133-0.3-0.245-0.597-0.34-0.897c2.501-0.379,4.152-1.697,4.152-1.697c-1.416,0.143-3.226-0.348-4.552-0.809
		c-0.005-0.135-0.008-0.27-0.008-0.41c0-0.997,0.106-2.14,0.313-3.5c0.069-0.465,0.104-0.944,0.104-1.439
		c-0.003-1.484-0.308-3.088-0.905-4.73c0.584-0.877,1.034-1.819,1.28-2.82c2.25-9.141-7.199-14.727-16.196-16.249
		C10.789-14.117-18.521,33.612,17.53,60.016C17.53,60.016,20.644,61.006,25.001,60.146"/>
	<path fill="#D1CAE1" d="M92.751,45.793c3.444,0,6.249,2.803,6.249,6.249c0,3.445-2.805,6.249-6.249,6.249
		c-3.445,0-6.249-2.804-6.249-6.249C86.502,48.596,89.306,45.793,92.751,45.793 M92.751,43.793c-4.556,0-8.249,3.693-8.249,8.249
		s3.693,8.249,8.249,8.249S101,56.598,101,52.042S97.307,43.793,92.751,43.793"/>
	<path fill="#D1CAE1" d="M77.401,59.486c1.876,0,3.401,1.527,3.401,3.402s-1.525,3.402-3.401,3.402s-3.402-1.527-3.402-3.402
		S75.525,59.486,77.401,59.486 M77.401,57.486c-2.983,0-5.402,2.419-5.402,5.402s2.419,5.402,5.402,5.402s5.401-2.419,5.401-5.402
		S80.385,57.486,77.401,57.486"/>
</g>
</svg>
