<?xml version="1.0" encoding="utf-8"?>
<!-- Generator: Adobe Illustrator 16.0.0, SVG Export Plug-In . SVG Version: 6.00 Build 0)  -->
<!DOCTYPE svg PUBLIC "-//W3C//DTD SVG 1.1//EN" "http://www.w3.org/Graphics/SVG/1.1/DTD/svg11.dtd">
<svg version="1.1" id="Layer_1" xmlns="http://www.w3.org/2000/svg" xmlns:xlink="http://www.w3.org/1999/xlink" x="0px" y="0px"
	 width="24.956px" height="25.273px" viewBox="0 0 24.956 25.273" enable-background="new 0 0 24.956 25.273" xml:space="preserve">
<g>
	<rect x="0.501" y="6.365" fill="#FFFFFF" width="18.407" height="18.409"/>
	<path fill="#909090" d="M18.408,24.273H1V6.866h17.408V24.273z M19.408,5.865H0v19.409h19.408V5.865z"/>
	<polygon fill="#674FA0" points="3.257,12.026 3.48,12.122 3.679,12.234 3.861,12.363 4.058,12.475 4.203,12.654 4.393,12.776 
		4.536,12.953 4.747,13.059 4.9,13.229 5.051,13.395 5.163,13.596 5.339,13.742 5.496,13.909 5.618,14.098 5.725,14.303 
		5.84,14.496 6.015,14.652 6.111,14.859 6.224,15.057 6.367,15.234 6.481,15.432 6.551,15.652 6.633,15.863 6.78,16.047 
		6.869,16.258 6.976,16.465 7.042,16.688 7.154,16.889 7.253,17.1 7.338,17.314 7.419,17.527 7.458,17.76 7.604,17.948 
		7.649,18.178 7.737,18.391 7.822,18.604 7.948,18.801 7.97,19.038 8.063,19.248 8.178,19.45 8.23,19.678 8.272,19.902 
		8.367,20.113 8.404,20.337 8.475,20.559 8.665,20.441 8.844,20.309 9.042,20.205 9.198,20.038 9.409,19.955 9.597,19.836 
		9.797,19.734 9.952,19.564 10.127,19.422 10.327,19.324 10.503,19.186 10.718,19.107 10.901,18.98 11.06,18.811 11.26,18.707 
		11.45,18.59 11.647,18.477 11.704,18.251 11.792,18.035 11.954,17.857 12.044,17.646 12.149,17.441 12.182,17.203 12.308,17.008 
		12.394,16.794 12.549,16.616 12.614,16.391 12.701,16.176 12.876,16.006 12.941,15.78 13.036,15.569 13.18,15.389 13.274,15.178 
		13.421,14.999 13.467,14.762 13.647,14.6 13.697,14.365 13.831,14.176 13.986,14.001 14.109,13.807 14.156,13.566 14.299,13.383 
		14.469,13.215 14.561,13.002 14.651,12.787 14.799,12.606 14.938,12.422 15.065,12.23 15.202,12.047 15.275,11.822 15.409,11.633 
		15.548,11.448 15.699,11.272 15.783,11.05 15.905,10.853 16.036,10.66 16.213,10.503 16.313,10.287 16.489,10.132 16.601,9.925 
		16.76,9.756 16.857,9.541 16.981,9.343 17.154,9.179 17.304,9.005 17.437,8.812 17.559,8.611 17.714,8.436 17.821,8.222 
		17.943,8.017 18.146,7.882 18.247,7.67 18.423,7.512 18.564,7.332 18.667,7.119 18.855,6.973 18.983,6.78 19.116,6.592 
		19.27,6.419 19.412,6.239 19.521,6.028 19.662,5.843 19.868,5.713 19.954,5.484 20.13,5.326 20.279,5.151 20.409,4.955 20.583,4.8 
		20.708,4.604 20.877,4.442 21.042,4.281 21.2,4.114 21.365,3.951 21.479,3.744 21.67,3.607 21.792,3.407 21.942,3.234 
		22.095,3.062 22.239,2.883 22.44,2.759 22.574,2.571 22.71,2.383 22.907,2.254 23.059,2.082 23.208,1.905 23.385,1.755 
		23.551,1.595 23.691,1.414 23.871,1.271 24.075,1.156 24.245,1.001 24.372,0.803 24.588,0.7 24.728,0.51 24.956,0.396 
		24.796,0.266 24.695,0.097 24.521,0 24.355,0.109 24.19,0.275 23.96,0.341 23.781,0.492 23.588,0.615 23.422,0.78 23.218,0.888 
		23.028,1.018 22.839,1.148 22.639,1.256 22.442,1.377 22.282,1.547 22.069,1.641 21.881,1.772 21.691,1.899 21.545,2.088 
		21.339,2.196 21.16,2.341 20.968,2.466 20.796,2.62 20.606,2.749 20.414,2.878 20.23,3.013 20.081,3.196 19.927,3.368 
		19.745,3.512 19.542,3.627 19.396,3.811 19.178,3.908 19.011,4.066 18.87,4.258 18.673,4.381 18.502,4.535 18.363,4.727 
		18.149,4.835 17.994,5.007 17.852,5.191 17.683,5.347 17.499,5.491 17.329,5.647 17.188,5.834 16.978,5.943 16.84,6.132 
		16.71,6.326 16.502,6.442 16.351,6.614 16.179,6.771 16.017,6.933 15.867,7.109 15.751,7.316 15.545,7.439 15.393,7.613 
		15.297,7.837 15.112,7.98 14.934,8.129 14.821,8.338 14.654,8.5 14.505,8.674 14.356,8.854 14.244,9.061 14.057,9.205 
		13.896,9.372 13.761,9.561 13.613,9.737 13.51,9.954 13.326,10.102 13.199,10.296 13.079,10.494 12.944,10.683 12.772,10.838 
		12.684,11.062 12.49,11.207 12.385,11.417 12.241,11.599 12.129,11.801 11.976,11.978 11.843,12.167 11.708,12.356 11.593,12.557 
		11.417,12.721 11.295,12.916 11.159,13.105 11.104,13.346 10.922,13.504 10.813,13.711 10.725,13.93 10.552,14.096 10.471,14.319 
		10.354,14.52 10.177,14.686 10.074,14.896 9.99,15.117 9.855,15.283 9.829,15.075 9.776,14.85 9.701,14.629 9.69,14.391 
		9.569,14.182 9.483,13.967 9.47,13.727 9.365,13.516 9.235,13.314 9.165,13.094 9.085,12.874 8.955,12.679 8.876,12.458 
		8.725,12.276 8.604,12.078 8.503,11.867 8.33,11.705 8.21,11.504 8.034,11.347 7.902,11.154 7.738,10.987 7.578,10.818 
		7.382,10.689 7.233,10.503 7.021,10.395 6.826,10.267 6.629,10.161 6.422,10.244 6.227,10.359 6.018,10.448 5.859,10.629 
		5.64,10.697 5.458,10.835 5.239,10.91 5.032,11.005 4.835,11.111 4.67,11.283 4.462,11.372 4.253,11.461 4.08,11.616 3.851,11.673 
		3.667,11.813 3.48,11.946 	"/>
</g>
</svg>
