<?xml version="1.0" standalone="no"?>
<!DOCTYPE svg PUBLIC "-//W3C//DTD SVG 1.1//EN" "http://www.w3.org/Graphics/SVG/1.1/DTD/svg11.dtd">
<svg xmlns="http://www.w3.org/2000/svg">
<metadata>Generated by Fontastic.me</metadata>
<defs>
<font id="untitled-font-1" horiz-adv-x="512">
<font-face font-family="untitled-font-1" units-per-em="512" ascent="480" descent="-32"/>
<missing-glyph horiz-adv-x="512" />

<glyph glyph-name="icon-booking" unicode="&#97;" d="M445 354c-9 0-16-8-16-17 0-5 2-10 5-13-19-18-53-50-67-44-12 5-15 30-15 47 9 0 16 7 16 17 0 9-7 17-16 17-9 0-17-8-17-17 0-8 5-14 11-16-7-17-23-40-51-27-22 10-32 51-36 81 8 1 14 8 14 17 0 9-8 17-17 17-9 0-17-8-17-17 0-9 6-16 14-17-4-30-14-71-36-81-28-13-44 10-51 27 6 2 11 8 11 16 0 9-8 17-17 17-9 0-16-8-16-17 0-10 7-17 16-17 0-17-3-42-15-47-14-6-48 26-67 44 3 3 5 8 5 13 0 9-7 17-16 17-9 0-17-8-17-17 0-10 8-18 17-18 2 0 5 1 7 2 15-33 48-109 45-140 0 0-9-10 0-16 8-6 137-5 137-5 0 0 129-1 137 5 9 6 0 16 0 16-3 31 30 107 45 140 2-1 5-2 7-2 9 0 17 8 17 18 0 9-8 17-17 17z"/>
<glyph glyph-name="icon-news-footer-3" unicode="&#98;" d="M452 455c0-30 0-61 0-92-6 0-11 0-18 0 0 24 0 49 0 73-137 0-273 0-409 0 0-99 0-197 0-296 136 0 272 0 409 0 0 12 0 23 0 35 6 0 11 0 18 0 0-17 0-36 0-54-148 0-297 0-446 0 0 111 0 223 0 334 149 0 298 0 446 0z m54-165c-34-33-68-66-102-100-5-4-8-10-13-16-25 26-47 49-69 72 11 11 23 24 37 38 11-12 21-24 32-37 27 28 51 54 76 80 15-13 27-24 39-34 0-1 0-2 0-3z m-462 55c0 24 0 48 0 72 24 0 48 0 73 0 0-24 0-47 0-72-24 0-48 0-73 0z m166-1c-25 0-48 0-72 0 0 24 0 49 0 73 23 0 47 0 72 0 0-24 0-48 0-73z m20 74c25 0 48 0 73 0 0-24 0-48 0-73-24 0-48 0-73 0 0 24 0 48 0 73z m93-73c0 24 0 48 0 72 24 0 48 0 73 0 0-24 0-48 0-72-24 0-48 0-73 0z m-279-21c25 0 49 0 73 0 0-24 0-48 0-72-24 0-48 0-73 0 0 24 0 47 0 72z m166 0c0-24 0-48 0-72-24 0-48 0-73 0 0 24 0 48 0 72 24 0 48 0 73 0z m20 1c25 0 48 0 73 0 0-25 0-48 0-73-24 0-48 0-73 0 0 24 0 48 0 73z m-186-93c25 0 48 0 73 0 0-24 0-48 0-73-24 0-48 0-73 0 0 24 0 48 0 73z m166-74c-25 0-48 0-73 0 0 25 0 48 0 73 24 0 48 0 73 0 0-24 0-48 0-73z m20 1c0 24 0 48 0 72 24 0 48 0 73 0 0-23 0-47 0-72-24 0-48 0-73 0z"/>
<glyph glyph-name="icon-faq" unicode="&#99;" d="M256 516c-115 0-209-95-209-211 0-80 44-149 108-185l16-60 80 34c2 0 3 0 5 0 115 0 209 94 209 211 0 116-94 211-209 211z m-9-338c-19 0-32 14-32 32 0 19 13 32 32 32 19 0 31-13 31-32 0-18-12-32-31-32z m42 132c-13-14-18-28-18-44l0-7-47 0 0 9c-1 19 5 37 21 56 11 14 20 25 20 37 0 13-8 21-25 22-12 0-26-4-35-11l-12 39c12 7 34 14 59 14 46 0 67-25 67-55 0-27-16-45-30-60z"/>
<glyph glyph-name="icon-gionshijo" unicode="&#100;" d="M49 176l0 50 10 8 0 92 19 7 19-7 0-95 9-5 0-50z m384 0l0 50 10 9 0 90 21 8 21-9 0-91 11-9 0-48z m-396 23l0 36 11 5 0 93 30 11 16-7 75 0-22 10-95 0-19 27 0 20-10 6-7-8 0-154z m393 96l0 21-248 73-3 6-8 4-7-3-1-4 0-43 256-118 10 9 0 14-250 100 0 18 6 0z m-28 10l9 0 0-52-9 0z m-47 17l8 0 0-53-8 0z m-38 11l8 0 0-52-8 0z m-37 14l7 0 0-52-7 0z m-30 12l7 0 0-39-7 0z m-30 6l7 0 0-34-7 0z m-26 7l7 0 0-29-7 0z m-79-167l306 0 0-29-306 0z m175 32l101 0 29-14 0-13-90 0z m25-26l-38 25-84 0 33-26z m-107 0l-29 26-64 0 0-27z m35 33l-28 25 108 0 50-25z m-13 1l-30 23-82 0 29-24z m-98 1l-23 19 0-21z m24 30l-26 23-22 0 0-24z m8 32l-27 21-31 0 0-22z m7-33l-27 23 65 0 26-22z m80 0l-28 22 34 2 44-22z m-16 32l-46 23-37 0 27-23"/>
<glyph glyph-name="icon-kinkakuji" unicode="&#101;" d="M478 241l0 19-5 0c0 0-43 8-55 10-11 3-41 13-45 14l0 22-13 0 0 62 6 8c25 6 46 12 46 12l0 6-9 0c-11 0-39 3-70 12-24 8-43 21-61 29l0 7-20 0 2 9c0 0 18 9 18 31l0 7-14-15c0 0 0 14-9 14-10 0-7 0-11-3l-13 3 9-12c0 0 4-1 2-7-2-5 2-11 8-13l1-14-18 0 0-7c-19-7-34-21-59-29-31-9-58-12-69-12l-5 0 0-6c0 0 18-5 39-10l8-11c0 0 1 0 1 0l0-61-32 0 0-30c-12-4-24-7-30-9-10-2-38-7-38-7l-8 0 0-19c0 0 28-3 60-5l0-39-28 0 0-23 9 0c-4-8-11-19-21-32l18 0 0-38-6 0 0-17 370 0 0 17-16 0 0 70 16 0 0 23-16 0 0 35c24 2 58 9 58 9z m-315 126c26 0 70 0 83 0 1 0 3 0 5 0 0 0 2 0 3 0 13 0 55 0 82 0l0-61-91 0c0 1 0 2 0 4l0 16c0 11-7 16-17 16l-1 0c-10 0-17-5-17-16l0-16c0-2 1-3 1-4l-48 0z m-77-225l8 0 0-38-8 0z m32 55l0 38c27-2 53-3 67-2 43 2 125 27 125 27 0 0 52-22 87-27l0-36z"/>
<glyph glyph-name="icon-kiyomizuzaka" unicode="&#102;" d="M449 356l-64 57-7-5-49 42 0 15-146 0 0-15-50-41-6 4-64-57 24 0 0-245 25 0 0 21 27 0 0-21 17 0 0 21 36 0 0-21 10 0 0 21 29 0 0-21 12 0 0 21 32 0 0-21 12 0 0 21 32 0 0-21 10 0 0 21 35 0 0-21 17 0 0 21 27 0 0-21 23 0 0 245z m-310-209l-27 0 0 15 27 0z m0 26l-27 0 0 15 27 0z m0 30l-27 0 0 15 27 0z m0 31l-27 0 0 30 27 0z m-27 91l0 31 65 0 0-31z m80-178l-36 0 0 15 36 0z m0 26l-36 0 0 15 36 0z m0 30l-36 0 0 15 36 0z m0 46l0-15-36 0 0 30 36 0z m39-102l-29 0 0 15 29 0z m0 26l-29 0 0 15 29 0z m0 30l-29 0 0 15 29 0z m0 31l-29 0 0 15 29 0z m44-87l-32 0 0 15 32 0z m0 26l-32 0 0 15 32 0z m0 30l-32 0 0 15 32 0z m0 31l-32 0 0 15 32 0z m44-87l-32 0 0 15 32 0z m0 26l-32 0 0 15 32 0z m0 30l-32 0 0 15 32 0z m0 31l-32 0 0 15 32 0z m-127 71l0 51 12 0-21 15 73 1 72-1-20-15 21 0 0-51z m172-158l-35 0 0 15 35 0z m0 26l-35 0 0 15 35 0z m0 30l-35 0 0 15 35 0z m0 31l-35 0 0 30 35 0z m44-87l-27 0 0 15 27 0z m0 26l-27 0 0 15 27 0z m0 30l-27 0 0 15 27 0z m0 31l-27 0 0 30 27 0z m0 91l-64 0 0 31 64 0z"/>
<glyph glyph-name="icon-kyoto" unicode="&#103;" d="M308 137c-26 51-27 114-27 164 34 5 59 21 59 45 0 24-25 40-59 45l0 12-54 0 0-12c-32-6-55-22-55-45 0-24 25-40 59-45 0-50-1-113-27-164l-42 0c16-37 52-63 94-63 42 0 78 26 94 63z m-10 228c13-4 21-11 21-19 0-8-8-14-21-19 2 6 3 12 3 19 0 7-1 14-3 19z m-25-44c-3 0-6 0-9 0l0 51c3-1 6-1 9-1 6-5 11-12 11-25 0-12-5-20-11-25z m-59 6c-13 5-21 11-21 19 0 8 8 15 21 19-2-5-3-12-3-19 0-7 1-13 3-19z m25 44c3 0 6 0 8 1l0-51c-2 0-5 0-8 0-6 5-11 13-11 25 0 13 5 20 11 25z m0 84l34 0 0-16-34 0z m0-27l34 0 0-16-34 0z m8 74l17 0 0-36-17 0z"/>
<glyph glyph-name="icon-news" unicode="&#104;" d="M455 314c0-7 0-15 0-23-7-24-18-45-37-61-2-2-2-6-1-8 7-27 20-52 38-73-2-1-4-2-5-2-22 0-44 0-66 0 0 0-1 1-2 1-27 3-50 14-71 31-2 1-5 2-7 2-11-1-22-2-33-3-34-5-68-4-101 6-38 11-72 29-94 63-9 12-13 28-19 42 0 8 0 17 0 25 4 10 6 20 11 29 18 37 49 59 87 72 20 7 40 10 60 14 22 0 43 0 64 0 13-2 25-3 38-6 63-14 119-38 138-109z m-78-141c-7 17-13 33-19 49-4 9-2 16 5 23 25 24 34 53 21 86-7 16-19 29-33 39-40 30-86 39-135 35-41-3-78-16-108-44-23-22-34-49-24-81 8-24 25-41 46-54 51-30 107-35 163-20 13 4 21 3 30-6 14-15 33-24 54-27z m-243 126c0-13 11-24 24-23 13 0 23 11 22 24 0 12-11 23-23 22-13 0-23-11-23-23z m166 0c0-13 10-23 23-23 12 0 23 10 23 22 1 13-10 24-23 24-13 1-23-10-23-23z m-37 0c0 13-10 23-23 23-13 0-23-11-23-23 0-13 10-23 22-23 13-1 24 10 24 23z"/>
<glyph glyph-name="icon-news-footer-1" unicode="&#105;" d="M282 400l-6-163-43 0-6 163z m-2-230l-52 0 0 40 52 0z m-24-73c-105 0-191 86-191 191 0 105 86 191 191 191 105 0 191-86 191-191 0-105-86-191-191-191z m0 328c-76 0-137-61-137-137 0-76 61-137 137-137 76 0 137 61 137 137 0 76-61 137-137 137z"/>
<glyph glyph-name="icon-news-footer-2" unicode="&#106;" d="M256 487l70-129 129-70-129-71-70-128-70 128-129 71 129 70z"/>
<glyph glyph-name="icon-checked" unicode="&#107;" d="M354 160l-244 0 0 245 191 0 54 54-300 0 0-354 354 0 0 227-55-55z m-184 171l-39-39 93-93 233 233-39 39-194-195z"/>
<glyph glyph-name="icon-ninenzaka" unicode="&#108;" d="M378 312l0 11c-54 4-57 30-57 30l-11 0 0 27 65 0 0 11c-54 4-107 45-107 45l-4 0 0 58c0 4-4 8-8 8-4 0-8-4-8-8l0-58-4 0c0 0-53-41-107-45l0-11 65 0 0-27-11 0c0 0-3-26-57-30l0-11 68 0 0-27-11 0c0 0-3-26-57-30l0-11 68 0 0-27-11 0c0 0-3-26-57-30l0-11 68 0 0-27-11 0c0 0-3-26-57-30l0-10 68 0 0-35 108 0 0 35 68 0 0 10c-54 4-57 30-57 30l-11 0 0 27 68 0 0 11c-54 4-57 30-57 30l-11 0 0 27 68 0 0 11c-54 4-57 30-57 30l-11 0 0 27z m-138-217l-13 0 0 13 13 0z m0 66l-13 0 0 14 13 0z m0 67l-13 0 0 13 13 0z m0 66l-13 0 0 13 13 0z m0 66l-13 0 0 14 13 0z m45-265l-13 0 0 13 13 0z m0 66l-13 0 0 14 13 0z m0 67l-13 0 0 13 13 0z m0 66l-13 0 0 13 13 0z m0 66l-13 0 0 14 13 0z"/>
<glyph glyph-name="icon-phone" unicode="&#109;" d="M168 394l-55 0 21-55c1-3 2-6 2-9 0-4-2-8-9-10l-94-16c-9-1-14 5-14 15 0 23 3 72 28 91 43 34 100 52 209 52 109 0 166-18 209-52 25-19 28-68 28-91 0-10-5-16-14-15l-94 16c-7 2-9 6-9 10 0 3 1 6 2 10l21 54-55 0 0-33c0-36 23-63 61-100 36-34 48-77 48-122 0-17-6-25-24-25l-346 0c-18 0-24 8-24 25 0 45 12 88 48 122 38 37 61 64 61 100z m175-165c0 48-39 87-87 87-48 0-87-39-87-87 0-48 39-86 87-86 49 0 87 39 87 86z m-43 165l-88 0 0-49 88 0z"/>
<glyph glyph-name="icon-plan" unicode="&#110;" d="M432 483c0 10-5 19-12 26-8 6-18 8-28 6l-277-45c-19-4-35-23-35-43l0-304c0-20 17-38 37-40l276-22c1-1 2-1 4-1 19 0 35 16 35 36z m-45-1c4 1 6 0 8-1 2-2 4-5 4-8l0-25c0-4-2-4-3-4-3 2-6 3-10 3 0 0-190 6-190 9 0 2 191 26 191 26z m12-377c0-7-5-11-12-11 0 0-1 0-1 0l-257 22c-9 1-15 8-15 16l0 284c0 7 4 12 11 12 0 0 1 0 1 0l257-24c8 0 16-8 16-16z m-154 210l-16-2 51 67 9-4z m3 19l7 7-32 40-8-6z m-47 48l0-250 107 0 0 250z m98-242l-89 0 0 235 89 0z m-98 176l0-68 107 0 0 68z m98-61l-89 0 0 54 89 0z m1 127l0-118 68 0 0 118z m61-111l-54 0 0 104 54 0z m-219 111l0-118 68 0 0 118z m61-111l-54 0 0 104 54 0z"/>
<glyph glyph-name="icon-renting" unicode="&#111;" d="M500 352l-35 0c0 3-1 6-2 8-26 92-112 156-207 156-95 0-180-64-207-156-4-15 4-31 20-36 15-4 31 5 36 20 19 67 82 114 151 114 67 0 127-43 149-106l-34 0c-13 0-16-7-7-17l54-54c10-10 25-10 35 0l54 54c9 10 6 17-7 17z m-57-100c-15 4-31-5-36-20-19-67-82-114-151-114-67 0-127 43-149 106l34 0c13 0 16 7 7 17l-54 54c-10 10-25 10-35 0l-54-54c-9-10-6-17 7-17l35 0c0-3 1-6 2-8 26-92 112-156 207-156 95 0 180 64 207 156 4 15-4 31-20 36z"/>
<glyph glyph-name="icon-reserve" unicode="&#112;" d="M452 389c0-30 0-61 0-92-6 0-11 0-18 0 0 24 0 48 0 73-137 0-273 0-409 0 0-99 0-197 0-297 136 0 272 0 409 0 0 13 0 24 0 36 6 0 11 0 18 0 0-18 0-36 0-54-148 0-297 0-446 0 0 111 0 223 0 334 149 0 298 0 446 0z m54-165c-34-33-68-66-102-100-5-4-8-10-13-16-25 26-47 49-69 72 11 11 23 24 37 38 11-12 21-24 32-38 27 29 51 55 76 81 15-13 27-24 39-35 0 0 0-1 0-2z m-462 55c0 24 0 47 0 72 24 0 48 0 73 0 0-24 0-48 0-72-24 0-48 0-73 0z m166-1c-25 0-48 0-72 0 0 24 0 48 0 73 23 0 47 0 72 0 0-24 0-48 0-73z m20 73c25 0 48 0 73 0 0-24 0-48 0-72-24 0-48 0-73 0 0 24 0 47 0 72z m93-72c0 24 0 48 0 72 24 0 48 0 73 0 0-24 0-48 0-72-24 0-48 0-73 0z m-279-21c25 0 49 0 73 0 0-24 0-48 0-73-24 0-48 0-73 0 0 24 0 48 0 73z m166 0c0-24 0-48 0-73-24 0-48 0-73 0 0 24 0 48 0 73 24 0 48 0 73 0z m20 0c25 0 48 0 73 0 0-24 0-48 0-72-24 0-48 0-73 0 0 23 0 47 0 72z m-186-93c25 0 48 0 73 0 0-24 0-47 0-72-24 0-48 0-73 0 0 24 0 48 0 72z m166-73c-25 0-48 0-73 0 0 24 0 48 0 73 24 0 48 0 73 0 0-24 0-48 0-73z m20 1c0 24 0 48 0 72 24 0 48 0 73 0 0-24 0-47 0-72-24 0-48 0-73 0z m-145 280l0 119c0 16 14 29 30 29 16 0 29-13 29-29l0-119z m219 0l0 119c0 16 14 29 30 29 16 0 30-13 30-29l0-119z"/>
<glyph glyph-name="icon-shinkyogoku" unicode="&#113;" d="M111 305l45 0 0-190-45 0z m245 0l45 0 0-190-45 0z m-201 12l-35 0c1 79 62 143 136 143 74 0 135-64 136-143l-35 0c-1 60-46 109-101 109-55 0-100-49-101-109z m35 67l122 0 0-52-122 0z m-43-9l208 0 0-26-208 0z"/>
<glyph glyph-name="icon-store" unicode="&#114;" d="M454 112l0 209c8 8 13 19 13 32l0 158-421 0 0-158c0-12 5-23 13-31l0-210-17 0 0-47 428 0 0 47z m-68 329l0-88c0-16-13-28-27-28-15 0-28 12-28 28l0 88z m-136 0l0-88c0-16-12-28-27-28-15 0-27 12-27 28l0 88z m-68 0l0-88c0-16-12-28-27-28-15 0-27 13-27 28l0 88z m-122-88l0 88 54 0 0-88c0-16-12-28-27-28-15 0-27 12-27 28z m236-171l-200 0 0 104 200 0z m22 171c0-16-12-28-27-28-15 0-27 12-27 28l0 88 54 0z m97-235l-86 0 0 168 86 0z m38 235c0-16-12-28-27-28-15 0-27 12-27 28l0 88 54 0z"/>
<glyph glyph-name="icon-today" unicode="&#115;" d="M256 371c65 0 131 0 197 0 15 0 23-9 16-20-2-5-9-8-15-9-15-1-32-1-47-2-21 0-28-6-26-27 3-26 7-52 12-78 5-29 12-58 18-87 0-3 1-5 1-8-1-11-5-18-16-20-10-2-17 4-19 14-7 26-13 53-19 79-2 8-4 17-7 24-2 5-6 8-9 12-3-4-8-7-9-11-10-32-18-64-27-96-1-2-1-4-2-5-3-10-9-18-21-16-9 1-15 11-13 24 2 15 7 31 10 46 8 41 16 81 22 122 3 18-3 24-22 26-17 2-34 1-51 0-16-2-22-9-20-24 2-21 5-42 9-63 7-35 15-69 23-103 0-2 1-4 1-6 1-11-2-19-13-22-12-2-18 4-21 14-7 24-14 49-21 73-3 10-5 21-9 32-1 3-5 6-8 9-3-3-8-6-9-10-8-31-16-62-23-93-1-4-2-8-3-12-3-9-9-16-19-14-12 2-17 10-16 21 1 12 4 24 6 36 8 43 17 86 24 129 4 28-2 34-30 35-15 0-29 0-43 1-10 0-17 5-16 16 0 11 8 13 18 13 65 0 131 0 197 0z m-51 52c0-20-16-37-34-37-19 0-35 16-36 35-1 21 14 35 35 35 20 1 34-14 35-33z m137 33c19 1 34-14 34-32 1-21-14-38-34-38-20 0-35 15-35 37-1 19 14 33 35 33z"/>
<glyph glyph-name="icon-topic" unicode="&#116;" d="M436 440c-40 80-138 113-218 73-80-40-112-137-73-217 40-80 137-113 218-73 80 40 112 137 73 217z m-94-177c-59-29-131-5-160 54-29 58-5 130 54 159 59 30 130 6 159-53 30-59 6-131-53-160z m-147 2l48-35-136-184-48 35z"/>
<glyph glyph-name="bring" unicode="&#118;" d="M410 263c-6-3-13-5-21-5l-64 0c4-4 8-10 9-16 0-3 0-5 0-7l55 0c16 0 30 10 30 18l0 2c0 1 0 1-1 2 0 3-4 5-8 6z m0 32c-6-4-13-6-21-6l-128 0c-2 0-3 1-5 1-6 0-12 2-17 5-5-2-8-5-8-9l0-1c0-3 2-7 5-10 3-1 6-2 9-2 13-3 26-4 42-4 9 0 16-1 22-3l80 0c8 0 15 2 20 6 6 3 10 8 10 13l0 1c0 1 0 1-1 2 0 3-4 5-8 7z m0 31c-6-3-13-5-21-5l-128 0c-2 0-3 0-5 0-6 1-12 2-17 5-5-2-8-4-8-8l0-2c0-5 3-9 9-13 6-3 13-6 21-6l128 0c8 0 15 3 20 6 6 4 10 9 10 13l0 2c0 0 0 1-1 1 0 3-4 5-8 7z m8 25c-2 8-21 9-29 9l-128 0c-9 0-30-1-30-11l0-2c0-4 3-9 9-13 6-3 13-6 21-6l128 0c8 0 15 3 20 6 6 4 10 9 10 13l0 2c0 1 0 1-1 2z m-265 43c31 0 57 26 58 58 0 16-7 31-18 42-11 11-26 17-42 17-32 0-58-27-58-59 0-31 28-58 60-58z m161-138c-2 1-4 1-6 2-6 2-13 3-21 3-15 0-29 1-42 4-1 0-2 0-3 0-3 1-5 2-7 2-1 1-2 1-3 1 0 0 0 0 0 0-4 2-9 3-13 5l-5 2-1 1c-8 13-14 46-18 66-1 3-2 6-2 8-4 16-17 27-34 27-2 0-4 0-5-1-19-2-31-16-31-37-2-45-4-90-7-135 0-9-2-19-4-28 0-2-1-5-1-8-4-18-1-31 7-42 4-6 5-13 5-16 1-22 2-43 3-63l60 0c0 11 0 23 1 35 1 22 4 44 8 65 6 31 5 56-2 78l-4 13 10-8c8-6 20-8 31-10 3 0 6 0 8-1 13-2 28-3 44-2 10 0 32 0 40 10 0 0 1 0 1 0 1 2 2 5 3 8 0 1 0 3 0 5-1 7-5 12-12 16z"/>
<glyph glyph-name="camera" unicode="&#119;" d="M252 343c-45 0-82-36-82-82 0-45 37-82 82-82 45 0 82 37 82 82 0 46-37 82-82 82z m230 93l-105 0 0 21c0 16-13 29-30 29l-182 0c-17 0-30-13-30-29l0-21-105 0c-16 0-29-14-29-30l0-305c0-16 13-29 29-29l452 0c16 0 29 13 29 29l0 305c0 16-13 30-29 30z m-230-305c-72 0-130 58-130 130 0 72 58 131 130 131 72 0 130-59 130-131 0-71-58-130-130-130z m182 193c-18 0-33 15-33 33 0 18 15 33 33 33 18 0 32-15 32-33 0-18-14-33-32-33z"/>
<glyph glyph-name="diamond" unicode="&#120;" d="M140 321l76-243-217 242z m197 1l-80-262-82 261z m-163 32l24 93 115 1 25-93z m198-32l141 1-215-245z m138 34l-137-1-26 93 72 0z m-419 90l72 1-24-93-137 0z"/>
<glyph glyph-name="group" unicode="&#121;" d="M512 177c-8-23-26-31-48-35-26-5-54-3-71 4 7 28-1 53-13 78-1 2 1 9 4 11 3 2 8 3 12 2 8-1 14-6 21-8 19-5 38-2 55 7 8 5 14 4 19-5 7-13 14-26 21-40 0-4 0-9 0-14z m-512 14c7 14 14 27 21 40 5 9 11 9 19 5 24-12 49-12 73 0 5 3 10 5 15 0 6-5 2-10 0-14-13-28-15-38-12-78-6-1-11-3-17-3-21-3-42-3-63 3-17 6-30 15-36 33 0 5 0 10 0 14z m254-95c-27 0-53 3-77 13-40 17-55 48-39 88 8 19 19 36 30 54 7 10 13 10 24 5 42-22 83-22 124-1 12 6 17 6 24-4 17-21 32-44 36-71 4-31-8-52-35-67-28-14-57-17-87-17z m-94 272c0 52 42 94 94 94 52 1 96-43 95-95 0-52-42-94-95-94-52 0-94 42-94 95z m218-61c0 32 26 58 58 58 32-1 58-27 58-59-1-32-27-58-58-58-32 0-58 26-58 59z m-244-1c0-32-26-58-58-58-32 0-58 27-58 59 1 32 26 58 58 58 32 0 58-26 58-59z"/>
<glyph glyph-name="hair" unicode="&#122;" d="M59 442c0 11 0 23 0 34 1 4 2 9 3 13 3 16 5 17 21 17 70 0 141 0 211 0 12 0 23 4 35 5 8 0 17 0 25 0 1 0 3-1 4-1 34-6 60-22 77-50 9-14 12-30 18-44 0-9 0-18 0-26 0-1-1-2-1-3-5-30-20-54-44-72-2-2-4-5-4-8-1-55-2-109-1-164 0-17-1-32-14-44 10-15 20-29 30-43-4-4-7-7-11-9 0 0-1 0-2 0-8 12-17 25-25 37-3 5-6 6-12 4-19-5-40 2-51 17-12 16-12 36 0 54 1 2 3 4 3 6 1 15 0 29 0 44-4 0-8 1-12 1 0 8 0 15 0 23 5 0 8 0 12 1 0 4 0 8 0 13-4 0-8 1-11 1 0 8 0 15 0 22 4 0 7 1 12 1 0 5-1 9 0 14 1 7-2 10-10 12-49 12-82 52-85 101 0 3 0 5-1 8-4 0-7 0-11 0-45 0-90 1-135 0-10 0-14 4-16 12-2 8-3 16-5 24z m322-36c-28 0-55 0-82 0 0-4 0-6 1-9 27 0 54 0 81 0 0 3 0 6 0 9z m-2 5c1 6-2 9-9 9-20-1-40-1-61 0-7 0-9-3-8-9 26 0 52 0 78 0z m0-19c-26 0-52 0-78 0 0-1-1-2-1-3 3-2 6-4 9-5 21 0 41 0 61 0 7 0 9 2 9 8z m-72 32c22 0 44 0 66 0-5 10 1 7-53 8-6 0-11-1-13-8z m1-44c-1-1-1-2-2-2 4-2 8-5 12-5 15-1 29-1 44 0 4 0 7 3 11 5 0 1-1 1-1 2-21 0-43 0-64 0z m13 56c13 0 25 0 38 0-13 8-25 8-38 0z m38-68c-13 0-25 0-38 0 13-7 25-7 38 0z m-246-150c4 0 7 0 11 0 0 4 0 8 0 13 0 23 0 46 0 69 0 2 2 5 3 7 2-2 4-5 4-7 1-25 1-50 0-75 0-6 2-9 9-7 0 29 0 59 0 88 8 3 9-1 9-6-1-23-1-47-1-70 0-2 0-5 1-7 0-2 2-4 3-6 2 2 5 5 5 7 0 21 0 42 0 63 0 4-1 8 0 12 1 3 3 5 4 8 1-3 4-5 4-8 0-24 0-48 0-72 0-3 0-6 0-9 8-3 9 1 9 7 0 25 0 50 0 75 0 4-1 9 8 6 0-25-1-51 0-76 0-4 2-8 4-13 1 4 3 8 3 13 0 25 0 51 0 76 8 3 7-2 7-6 0-25 0-50 0-75 0-6 1-10 9-7 0 8 0 15 0 23 0 20 0 40 1 60 0 2 2 4 3 6 2-2 4-4 4-6 0-44 1-88-1-132 0-20-7-40-12-61-8 0-16 0-25 0-21 0-43 1-65 0-7 0-9 2-11 9-10 35-12 72-11 109 1 24 0 49 0 74 0 5 0 9 8 7 0-30 0-59 0-89 3 0 6-1 9-1 0 31 0 60 0 89 9 3 8-2 8-6 0-24 0-48 0-72 0-3 0-6 0-10z"/>
<glyph glyph-name="phone-1" unicode="&#66;" d="M326 22c-38 1-66 11-92 26-21 11-39 25-55 42-35 37-71 74-106 112-26 29-43 63-51 101-4 21-3 43 5 63 3 9 8 18 15 24 12 13 25 25 37 37 9 9 18 9 27 0 25-25 50-50 75-75 9-9 9-19 0-28-12-12-24-24-36-36-13-13-13-28-1-41 33-34 65-68 98-103 12-12 28-12 41 0 12 12 24 24 36 37 10 9 19 9 29 0 23-24 47-48 70-71 10-10 10-20 0-30-14-13-26-28-43-39-17-12-35-20-49-19z m166 235l-39 0c0 105-85 190-189 190l0 39c126 0 228-102 228-229z m-60 0l-39 0c0 71-58 129-129 129l0 40c93 0 168-76 168-169z m-61 0l-39 0c0 38-30 69-68 69l0 39c59 0 107-48 107-108z"/>
<glyph glyph-name="icon-osaka" unicode="&#67;" d="M211 22l13 0 15 157 0-157 34 0 0 157 15-157 13 0-25 278 38 15 18 0 0 7-18 0-35 14 13 39 9 0 0 36-6 0 0 7-23 0 0 26-3 0 0 12-10 0 0 31-6 0 0-31-10 0 0-12-3 0 0-26-23 0 0-7-6 0 0-36 9 0 13-39-35-14-18 0 0-7 18 0 38-15z m64 285l0 8 22 0z m22 15l-23 0-1 9z m-58 9l-1-9-23 0z m-24-16l22 0 0-8z"/>
<glyph glyph-name="icon-kamakura" unicode="&#68;" d="M314 456c1 2 2 4 2 6 0 5-4 9-9 9-3 0-5 0-7-2 0-1 1-1 1-2 0-1-1-2-1-4 6 0 10-3 14-7z m-59 16c1 0 2 0 3 0 1 3 3 7 5 9-1 3-4 5-8 5-4 0-7-2-8-5 2-3 3-6 4-9 1 0 2 0 4 0z m-46-9c0 2 0 3 0 4 0 1 0 1 0 2-2 2-4 2-7 2-5 0-9-4-9-9 0-2 1-3 1-5 4 4 9 6 15 6z m-12-192c0-1 1-1 1-1 13-15 32-22 57-22 25 0 44 7 58 22 1 0 1 1 1 1 24 28 23 71 22 83-4 1-25 9-48 9-4 0-7-1-10-4-8-9-8-28-8-36l11-35-52 0 11 35c0 8 0 27-8 36-3 3-6 4-10 4-20 0-38-5-45-8-1-15-3-57 20-84z m75 63c14 22 34 9 50 14-14-17-34-10-50-14z m-24-53l7-2 7 2 16-3c0 0-2-7-13-9-3-1-6-1-10-1-4 0-7 0-10 1-7 2-12 5-15 9z m-11 53c-16 4-36-3-50 14 16-5 36 8 50-14z m2 80c-3-7-11-12-20-12-3 0-7 1-10 3-1-12-10-21-22-21-1 0-2 0-3 0 1-3 2-6 2-9 0-2-1-3-1-5 10 2 23 5 37 5 8 0 14-3 19-8 13-14 11-44 11-45l0-1-6-21 19 0-7 22c0 1-2 31 12 45 4 5 11 8 18 8 15 0 29-3 38-5 0 1-1 3-1 5 0 3 1 6 3 9-2 0-3 0-4 0-12 0-21 9-22 20-3-1-6-2-10-2-10 0-18 6-20 14-4-5-10-9-17-9-7 1-12 3-16 7z m26-28c0-6-5-10-10-10-6 0-11 4-11 10 0 6 5 10 11 10 5 0 10-4 10-10z m-18-294c-2 0-2 0-2 0 0 0 0 0-1-1 0-2-2-7-9-7-1 0-2 0-4 0-6 2-9 8-8 13 0 5 4 9 8 9 1 0 3 0 5-1 1 0 3 0 4 0 3 0 5 1 6 2 0 0 1 1 0 1 0 2-2 3-7 3-3 0-6 0-9 1-3 0-6 0-9 0-7 0-12-2-17-6l-1-2-3 0 0 0c-1 0-4 0-9 4l-16-15c9-7 29-21 60-21l2 0c9 0 12 9 12 15 0 2 0 4-1 5 0 0 0 0-1 0z m177-13c-13 35-42 30-42 30 0 0 1 59-9 90-5 14-14 27-23 38-1 0-2 0-3 0-2-1-3-1-5-1-3 0-6 1-9 3-8 4-12 13-14 20-1-2-3-3-4-4l0-76c0-1 1-21-14-36-11-11-26-17-46-17-20 0-36 6-46 17-15 15-14 35-14 36l0 77c-1 0-1 1-2 2-2-7-7-15-14-19-3-2-6-3-9-3-2 0-3 0-5 1-1 0-2 0-3 0-9-11-18-24-23-38-10-31-9-90-9-90 0 0-29 5-42-30-13-36 13-57 13-57l310 0c0 0 26 21 13 57z m-77 10c-1-1-27-28-72-28l-2 0c-8 0-14 4-18 9-4-5-10-9-18-9l-2 0c-45 0-71 27-72 28l-4 5 32 29 4-4c1-1 3-2 4-3 8 7 16 7 22 7 3 0 7 0 10 0 3 0 5-1 8-1 7 0 13-2 16-7 3 5 9 7 16 7 3 0 5 1 8 1 3 0 7 0 10 0 6 0 14 0 22-7 1 1 3 2 4 3l4 4 32-29z m-39 15l-3 2c-4 4-9 6-16 6-3 0-6 0-9 0-3-1-6-1-9-1-5 0-7-1-7-3 0 0 0-1 0-1 1-1 3-2 6-2 1 0 3 0 4 0 2 1 4 1 5 1 4 0 8-4 8-9 1-5-2-11-8-13-2 0-3 0-4 0-7 0-9 5-9 7-1 1-1 1-1 1 0 0-1 0-2 0-1 0-1 0-1 0-1-1-1-3-1-5 0-6 4-15 12-15l2 0c31 0 51 14 60 21l-16 15c-5-4-8-4-9-4l-2 0z m-53 132c-19 0-36 4-49 12l0-69c0-1 0-17 11-29 8-8 21-13 38-13 17 0 29 5 38 13 11 12 11 28 11 29l0 68c-2-1-4-1-6-2-12-6-27-9-43-9z m-30 223c2 1 5 2 8 2 1 0 2 0 3 0 1 1 1 2 2 3 0 0 1 1 1 1 0 1 1 1 1 2 0 4-3 7-6 9-1 0-3 1-4 1-4 0-7-3-8-6-1-1-1-2-1-4 0-3 1-5 3-7 0 0 0 0 1-1z m47 4c0 0 1-1 2-2 0 0 1 0 2 0 3 0 6-1 8-2 1 1 1 1 1 1 2 2 4 4 4 7 0 2-1 3-2 4-1 3-4 6-8 6-1 0-2-1-2-1-4-1-7-5-7-9 0 0 0-1 0-1 1-1 1-2 2-3z m-70-16c0 0 0 0 1 0 2-1 5-3 7-4 0 0 0-1 0-1 1 1 1 1 2 1 0 0 0 1 0 1 0 2 1 4 2 6 0 0 0 1-1 1-1 0-2 0-3 0-4 1-7-1-8-4z m99-5c1 2 3 3 6 4 0 0-1 0-1 1-1 2-4 5-8 5-1 0-2-1-2-1-1 0-1 0-2 0 2-2 3-5 3-7 1-1 3-1 4-2z m-42 17c-1 0-3 1-4 1-2 0-4-1-5-2-1 0-2-1-2-1 0 0-1-1-1-1 0 0 0 0 0 0 0-1 0-1 1-1 1-1 2-3 3-5 2 0 3 0 4 0 1 0 2 0 3 0 1 2 2 4 3 5 1 0 1 1 1 1 0 0 0 0 0 0 0 0 0 0 0 1-1 0-2 1-3 2z m-26-10c0 0 0 0 0 0-1 0-2 0-3-1-1 0-3-1-4-2 0-1-1-1-1-2 0 0 0 0 0 0 0 0 0 0 0 0 2-1 4-2 6-3 2-1 3-2 4-3 0 0 1 1 1 2 1 2 3 3 4 5 0 0 0 0 0 0 0 0 0 0 0 0 0 1-1 2-2 2-1 1-3 2-5 2z m-60-28c1 1 2 1 2 2 0 1 0 2 0 3 0 3 1 6 2 8-1 0-2 1-4 1-5 0-9-5-9-10 0 0 0-1 0-1 3 0 7-1 9-3z m163 2c0-1 1-1 2-2 2 2 5 3 8 3 0 0 0 1 0 1 0 5-4 10-9 10-1 0-2-1-3-1 1-2 2-5 2-8 0-1 0-2 0-3z m-63 17c1-1 1-3 2-4 0 1 1 2 2 3 2 1 4 2 6 3 0 1 1 1 2 1-1 1-1 2-2 3 0 0 0 0 0 0-1 1-3 2-5 3-1 0-1 0-2 0 0 0 0 0 0 0-2 0-4-1-5-2-1 0-1 0-1-1-1 0-1 0-1-1 0 0 0 0 0 0 2-2 3-3 4-5z m39-5c-1 0-1 0-2-1 0 0 0-1 1-1 0-1 1-2 1-4 0-1 1-2 1-3 0-1 0-1 0-2 1 0 2 0 2 1 1 0 1 0 1 0 2 1 4 1 5 1 1 0 2 1 3 1 0 0 0-1 0-1 0 2-1 4-1 5-2 2-3 3-5 4 0 0 0 0 0 0-1 0-2 1-3 1-1 0-2-1-3-1z m-57-16c3 0 5 2 7 4 1 2 2 4 2 6 0 0 0 1 0 1 0 0 0 1 0 1-1 2-2 4-3 5 0 0 0 0-1 0-1 2-3 2-5 2 0 0 0 0 0 0 0 0-1 0-1 0-2 0-4 0-5-2 0 0-1 0-1 0-1-2-2-3-2-5 0 0-1 0-1-1 0 0 0-1 0-1 0-2 1-4 2-6 2-2 4-4 8-4z m28 8c0-1 0-1 0-1-1-1-1-2-1-3 0-1 0-3 1-4 1-3 5-5 9-5 1 0 3 0 4 1 2 1 4 3 4 5 1 0 1 0 1 1 0 1 0 1 0 2 0 1 0 3-1 4 0 0 0 1-1 1-1 2-2 3-3 3-1 1-1 1-2 1-1 0-1 0-2 0-1 0-2 0-2 0-1 0-2 0-3-1-2-1-3-2-4-4z m-94-1c1 0 2 0 3 0 1 0 2-1 3-1 1 0 2-1 3-2 0 1 0 1 0 1 0 2 1 4 1 6 1 2 2 3 2 4 0 0 0 1-1 1-1 0-2 1-4 1 0 0 0-1 0-1-1 0-2 0-3 0-1-1-2-1-3-2-1-1-1-2-2-3-1-1-1-2-1-3 0 0 0 0 0 0 1 0 1-1 2-1z m-32-31c2 1 5 1 7 1 1 0 3 0 4 0-1 3-2 6-2 9 0 0 0 0 0 0 0 2 0 4 1 6-2 1-3 1-4 1-2 0-4-1-5-1-3-2-5-5-5-8 0-4 2-6 4-8z m188 10c0 0 0 0 0 0 0-3-1-6-2-9 1 0 3 0 4 0 2 0 5 0 7-1 2 2 3 5 3 8 0 3-2 6-4 8-2 1-3 1-5 1-1 0-3 0-4-1 1-2 1-4 1-6z m-133 23c-1 0-1-1-1-1-1-1-1-3-1-4 0-1 0-2 0-2 1-1 1-1 1-1 0-2 2-4 4-5 1-1 3-1 4-1 4 0 7 2 9 5 0 1 1 2 1 4 0 1 0 1 0 2-1 1-1 3-2 4-2 2-3 3-6 3 0 0-1 0-2 0 0 0 0 0 0 0-1 0-1 0-2 0-1 0-2-1-3-2-1 0-2-1-2-2z m-34-24c0 0 0-1 0-1 1-3 3-5 5-6 1-1 3-1 4-1 5 0 9 4 10 9 0 0 0 0 0 0 0 2-1 4-2 6-1 1-2 2-4 2-1 1-2 2-4 2 0 0 0-1 0-1-1 0-2 0-3 0-1 0-1-1-1-1-1 0-1 0-1 0-1-1-1-1-1-1-1 0-1 0-1-1-1-1-2-3-2-5 0-1 0-1 0-1 0 0 0 0 0 0 0-1 0-1 0-1z m146 11c-2 0-4-1-5-2-1 0-2-1-3-2-1-2-2-4-2-6 0 0 0 0 0 0 0-5 5-9 10-9 1 0 2 0 4 0 1 1 2 2 3 4 1 1 1 1 2 2 0 1 0 2 0 2 0 0 0 1 0 1 0 0 0 1 0 1 0 2-1 4-2 5 0 0 0 0-1 1 0 0 0 0-1 1-1 0-2 1-3 1 0 0-1 0-2 0 0 0 0 1 0 1 0 0 0 0 0 0z m3-147l1 0c1-3 4-12 8-17 1 0 1 0 2-1 0 0 0-1 1-1 2-1 3-1 5-1 9 2 9 6 7 20-1 4-2 9-1 15 0 15 5 29 10 42 5 12 9 22 7 30 0 3-1 5-3 6 0 0-1 0-1 0-4-4-9-7-15-7 1-15 2-56-21-86z m-165 15c1-6 0-11-1-15-2-14-2-18 7-20 2 0 3 0 5 1 1 0 1 1 2 1 0 1 0 1 1 1 4 5 7 14 8 17-11 15-16 33-18 49-2 15-2 28-1 37 0 0 0-1-1-1 0 0 0 1 0 1-6 0-12 2-16 7 0 0 0 0 0 0-2-1-3-3-3-6-2-8 2-18 7-31 5-12 10-26 10-41z m182 83c1 0 2-1 3-1 4 0 8 3 9 7 0 1 0 2 0 3 0 3-1 5-3 7-1 1-4 2-6 2-2 0-4 0-6-2-1 0-2-1-2-2-1-2-2-3-2-5 0-3 2-6 5-8 0 0 1-1 2-1z m-174 16c0 1-1 1-1 1-1 1-3 1-5 1-2 0-5-1-6-2-2-2-3-4-3-7 0-1 0-2 0-3 1-4 5-7 9-7 1 0 1 1 1 1 1 0 2 0 3 0 3 1 6 5 6 9 0 3-2 6-4 7z"/>
<glyph glyph-name="accessories" unicode="&#70;" d="M329 219c-16-20-39-33-66-33-27 0-50 13-65 32-80 4-151 16-191 23-2 1-4 1-7 2l0-17c0-10 2-28 8-47 5-16 13-32 44-38 30-7 108-20 202-20 114 4 181 8 211 27 27 16 30 24 37 35 4 9 10 24 10 36l0 28c-37-10-99-23-183-28z m-149 50c0 5 1 11 2 16-63 6-118 15-150 22-18 4-28 6-29 6l-3 1 0-26c1 0 10-3 28-7 33-6 88-16 153-22-1 3-1 7-1 10z m164 15c1-5 2-10 2-15 0-4-1-8-1-12 117 7 153 28 167 30l0 28c0 0-50-23-168-31z m136 152c0 0 2-8-8-14-28-14-106-23-218-23-112 0-184 7-212 22-13 7-11 15-11 15-31 1-31-11-31-50l0-35c2-1 12-3 27-6 36-7 101-18 174-22 15 18 37 29 62 29 24 0 46-11 62-28 111 7 176 29 187 33l0 13c0 40-4 70-32 66z m-218-93c-41-1-74-34-73-75 0-41 34-74 75-73 41 0 73 34 73 75-1 41-34 73-75 73z m18-22c8 0 14-6 14-14 0-7-6-13-14-13-7 0-13 6-13 13 0 8 6 14 13 14z m14-92c-21-19-57-3-63 3-5 5 3 7 3 7 59-8 62 46 62 46 4 17 12-1 12-1 0 0 10-33-14-55z"/>
<glyph glyph-name="luggage" unicode="&#117;" d="M0 383c5 10 10 21 22 25 5 2 10 3 16 3 13 0 26 0 39 0 0-116 0-231 0-347-16 0-32-1-48 0-15 2-23 14-29 27 0 98 0 195 0 292z m512-292c-8-22-24-30-47-28-10 1-20 0-30 0 0 117 0 232 0 348 16 0 32 1 48-1 16-1 23-13 29-27 0-97 0-194 0-292z m-115-27c-94 0-187 0-282 0 0 115 0 230 0 347 11 0 23 0 34 0 7 0 10 2 9 9 0 15 0 30 0 45 0 19 12 30 30 30 45 0 91 0 136 0 19 0 30-11 30-30 0-15 0-30 0-44-1-8 2-11 10-10 11 0 22 0 33 0 0-116 0-231 0-347z m-141 397c-18 0-37 0-56 0-6 1-9-2-8-8 0-12 0-23 0-35 0-5 2-7 7-7 38 0 76 0 114 0 5 0 7 2 7 7 0 12 0 24 0 35 1 7-2 9-8 8-18 0-37 0-56 0z"/>
<glyph glyph-name="icon-gionshijo-02" unicode="&#65;" d="M203 326c0 0 19 10 29-10 0 0-21-9-29 10z m59-44l-5 3-2-2-2 2-5-3c-1 0-1 1-1 1 1-4 4-8 8-8 7 0 8 8 8 8 0 0 0-1-1-1z m-7 0c0 0-1 0-1 0 0 0 1 0 1 0 0 0 1 0 2 0-1 0-1 0-2 0z m28-35c-3 0-6 1-10 1l-34 0c-2 0-4 0-5-1l24-25z m0 0c-3 0-6 1-10 1l-34 0c-2 0-4 0-5-1l24-25z m23 79c0 0-18 10-29-10 0 0 21-9 29 10z m9-120c0 12-5 23-13 30l-75-70 55 0-15-43-25 0-24 62 25 23-29 31c-10-7-17-19-17-33l0-204 118 0 0 116 0 3 0 85z m-32 41c-3 0-6 1-10 1l-34 0c-2 0-4 0-5-1l24-25z m49-114c0 0 0 1 0 2 0 1 0 2 0 3l0 2c0 1-1 2-1 3-1 10-5 20-11 28l0-126 12 0 0 56 0 0z m-140 43c-7-9-12-20-13-32-1-1-1-2-1-4l0-95 14 0z m152 225c2 2 4 4 6 6l29 1 0 16-20-1 32 10-4 15-35-10c-5 9-14 15-25 15 0 0-1 0-1 0-3 32-34 57-71 57-40 0-72-28-72-62 0-7 1-14 4-20l-41-2 1-14 39 2 0 1 12 0 0-21-12 0 0 20c-56-28-65-90-65-90 31 15 58-20 58-20-1 31 16 73 41 73 25 0 35-22 35-22 0 0 1 22 35 22 34 1 45-70 45-70 24 30 55 17 55 17 0 0-3 46-46 77z m-128-7l-13 0 0 21 13 0z m18 0l-13 0 0 21 13 0z m17 0l-12 0 0 21 12 0z m76 51c12 0 21-9 21-21 0-11-9-21-21-21-11 0-21 10-21 21 0 12 10 21 21 21z m-17-62l-10 0 5 8 5 8 4-8 5-8z m27-43l-10 0 5 8 5 8 9-16z m0 22l-10 0 5 9 5 8 4-8 5-9z m0 21l-10 0 5 8 3 6c1 0 2 0 3 1l3-7 5-8-9 0z"/>
<glyph glyph-name="icon-kinkakuji-05" unicode="&#69;" d="M508 202l0 22-5 0c0 0-49 9-63 12-13 3-47 14-51 16l0 24-15 0 0 71 8 10c27 6 51 13 51 13l0 7-10 0c-13 0-44 3-79 13-28 9-50 25-70 33l0 8-22 0 1 11c0 0 21 10 21 34l0 9-16-17c0 0 1 15-10 15-11 0-8 0-13-4l-14 4 10-13c0 0 4-2 2-8-3-6 2-13 9-15l1-16-20 0 0-7c-22-9-39-25-67-34-35-10-66-13-79-13l-5 0 0-7c0 0 20-6 45-12l9-12c0 0 0 0 0 0l0-70-36 0 0-34c-13-4-28-8-34-9-11-3-43-9-43-9l-9 0 0-22c0 0 31-3 68-5l0-45-33 0 0-26 11 0c-4-8-12-21-24-36l20 0 0-44-6 0 0-19 197 0 6 0 95 0 28 0 95 0 0 19-19 0 0 80 19 0 0 27-19 0 0 39c27 3 66 10 66 10z m-358 144c30 0 80 0 94 0 2 0 4 0 7 0 0 0 1 0 3 0 14 0 62 0 93 0l0-70-104 0c0 2 0 3 0 5l0 19c0 11-7 18-19 18l-2 0c-11 0-18-7-18-18l0-19c0-2 0-3 0-5l-54 0z m-87-256l9 0 0-44-9 0z m36 62l0 43c31-2 61-3 77-2 48 3 141 31 141 31 0 0 60-25 99-31l0-40z"/>
<glyph glyph-name="icon-kiyomizuzaka-04" unicode="&#71;" d="M508 344l-84 75-9-7-64 54 0 20-191 0 0-19-64-54-8 6-84-75 32 0 0-318 33 0 0 27 36 0 0-27 22 0 0 27 45 0 0-27 13 0 0 27 38 0 0-27 16 0 0 27 41 0 0-27 16 0 0 27 42 0 0-27 13 0 0 27 45 0 0-27 23 0 0 27 35 0 0-27 30 0 0 318z m-403-272l-36 0 0 20 36 0z m0 34l-36 0 0 20 36 0z m0 39l-36 0 0 20 36 0z m0 41l-36 0 0 39 36 0z m-36 119l0 39 84 0 0-39z m103-233l-45 0 0 20 45 1z m0 34l-45 0 0 20 45 0z m0 39l-45 0 0 20 45 0z m0 60l0-19-45 0 0 39 45 0z m51-133l-38 0 0 21 38 0z m0 34l-38 0 0 20 38 0z m0 39l-38 0 0 20 38 1z m0 41l-38 0 0 19 38 0z m57-114l-41 0 0 21 41 0z m0 34l-41 0 0 20 41 0 0-20z m0 39l-41 0 0 21 41 0z m0 41l-41 0 0 19 41 0z m58-114l-42 0 0 21 42 0z m0 34l-42 0 0 20 42 0z m0 39l-42 0 0 21 42 0z m0 41l-42 0 0 19 42 0z m-166 92l0 17 0 49 17 0-27 20 94 1 94-1-27-20 28 0 0-39 0-27z m224-206l-45 0 0 21 45 0z m0 34l-45 0 0 20 45 0z m0 39l-45 0 0 21 45 0z m0 41l-45 0 0 39 45 0z m58-114l-35 0 0 21 35 0z m0 34l-35 0-1 20 36 0z m0 39l-36 0 0 21 36 0z m0 41l-36 0 0 39 36 0z m0 119l-84 0 0 39 84 0z"/>
<glyph glyph-name="icon-kyoto-01" unicode="&#72;" d="M318 77c-31 60-32 135-32 194 40 7 69 25 69 54 0 29-29 48-69 54l0 14-65 0 0-15c-38-7-65-26-65-53 0-29 30-47 70-54 0-59-1-134-32-194l-50 0c19-44 62-75 112-75 50 0 93 31 112 75z m-13 271c16-6 25-14 25-23 0-9-9-17-25-23 3 7 4 15 4 23 0 9-1 16-4 23z m-29-52c-3-1-7-1-10-1l0 60c3 0 7 0 10-1 8-5 13-14 13-29 0-15-5-24-13-29z m-70 6c-15 6-24 14-24 23 0 9 9 17 24 23-2-7-4-14-4-23 0-9 2-16 4-23z m30 52c3 1 6 1 10 1l0-60c-4 0-7 0-10 1-8 5-13 14-13 29 0 15 5 24 13 29z m0 100l40 0 0-19-40 0z m0-32l40 0 0-19-40 0z m30 88l-20 0 0-42 20 0z"/>
<glyph glyph-name="icon-shinkyogoku-03icon-shinsaibashi-06" unicode="&#73;" d="M124 0l-82 0 0 291 82 0z m346 0l-86 0 0 290 86 0z m-17 305c-2 114-90 207-197 207-108 0-196-93-198-207l51-1c1 16 3 31 7 45l47 1 0-24 182 0 0 24 49 0 0 3c5-16 7-32 8-49z m-108 83l0 16-182 0 0-16-30 0c26 45 71 75 123 75 51 0 96-30 122-75l-33 0z"/>
<glyph glyph-name="icon-shinsaibashi-06" unicode="&#74;" d="M507 350c0 0-1 13-2 15 0 2-2 3-4 4l-10 6c-10 6-24 13-36 18l-16 8c-2 1-12-1-12-1-13-1-26-2-38-2-16-2-31-3-45-4l36 98-14 5-38-104c-12 5-25 8-38 8-38 0-71-23-86-56-4-2-8-5-12-8-36-4-65-28-77-61-51-2-92-44-92-95 0-1 0-1 0-2-28-48-24-84-24-86 0-2 1-3 2-4 0-2 2-5 3-6l59-38c2-1 3-1 5-1 0 0 109-29 140-29 29 0 45 4 46 4 1 0 2 1 3 1 70 47 235 158 242 173 8 20 12 45 13 66 0 1 0 1 0 1 3 34-2 69-5 90z m-445-99l21 0 0-10-12-3-5-1-3 11z m198 138l3-1 21-2-2-4-4-9-7 5-10 10z m-105-86l-1 5 0 1 9 11 0 1 1-1 1-2 5-7 2-4-11-3z m88 69l14 7 2-5 1-5-5-5-5-6-2 3-3 7z m47 4l2 9 1 6 6 1 11 2-1-3-2-3-4-9-4-9 0-1-1 1-7 6z m-100-56l2-2 3-4 3-4-3-4-9-13-7 10 7 10z m-9-125l21 10 3 2 0-2 1-9 1-7-2-1-11-8-3 4-6 6z m141-42c-1 3-2 5-3 8-1 2-2 5-3 8-3 6-7 12-12 17 0 1 0 1 0 1 0 0 0 0 0 0-5 5-9 10-14 14-1 1-2 2-3 3-1 0-2 1-3 2 1 0 5 3 8 3 19 1 28-9 46-9 14 0 27 5 28 26 2 20 9 23 14 23 3-4 6-8 9-12 2-3 3-5 5-8 1-2 2-5 3-7 4-10 6-21 6-32 0-6-1-12-2-18 0-1 0-2 0-3-2-1-4-3-5-4-2-1-3-3-4-4-2-1-3-2-5-3-16-14-33-27-51-39-4-3-8-5-12-8 1 5 1 11 1 16 0 9-1 18-3 26z m117 128c14 18 9 38 2 49 6-3 12-7 17-12 2-1 4-3 6-5 2-2 4-4 5-6 9-10 15-23 18-36-7-16-17-35-36-53-6-7-12-13-19-19-7-7-14-14-22-21 0 0 0 1 0 2 1 3 1 6 1 10 0 13-3 26-8 38-1 2-2 5-4 7-1 3-3 5-4 8-5 7-12 15-19 21-1 0-3 1-4 2-1 1-2 2-3 2-1 1-2 2-3 2 1 0 13 4 25 1 19-5 40-1 48 10z m-52 15l0 19 12 7 11-19z m-37 11l2 11 1 3 3 0 7 1 0-5 1-11-12 1z m-103-114l-1 1-15 11-1 0-3 2 19 0 1-13z m-25-18l3 4 4 5 1 2 15-11-9-9-5 1-4 0-4 1-6 0z m106 90l1-1 21-16-26-1 3 16z m-47-7l1-7 0-5-14-5-5-2 0 16 14 2z m17 16l9-3 1 0 4-1 3-1 1 0 1-1-2-3-1-3-4-4-4-6-2-3-5 5-5 3-2 2-2 2-1 0 1 1 2 6 1 2 2 3 0 1 0 1 1 0z m97 67l4-2 11-4-16-7-10 6-4 3 0 0-1 1 1 0 10 2z m-192-26l2 12 0 1 0 0 0 0 1 0 7-2 1-1 4-13-15 3z m-4-37c16 1 34 5 40 16 6 9 4 25-6 32 22-8 41-25 51-47-21-7-39-22-50-41-1-1-1-2-2-3-1-1-1-1-1-2 0-1-1-1-1-2-1-3-3-6-4-9-4 0-7 0-11-1-3 0-6-1-9-2-11 25-32 44-58 52 19 11 29 6 51 7z m-56-141c9 5 20 10 44-7 14-9 47-14 61 4 3 5 7 9 9 13 14 23 14 16 33 12 10-2 13 6 14 14 2-3 4-6 5-9 1-3 3-6 3-8 1-3 2-5 3-8 1-7 2-14 2-21 0-7-1-14-2-21-2-1-5-2-7-4-2-1-4-2-6-3-2-1-4-2-6-3-17-8-36-15-54-19-25-6-50-9-73-12-1 0-1 1-1 1-2 2-4 4-6 6-2 2-3 4-5 7-2 4-5 8-7 12 0 1-1 2-1 4-1 1-1 2-2 3-3 9-5 19-5 29 0 3 1 6 1 10z m197 240c12-8 22-20 29-34 0-1 0-1 1-1-1-1-2-1-3-1-20-8-36-22-47-39-3-6-6-11-8-17 0 0 0 0 0 0 0 0 0 0 0 0-5-1-10-1-15-2-2 0-4-1-6-1-12 27-37 48-67 54 2 15 29 13 48 6 19-6 40 1 47 7 9 7 13 24 10 35 3-2 6-4 9-5 1-1 1-1 2-2z m-247-140l3 8 4-2 9-4 2-1-2-1-20-15z m28 20l0 3 1 8 0 0 4-3 2-2 8-6-9-15-6 9z m-84-46c2 2 6 3 11 3 2-1 5-1 8-3 2-1 4-2 7-4 2-2 4-4 7-7 20-22 40-17 50-2 1 1 2 3 3 4 0 2 1 3 2 4 0 1 0 1 0 1 14 38 40 40 51 39 9-8 17-18 22-29-21-8-39-22-50-41 0-1-1-2-2-3 0 0 0 0 0 0-1-2-1-3-2-4-1-3-2-6-4-9-1-4-2-8-3-12-2-7-2-14-2-21 0-11 1-21 5-31-7-2-14-3-22-3-17 0-33 5-47 14-3 2-5 4-7 5-2 2-4 4-6 6-13 12-22 28-25 45-1 5-2 9-2 14 0 1 0 2 0 4 0 4 0 8 1 12 1 6 2 12 5 18z"/>
<glyph glyph-name="shop-08" unicode="&#76;" d="M144 413l1 1c7 3 14 4 19 4 2 0 4 0 6-1 0 0 1 0 1 0 1 0 4 0 16 2 48 8 89 12 121 12 15 0 27-2 37-5-6 2-12 4-19 6l-1 54-139 0 0-54c-17-4-31-11-43-20 0 1 1 1 1 1m21-10c0 0 1 0 2 0 1 0 3-1 4-1 3 0 9 1 18 3 48 7 88 11 119 11 16 0 28-2 38-6 8-4 13-7 13-11 0-5-4-7-11-7-6 0-13 0-19 0-8 1-18 1-29 1-13 0-25 0-39-1 1-2 3-4 3-6 20 1 37 2 51 2 12 0 23-3 33-9 8-5 12-10 12-16 0-7-3-11-8-14-6-4-14-6-24-6-8 0-13 1-13 3 0 1 1 3 3 4 6 6 9 13 9 19 0 3-4 4-12 4-14 0-30-1-48-3 0-1 0-3 0-6l0-15c0-10-5-16-14-17 17 1 33 2 45 2l0 0c0 1 0 1-1 1-10 6-17 10-21 10-4 0-6 1-6 2 0 2 1 4 3 5 2 1 5 2 8 2 9 0 17-1 25-4 5-3 8-5 8-8 0-4-2-7-5-8 12-1 22-3 30-6 10-4 15-11 15-19 0-26-2-41-6-46-4-3-12-5-23-5-5 0-9 1-11 4-39-1-73-3-102-5-8-1-14-2-19-2-11 0-19 3-25 8-6 5-9 12-9 21 0 16-1 26-3 31-2 2-3 4-3 6 0 4 4 6 11 6 4 0 7-1 10-3l2 0c3 0 11 1 23 2 5 1 9 1 13 2-1 0-2 0-3 1-12 5-19 8-24 9-3 0-5 0-5 2 0 2 1 3 3 4 2 2 5 3 9 3 9 0 17-2 26-4 5-2 8-4 8-7 0-3-1-6-4-7 9 1 17 2 25 2l-1 0c-11 0-17 6-17 16l1 20c-22-2-39-3-52-3-1 0-1 1-2 1 1-4 1-7 1-10 0-8-1-14-3-19-2-3-4-5-7-5-5 0-10 1-13 5-3 4-5 7-5 9 0 1 0 3 2 6 1 3 2 8 2 12 0 3 0 6-1 8-1 2-1 3-1 5 0 4 2 6 8 6 2 0 4-1 6-2 1 0 2-1 4-1 2 0 4-1 7-1 8 0 26 2 52 4-1 3-2 5-4 6-3 0-7 0-11-1-19-2-31-3-37-3-11 0-19 1-24 3-5 3-7 5-7 6 0 3 2 5 7 7 5 2 9 3 13 3m28-39c9 0 17-1 26-3 5-2 8-4 8-6 0-6-4-9-11-9-1 0-3 0-6 2-12 4-20 7-24 8-3 0-5 0-5 2 0 2 1 3 3 4 2 2 5 2 9 2m-8-65c8 0 23 2 45 5l0 1c0 2-1 4-1 7l0 0c-9-1-18-2-28-4-7-1-12-1-17-2 1-2 1-5 1-7m45-21l0 7c-16-1-28-2-38-2-2 0-4 0-5 0 0-5 3-7 8-7 4 0 13 1 25 2 3 0 6 0 10 0m35 38c1-1 2-3 2-5l0-3c11 1 21 2 30 2 5 0 9 0 13-1 0 1 0 2 0 3 0 4-5 6-15 6-6 0-17 0-30-2m44-35c0 3 0 6 1 9 0 0-1 1 0 1-15 0-29-1-43-2l0-8c12 0 22 1 30 1 5 0 9 0 12-1m-26 90c10 0 19-1 27-4 6-2 9-4 9-6 0-6-4-9-11-9-1 0-3 1-6 2-13 5-21 7-25 8-4 0-6 1-6 2 0 2 1 3 3 5 3 1 6 2 9 2m-122-116c6 0 13-2 19-6 2 0 5 1 9 2 14 3 23 5 29 5 9 0 17-3 23-8 5-4 8-11 8-20l0-29c0-7-2-11-5-15-4-2-7-4-11-4-6 0-9 1-12 2l-33-3c0 0 0 0 0 0l0-66c0-11-4-16-13-16-6 0-11 3-15 10-4 7-7 17-7 27 0 8 1 20 3 36 3 14 4 32 4 55 0 10-2 17-5 19-2 3-3 5-3 6 0 4 3 5 9 5m27-32c7 4 15 6 22 6 3 0 5 0 7-1 0 2 0 4 0 5 0 3-2 5-6 5-1 0-9-2-22-5-1-1-1-1-2-1z m0-27c1 0 2 1 2 1 8 3 15 5 23 5 1 0 2 0 3 0 0 2 0 4 0 6 0 1 0 2 0 3l-28-5z m71 60c7 0 13-2 19-6 0-1 0-1 0-1 2 0 4 1 7 1 17 5 28 7 32 7 12 0 21-2 27-7 7-4 11-12 11-25l0-113c0-10-6-15-19-15-17-1-41 5-70 17-24 9-35 15-35 18 0 1 0 1 2 1 35-8 61-12 78-12 5 0 7 2 7 8l0 53c-4 0-7 0-11 0-12-1-21-1-26-1-16 0-25 5-25 15 0 3 1 7 1 10 1 4 1 10 1 20 0 7-2 13-5 18-2 2-3 4-3 5 0 5 3 7 9 7m59-53l0 8-33-5c-1 0-1 0-1 0-1-3-1-5-1-6 0-3 2-4 5-4 1 0 4 1 8 2 8 3 16 4 22 5m-33 18c1 0 3 1 4 2 8 4 17 7 25 7 2 0 3 0 4-1l0 3c0 4-1 6-4 6-2 0-9-2-21-5-3-1-6-2-8-2l0-1c0-4 0-7 0-9m84 192c3-4 6-8 6-14 0-2-1-4-1-5 2-1 4-4 4-7 0-4-3-7-6-7l-2 0c4-5 5-11 5-15l8 0c3 0 6-3 6-7 0-4-3-7-6-7l-9 0c-3-6-7-11-13-15l28 0c3 0 6-3 6-7 0-3-3-7-6-7l-22 0c2-4 3-9 3-13 0 0 0-1 0-1l23 0c3 0 5-3 5-7 0-4-2-7-5-7l-23 0c0-6-1-11-1-15l24 0c3 0 5-3 5-7 0-4-2-7-5-7l-27 0c-1-4-3-7-4-10 1-1 2-3 3-5l28 0c3 0 5-3 5-7 0-4-2-7-5-7l-23 0c1-3 1-7 1-11l0-3 22 0c3 0 5-4 5-7 0-4-2-7-5-7l-22 0 0-15 22 0c3 0 5-3 5-7 0-4-2-7-5-7l-22 0 0-15 17 0c3 0 6-3 6-7 0-4-3-7-6-7l-17 0 0-15 6 0c4 0 6-3 6-7 0-4-2-7-6-7l-6 0 0-9c0-8-3-15-8-21 39 25 53 69 53 113 0 38 0 62 0 100 0 42-13 84-47 109m-42-337c6 2 13 4 19 7-3-1-7-1-10-1-20 0-44 6-76 19-36 13-45 20-45 31 0 8 6 16 18 16l2 0 1-1c29-6 51-10 66-11l0 31c-9-1-16-1-21-1-11 0-21 2-28 7-6-5-13-8-20-8-6 0-10 1-14 2l-15-2 0-52c0-23-15-31-29-31-8 0-19 3-28 17l-1 1c-6 10-8 21-8 34 0 9 1 21 2 37l1 1c2 13 3 31 3 53 0 6-1 9-1 10-3 4-7 9-7 15 0 7 3 13 10 17-2 5-3 11-3 17 0 17-1 23-2 24-2 5-3 9-3 13 0 3 0 6 1 8-4 6-6 11-6 16 0 4 1 7 3 12l0 1c1 1 2 3 2 5 0 1-1 2-1 3-1 3-2 6-2 10 0 1 0 3 0 4-4 4-6 8-6 13 0 2 1 7 4 12-27-26-37-63-37-101l0-100c0-56 22-111 89-128z m-141-9l139 0 0-45-139 0z"/>
<glyph glyph-name="lesson-reserve-contact" unicode="&#77;" d="M511 257l-125 216c-1 2-3 3-5 3l-250 0c-2 0-4-1-5-3l-125-216c-1-2-1-4 0-6l125-216c1-2 3-3 5-3l250 0c2 0 4 1 5 3l125 216c1 2 1 4 0 6z m-133-213l-244 0-121 210 121 210 244 0 121-210z m-6 405c0 0 0 0 0 0 0 0 0 0 0 0-1 1-2 2-3 2 0 0-1 0-1 0-1 1-2 1-3 1l-218 0c-1 0-2 0-3-1 0 0-1 0-1 0-1 0-2-1-3-2l0 0c0 0 0 0 0 0 0 0-1-1-1-2l-109-188c-2-3-2-7 0-10l109-188c1-3 5-5 8-5l218 0c1 0 2 0 3 1 1 0 1 0 1 0 1 0 2 1 3 2 0 0 0 0 0 0 0 0 0 0 0 0 1 1 1 1 1 2l109 188c2 3 2 7 0 10l-109 188c0 1-1 2-1 2z m-31-17l-85-85-85 85z m-192-6l93-92-29-30-85 86z m-1-342l-98 170 68 118 81-82-48-47c-2-2-3-5-3-7z m20 142l187 0 0-40-40-54-44 60c-2 2-5 4-8 4-3 0-6-2-8-4l-45-60-42 57z m0-150l0 80 34-46c2-3 5-4 8-4 3 0 6 1 8 4l45 60 44-60c2-3 5-4 8-4 3 0 6 1 8 4l32 43 0-77-187 0z m294 178l-87-152 0 78 0 0 0 1 0 55c0 2-1 5-3 7-2 2-5 3-7 3l-98 0 127 127z m-223-8l-57 0 181 180 21-36z"/>
<glyph glyph-name="icon-train" unicode="&#78;" d="M305 486c12 0 23 0 34 0 37 1 67-13 86-46 8-14 11-29 11-45 0-70 0-140 0-210 0-38-21-66-57-77-2 0-3-1-5-2 18-28 37-56 55-84-16 0-33 0-49 0-7 10-14 21-21 32-1 2-5 3-8 3-63 0-126 0-190 0-2 0-7-1-8-3-7-11-14-22-21-32-16 0-32 0-49 0 18 27 36 55 55 84-2 1-4 2-7 3-33 9-55 38-55 74 0 71 0 142 0 214 0 50 39 89 89 89 14 0 27 0 42 0z m-49-211c34 0 67 0 101 0 16 0 23 7 23 23 1 21 1 41 0 62 0 16-8 24-24 24-67 0-133 0-200 0-17 0-24-8-24-25 0-20 0-40 0-59 0-18 7-25 24-25 34 0 67 0 100 0z m86-195c-5 8-9 15-14 21-2 2-7 5-11 5-41 1-82 0-123 0-3 0-7-1-8-2-6-8-10-15-16-24 58 0 114 0 172 0z m-8 366c-53 0-104 0-156 0 0-9 0-17 0-25 52 0 104 0 156 0 0 9 0 16 0 25z m-182-287c13 0 24 11 24 24-1 13-12 24-25 24-13 0-24-11-24-24 0-14 11-24 25-24z m233 24c0 13-11 24-24 24-13 0-25-11-25-24 0-13 11-24 25-24 13 0 24 10 24 24z"/>
<glyph glyph-name="icon-taxi" unicode="&#79;" d="M498 272c-6-10-14-18-28-16-2 0-5 2-6 4-7 13-14 27-21 40 29 7 46 1 55-18 0-4 0-7 0-10z m-247-175c-65 1-130 3-196 4-3 0-6 0-9 1-18 1-23 6-23 24 1 30 1 61 3 92 0 7 4 16 9 21 15 13 25 29 34 46 16 29 33 57 49 86 10 17 25 26 45 25 63-1 127-2 191-4 19-1 35-10 44-28 18-37 37-74 55-111 2-4 5-8 9-11 17-14 23-31 21-53-3-23-2-46-2-68-1-25-5-30-31-29-66 1-132 3-199 5z m4 173c45-2 90-3 136-4 16 0 22 8 14 23-11 21-23 42-33 64-7 15-18 21-33 21-54 2-108 3-161 4-16 0-28-5-35-20-11-22-24-42-36-62-7-12-3-24 12-24 46 0 91-1 136-2z m-2-98c-15 1-30 1-45 1-7 1-10-2-10-8 0-12 0-24-1-36 0-6 3-9 9-9 31-1 61-2 91-2 7-1 9 2 10 8 0 12 0 24 1 36 0 6-3 9-10 9-15 0-30 1-45 1z m157 29c-20 1-36-15-37-35 0-20 15-36 35-36 20-1 36 14 37 35 0 19-15 35-35 36z m-349-27c0-21 15-37 36-37 19 0 35 15 36 35 0 20-15 36-35 36-20 1-36-14-37-34z m99 234c-5 0-9 0-14 0 0 18-1 35 1 52 2 15 16 26 31 26 55-1 110-3 165-4 16-1 29-14 30-30 0-16-1-32-1-49-5 0-9 0-15 0 0 14 1 27 1 40 0 17-6 24-23 24-50 1-100 3-150 4-17 0-23-6-24-23 0-13 0-27-1-40z m233-325c21-1 41-1 61-2 0-12 1-24-1-36-3-15-18-24-34-22-14 1-26 14-26 29 0 10 0 20 0 31z m-284 6c-1-10 0-20-1-29-2-18-16-30-33-29-17 0-29 14-29 32 0 9 1 18 1 28 21-1 41-1 62-2z m-39 221c-8-14-15-28-23-40-5-8-13-4-19-2-10 3-15 14-14 24 2 11 11 19 21 19 11 0 22 0 35-1z m156 103c5 12 9 24 15 36 0 1 3 3 5 3 2 0 5-1 6-3 4-12 8-25 13-40-8 4-14 9-20 9-5 0-11-4-17-7-1 1-1 1-2 2z m14 13c4 0 7 0 11 0-1 5-3 9-4 14-1 0-2 0-2-1-2-4-3-8-5-13z m51 14c5 3 6 15 17 9-14-12-13-25 0-38-7-2-7-2-17 11-7-3-6-16-18-11 11 12 17 25 1 39 9 2 9 2 17-10z m-101 7c1 8 8 9 32 5 1-6 1-6-12-7 0-9 0-18 0-27-1-2-3-4-5-6-1 2-4 4-4 6 0 9 0 18 1 27-4 1-8 1-12 2z m139 2c0-13-1-26-1-39-1-1-2-1-2-2-2 2-5 5-6 7 0 10 0 20 1 30 0 2 4 4 5 6 1 0 2-1 3-2z"/>
<glyph glyph-name="lesson-access" unicode="&#80;" d="M132 22c-2 1-5 2-8 4-8 7-10 15-5 24 5 9 11 18 16 26 12 18 25 35 36 53 2 2 3 6 3 9 6 17 10 35 15 52 1 0 1 1 1 2 3-4 6-8 9-12 8-11 16-22 24-33 0-1 1-3 1-4-5-13-10-26-16-39-5-8-11-16-17-24-11-13-21-27-31-40-5-7-10-13-18-16-1-1-3-1-5-2-1 0-3 0-5 0z m154 464c6-2 12-4 17-7 17-8 25-31 20-49-4-13-12-23-24-29-13-6-26-6-39 1-15 8-23 21-24 37-2 19 12 39 30 44 3 1 6 2 9 3 3 0 7 0 11 0z m-8-203c-1-5-3-9-3-13-4-16-8-32-11-48-1-2 0-4 1-5 7-12 14-24 21-36 12-19 24-39 36-58 12-19 23-38 35-57 4-7 7-13 7-21 0-8-3-15-10-19-9-4-17-5-25 1-9 7-14 16-20 25-18 26-35 53-52 79-17 27-34 54-51 81-8 12-10 26-7 40 5 21 9 42 14 63 0 1 0 2 0 4-4-3-8-6-12-9-8-6-15-12-23-18-3-2-4-4-4-6-4-23-8-46-12-69-2-8-4-14-13-16-10-2-20 5-20 15 0 7 2 14 3 22 3 22 6 44 10 66 1 6 3 11 8 15 18 15 35 29 53 44 6 6 13 12 21 14 3 1 7 1 11 2 7 0 13-1 20 0 12 0 21-6 26-16 8-18 16-36 24-53 4-9 8-17 12-26 1-1 2-1 3-2 21-10 43-21 64-32 6-3 10-7 11-14 2-9-4-16-12-16-5 0-10 0-14 2-22 10-44 21-66 31-7 3-11 9-15 15-3 4-6 9-9 13 0 1 0 1-1 2z"/>
<glyph glyph-name="icon-kanazawa" unicode="&#82;" d="M321 253l0 20 16 0 38 24 0 30-51 0 0 87 94 0-61 47-71 0 0 25-60 0 0-25-71 0-61-47 94 0 0-87-51 0 0-30 38-24 16 0 0-20c-23-15-124-88-149-231l71 0c0 0 14 129 134 205l18 0c120-76 134-205 134-205l71 0c-26 143-126 216-149 231z m-91 146l52 0 0-55-52 0z"/>
</font>
</defs>
</svg>
