<?xml version="1.0" encoding="utf-8"?>
<!-- Generator: Adobe Illustrator 16.0.0, SVG Export Plug-In . SVG Version: 6.00 Build 0)  -->
<!DOCTYPE svg PUBLIC "-//W3C//DTD SVG 1.1//EN" "http://www.w3.org/Graphics/SVG/1.1/DTD/svg11.dtd">
<svg version="1.1" id="Layer_1" xmlns="http://www.w3.org/2000/svg" xmlns:xlink="http://www.w3.org/1999/xlink" x="0px" y="0px"
	 width="230px" height="110px" viewBox="0 0 230 110" enable-background="new 0 0 230 110" xml:space="preserve">
<path fill-rule="evenodd" clip-rule="evenodd" fill="none" d="M126.826,16.22c5.201-11.78,19.404-11.674,25.93-10.224
	c6.523,1.445,16.525,7.568,15.395,16.248c7.141-3.626,18.35-7.916,27.094,1.776c8.742,9.693,9.227,20.778,3.296,30.451
	c15.642,10.146-12.465,40.988-29.63,25.662c-1.23,12.758-8.942,18.569-21.516,20.016c-11.088,1.276-27.128,0.875-28.588-13.348
	c-3.281,14.326-37.646,9.289-36.257-8.057c-17.19,13.555-44.985,4.584-39.737-16.659c-8.968,2.632-20.014,4.591-29.646,3.388
	c10.11-0.451,20.518-8.437,26.413-14.436C25.438,31.96,44.333,24.658,55.558,27.555c-0.124-8.172,3.944-15.547,12.334-20.014
	c8.386-4.468,19.806-3.692,26.269,6.463c2.827-4.138,6.757-12.44,18.886-10.961C125.176,4.522,126.826,16.22,126.826,16.22z"/>
<g>
	
		<path fill-rule="evenodd" clip-rule="evenodd" fill="#FFFFFF" stroke="#FFFFFF" stroke-width="2.2947" stroke-linecap="round" stroke-linejoin="round" stroke-miterlimit="10" d="
		M136.405,17.145c6.061-12.779,22.838-12.564,30.553-10.94c7.719,1.618,19.576,8.348,18.297,17.783
		c8.411-3.896,21.62-8.481,32.016,2.124c10.391,10.605,11.045,22.668,4.107,33.147c18.544,11.147-14.435,44.501-34.816,27.706
		c-1.365,13.871-10.434,20.141-25.271,21.623c-13.087,1.311-32.036,0.762-33.861-14.72c-3.773,15.562-44.397,9.84-42.88-9.02
		c-20.207,14.625-53.1,4.67-47.051-18.4c-10.575,2.8-23.606,4.851-34.991,3.476c11.938-0.423,24.173-9.032,31.093-15.519
		c-16.835-20.852,5.431-28.663,18.709-25.432c-0.204-8.893,4.549-16.886,14.427-21.686c9.874-4.802,23.368-3.876,31.072,7.216
		c3.309-4.481,7.895-13.486,22.232-11.791C134.374,4.407,136.405,17.145,136.405,17.145z"/>
	<path fill-rule="evenodd" clip-rule="evenodd" fill="none" d="M137.474,16.189c5.635-11.877,21.228-11.678,28.399-10.168
		c7.173,1.503,18.192,7.76,17.007,16.529c7.817-3.62,20.093-7.883,29.758,1.974c9.66,9.857,10.265,21.07,3.816,30.811
		c17.237,10.362-13.415,41.362-32.361,25.755c-1.267,12.893-9.693,18.718-23.487,20.098c-12.166,1.218-29.775,0.707-31.474-13.684
		c-3.509,14.464-41.268,9.146-39.856-8.385C70.491,92.712,39.919,83.46,45.542,62.015c-9.83,2.602-21.943,4.512-32.524,3.231
		c11.096-0.391,22.469-8.396,28.902-14.424C26.271,31.44,46.966,24.182,59.309,27.184c-0.19-8.264,4.227-15.695,13.41-20.155
		c9.178-4.463,21.72-3.604,28.881,6.707c3.075-4.165,7.337-12.534,20.664-10.959C135.59,4.351,137.474,16.189,137.474,16.189z"/>
</g>
</svg>
