<?xml version="1.0" encoding="utf-8"?>
<!-- Generator: Adobe Illustrator 16.0.0, SVG Export Plug-In . SVG Version: 6.00 Build 0)  -->
<!DOCTYPE svg PUBLIC "-//W3C//DTD SVG 1.1//EN" "http://www.w3.org/Graphics/SVG/1.1/DTD/svg11.dtd">
<svg version="1.1" id="Layer_1" xmlns="http://www.w3.org/2000/svg" xmlns:xlink="http://www.w3.org/1999/xlink" x="0px" y="0px"
	 width="172.708px" height="116.833px" viewBox="0 0 172.708 116.833" enable-background="new 0 0 172.708 116.833"
	 xml:space="preserve">
<g>
	<g>
		<defs>
			<rect id="SVGID_1_" x="4.333" y="-3.167" width="210" height="120"/>
		</defs>
		<clipPath id="SVGID_2_">
			<use xlink:href="#SVGID_1_"  overflow="visible"/>
		</clipPath>
		<path clip-path="url(#SVGID_2_)" fill-rule="evenodd" clip-rule="evenodd" fill="#FFFFFF" d="M107.457,254.127
			c0,3.058,0.216,5.507-0.05,7.901c-0.396,3.552-1.106,7.071-1.771,10.589c-0.065,0.344-0.729,0.772-1.153,0.82
			c-4.005,0.451-7.955,0.575-11.033-2.739c-3.313,3.631-11.104,2.464-13.088-1.969c-0.613-1.37-1.256-2.732-1.769-4.142
			c-1.277-3.51,2.039-4.605,3.593-6.593c2.185-2.791,4.496-5.482,6.967-8.478c-1.559-1.032-2.557-1.964-3.738-2.421
			c-3.254-1.257-4.316-3.702-4.355-6.949c-0.147-12.321-0.197-24.646-0.571-36.961c-0.29-9.548-1.06-19.08-1.518-28.624
			c-0.586-12.208-1.112-24.421-1.571-36.635c-0.081-2.136,0.295-4.29,0.48-6.693c-3.897,3.035-7.651,5.985-11.438,8.893
			c-1.135,0.872-2.279,1.792-3.556,2.407c-5.616,2.705-7.611,1.896-9.771-3.802c-0.436-1.151-0.96-2.282-1.264-3.467
			c-1.803-7.047-5.939-10.472-11.429-14.691c-1.835,0.558-3.467,1.355-5.156,1.504c-3.568,0.314-3.191-3.143-4.306-5.079
			c-0.921-1.602-0.253-2.647,1.519-3.598c1.637-0.878,2.936-2.522,4.162-4.01c6.027-7.314,14.163-11.941,22.204-16.331
			c5.078-2.771,7.185-6.319,7.962-11.533c1.059-7.096,2.279-14.169,3.559-21.229c0.181-1,1.083-1.875,1.68-2.789
			c0.098-0.149,0.364-0.178,0.534-0.29c5.152-3.363,12.216-4.797,12.129-13.451c0.284,0.14,0.568,0.28,0.853,0.42
			c1.256,0.542,2.512,1.084,4.018,1.734c0-1.716,0-3.287,0-4.041c-3.403-2.631-6.601-4.727-9.293-7.342
			c-1.36-1.322-1.877-3.556-2.646-5.43c-0.719-1.752-2.039-3.724-1.729-5.334c0.637-3.3,1.976-6.528,3.461-9.573
			c0.651-1.334,2.351-2.173,3.615-3.188c0.709-0.569,1.438-1.19,2.265-1.524c2.815-1.137,5.632-2.305,8.533-3.184
			c3.454-1.046,6.18,0.692,8.611,2.882c5.212,4.696,6.644,11.213,8.146,17.767c-0.471-0.547-0.939-1.095-1.58-1.841
			c-0.235,2.642-0.447,5.024-0.729,8.182c-0.692-1.583-1.048-2.396-1.404-3.21c-0.61,5.138-5.492,9.009-4.447,15.107
			c1.252-0.95,2.109-1.599,2.969-2.252c0.188,0.044,0.469,0.03,0.548,0.148c3.671,5.505,9.462,7.064,15.394,8.58
			c1.402,0.358,2.951,1.797,3.61,3.142c4.193,8.551,8.15,17.219,12.204,25.839c0.386,0.822,0.903,1.582,1.106,1.931
			c6.949-0.635,13.545-1.403,20.162-1.744c1.999-0.103,4.074,0.922,6.084,1.533c1.751,0.532,3.573,1.004,5.147,1.887
			c1.159,0.65,2.275,1.786,2.804,2.976c0.254,0.574-0.717,1.95-1.439,2.642c-1.25,1.193-2.738,2.134-4.361,3.357
			c-2.182-1.661-4.441-3.381-6.982-5.317c-2.658,5.174-4.316,10.51-3.52,16.036c1.382,9.56,2.129,18.976-1.314,28.296
			c-4.93,1.784-9.762,1.072-14.439-1.253c-0.902-0.449-1.877-0.934-2.54-1.658c-4.339-4.731-10.858-5.104-16.204-8.472
			c-1.352,22.369-4.084,44.403-2.773,66.512c1.309,22.109,3.668,44.156,5.612,66.749
			C118.325,254.127,113.138,254.127,107.457,254.127z"/>
	</g>
	<path fill="#FFFFFF" d="M89.685,15.466c-1.773,3.896-6.98,5.338-11.63,3.222s-6.982-6.99-5.209-10.886
		c1.773-3.896,7.829-5.016,11.192-1.575C87.609,9.88,91.458,11.571,89.685,15.466z"/>
	<path fill="#FFFFFF" d="M93.269,9.677c-0.506,4.25-4.115,4.26-9.188,3.656c-5.073-0.604-9.221,0.284-9.183-5.844
		C74.924,3.209,79.927,0.284,85,0.888C90.073,1.492,93.775,5.427,93.269,9.677z"/>
	<path fill="#FFFFFF" d="M79.825,17.346c-3.523-0.966-5.083,3.925-7.386,5.333c0.75-0.535,1.684-0.879,2.471-1.403
		c0.452-0.301,0.716-0.671,1.088-0.987c0.346-0.292,0.824-0.492,1.261-0.683c0.741-0.323,1.368-0.775,2.076-1.164L79.825,17.346z"/>
	
		<line fill="none" stroke="#FFFFFF" stroke-width="2" stroke-linecap="round" stroke-miterlimit="10" x1="68.667" y1="17.221" x2="81.191" y2="19.574"/>
	<circle fill="#FFFFFF" cx="68.377" cy="17.596" r="2.979"/>
	
		<line fill="none" stroke="#FFFFFF" stroke-width="2" stroke-linecap="round" stroke-linejoin="round" stroke-miterlimit="10" x1="36.333" y1="9.918" x2="53" y2="20.679"/>
	
		<line fill="none" stroke="#FFFFFF" stroke-width="2" stroke-linecap="round" stroke-linejoin="round" stroke-miterlimit="10" x1="20.827" y1="32.532" x2="49.679" y2="32.949"/>
	
		<line fill="none" stroke="#FFFFFF" stroke-width="2" stroke-linecap="round" stroke-linejoin="round" stroke-miterlimit="10" x1="55.667" y1="45.315" x2="30.099" y2="52.259"/>
</g>
<g>
	<g>
		<path fill="none" stroke="#7E3F8E" stroke-width="5.5891" stroke-linecap="round" stroke-linejoin="round" d="M24.623,65.423
			h-6.412v2.941h5.883v1.977h-5.883v3.125h6.09v2h-6.09v5.906h-2.183V65.423h-1.471c-0.712,1.632-1.54,3.125-2.436,4.274
			c-0.253-0.207-0.644-0.529-1.034-0.804v7.238H5.872v2.022H3.849V61.379h7.239v5.952c1.241-1.976,2.275-4.71,2.918-7.376
			l2.688,0.735c-0.069,0.161-0.276,0.276-0.551,0.276c-0.23,0.804-0.483,1.631-0.782,2.436h9.261V65.423z M9.042,63.355H5.872v4.205
			h3.171V63.355z M5.872,74.156h3.171v-4.619H5.872V74.156z"/>
		<path fill="none" stroke="#7E3F8E" stroke-width="5.5891" stroke-linecap="round" stroke-linejoin="round" d="M29.752,61.264
			h15.304v19.67h-2.321V79.51H31.981v1.517h-2.229V61.264z M42.735,63.47H31.981v5.768h10.754V63.47z M31.981,77.304h10.754v-5.906
			H31.981V77.304z"/>
		<path fill="none" stroke="#7E3F8E" stroke-width="5.5891" stroke-linecap="round" stroke-linejoin="round" d="M62.388,64.688
			c-0.069,0.207-0.299,0.368-0.621,0.368c-0.896,7.538-3.24,12.892-7.101,12.892c-2.229,0-4.021-2.045-4.021-5.814
			c0-5.699,4.481-10.157,10.433-10.157c6.595,0,9.698,4.021,9.698,8.755c0,5.446-2.964,8.158-8.641,9.56
			c-0.345-0.529-0.873-1.333-1.448-1.954c5.263-1.034,7.652-3.562,7.652-7.537c0-3.746-2.482-6.687-7.285-6.687
			c-0.322,0-0.621,0.023-0.942,0.046L62.388,64.688z M59.447,64.297c-4.044,0.712-6.572,4.113-6.572,7.767
			c0,2.183,0.804,3.608,1.861,3.608C57.218,75.672,58.964,70.134,59.447,64.297z"/>
		<path fill="none" stroke="#7E3F8E" stroke-width="5.5891" stroke-linecap="round" stroke-linejoin="round" d="M16.212,92.033
			c-1.172,0.368-2.597,0.643-4.206,0.85c-0.023,1.264-0.023,2.597-0.023,3.746c1.678-0.551,3.447-0.919,4.78-0.919
			c3.815,0,6.503,2.022,6.503,5.492c0,3.217-1.861,5.584-5.63,5.584c-1.632,0-3.148-0.575-4.389-2.091
			c0.414-0.505,0.827-1.195,1.149-1.724c0.988,1.218,2.091,1.701,3.286,1.701c2.137,0,3.263-1.517,3.263-3.47
			c0-2.022-1.494-3.516-4.229-3.516c-1.379,0-3.102,0.368-4.734,0.919c0,1.746,0.023,4.228,0.023,4.826
			c0,2.068-1.355,3.792-3.929,3.792c-2.022,0-4.067-1.195-4.067-3.723c0-1.517,1.057-3.148,2.826-4.412
			c0.828-0.621,1.861-1.172,2.964-1.655v-4.366c-1.585,0.115-3.355,0.138-5.285,0.138l-0.023-2.206c1.953,0.023,3.723,0,5.308-0.092
			v-4.114l3.011,0.115c-0.023,0.276-0.253,0.482-0.621,0.528c-0.069,0.874-0.092,2.091-0.115,3.24
			c1.401-0.184,2.688-0.459,3.814-0.896L16.212,92.033z M9.801,99.524c-0.712,0.345-3.7,1.861-3.7,3.907
			c0,1.057,0.644,1.838,1.93,1.838c1.034,0,1.792-0.667,1.792-1.954C9.824,102.742,9.824,101.11,9.801,99.524z M22.785,94.515
			c-1.218-1.172-3.355-2.413-5.217-3.194l1.126-1.884c1.999,0.758,4.136,2.022,5.423,3.148L22.785,94.515z"/>
		<path fill="none" stroke="#7E3F8E" stroke-width="5.5891" stroke-linecap="round" stroke-linejoin="round" d="M41.862,92.033
			l1.631,0.896c-0.069,0.115-0.229,0.184-0.344,0.253c-1.057,1.608-2.505,2.987-4.229,4.182c2.528,1.057,5.538,1.77,8.709,2.137
			c-0.483,0.505-1.08,1.471-1.402,2.091c-0.965-0.138-1.884-0.322-2.804-0.529v6.664h-2.229v-0.712h-8.709v0.759H30.35v-6.503
			c-1.103,0.322-2.229,0.597-3.332,0.827c-0.207-0.551-0.667-1.448-1.057-1.93c3.01-0.506,6.112-1.425,8.801-2.712
			c-1.011-0.689-1.907-1.447-2.712-2.298c-0.965,0.689-2.068,1.356-3.309,1.953c-0.298-0.505-0.965-1.264-1.448-1.608
			c3.194-1.31,5.4-3.217,6.572-4.963h-4.619v2.643h-2.137v-4.619h8.525v-2.321l2.758,0.161c-0.023,0.207-0.161,0.322-0.529,0.391
			v1.77h8.687v4.619h-2.229V90.54H34.279l2.275,0.414c-0.046,0.207-0.23,0.322-0.552,0.322c-0.207,0.275-0.437,0.574-0.667,0.85
			h6.159L41.862,92.033z M41.586,100.582c-1.723-0.505-3.332-1.149-4.803-1.907c-1.356,0.735-2.803,1.378-4.297,1.907H41.586z
			 M32.486,105.2h8.709v-2.803h-8.709V105.2z M33.728,93.803l-0.138,0.115c0.873,0.896,1.953,1.723,3.217,2.413
			c1.218-0.735,2.298-1.585,3.148-2.527H33.728z"/>
		<path fill="none" stroke="#7E3F8E" stroke-width="5.5891" stroke-linecap="round" stroke-linejoin="round" d="M56.23,93.228v1.287
			c0.643,0.851,2.367,3.47,2.757,4.091c-0.299,0.437-0.621,0.873-1.149,1.585c-0.322-0.735-0.988-2-1.608-3.103v10.686h-2v-9.951
			c-0.712,2.229-1.585,4.297-2.528,5.653c-0.207-0.575-0.712-1.402-1.034-1.884c1.402-1.907,2.735-5.377,3.378-8.365h-2.873v-2.022
			h3.056v-4.94l2.528,0.138c-0.023,0.184-0.161,0.299-0.528,0.368v4.435h2.527v2.022H56.23z M57.884,104.925
			c1.425-0.667,3.562-1.815,5.653-2.918l0.483,1.585c-1.724,1.126-3.562,2.252-4.757,2.964c0,0.184-0.092,0.345-0.253,0.437
			L57.884,104.925z M66.594,98.33c0.322,0.896,0.712,1.747,1.195,2.551c0.896-0.828,1.999-2,2.62-2.85l1.907,1.425
			c-0.069,0.092-0.207,0.138-0.345,0.138c-0.069,0-0.161,0-0.229-0.023c-0.758,0.781-2.114,1.93-3.057,2.62
			c1.08,1.356,2.436,2.459,4.021,3.103c-0.437,0.391-1.08,1.195-1.378,1.747c-1.977-1.034-3.562-2.758-4.734-4.872v3.332
			c0,2.114-0.965,2.321-4.067,2.321c-0.069-0.552-0.345-1.425-0.598-1.977c0.528,0.023,1.103,0.046,1.517,0.046
			c0.942,0,1.034,0,1.034-0.391v-7.951h-5.653v-1.792h5.653v-1.54H60.09V92.47h4.389v-1.494h-5.056v-1.792h2.528
			c-0.253-0.712-0.667-1.585-1.08-2.275l1.724-0.598c0.551,0.827,1.103,1.953,1.333,2.688l-0.505,0.184h4.044l-0.391-0.138
			c0.437-0.805,1.011-2,1.287-2.827L70.776,87c-0.092,0.161-0.276,0.23-0.551,0.23c-0.299,0.551-0.735,1.31-1.172,1.953h2.873v1.792
			h-5.331v1.494h4.734v1.747h-4.734v1.54h5.699v1.792h-5.699V98.33z M61.676,102.167c-0.437-0.85-1.425-2.137-2.275-3.079
			l1.494-0.965c0.874,0.874,1.907,2.114,2.367,2.941L61.676,102.167z"/>
		<path fill="none" stroke="#7E3F8E" stroke-width="5.5891" stroke-linecap="round" stroke-linejoin="round" d="M86.292,91.114
			c-0.069,0.207-0.299,0.368-0.621,0.368c-0.896,7.538-3.24,12.892-7.101,12.892c-2.229,0-4.021-2.045-4.021-5.814
			c0-5.699,4.481-10.157,10.433-10.157c6.595,0,9.698,4.021,9.698,8.755c0,5.446-2.964,8.158-8.641,9.56
			c-0.345-0.529-0.873-1.333-1.448-1.954c5.262-1.034,7.652-3.562,7.652-7.537c0-3.746-2.482-6.687-7.285-6.687
			c-0.322,0-0.62,0.023-0.942,0.046L86.292,91.114z M83.351,90.723c-4.044,0.712-6.572,4.113-6.572,7.767
			c0,2.183,0.804,3.608,1.861,3.608C81.122,102.098,82.868,96.56,83.351,90.723z"/>
		<path fill="none" stroke="#7E3F8E" stroke-width="5.5891" stroke-linecap="round" stroke-linejoin="round" d="M117.112,95.365
			v7.951h-2.183v-1.195h-12.777c-0.437,2.068-1.287,4.183-2.964,5.768c-0.345-0.414-1.218-1.195-1.701-1.471
			c2.551-2.39,2.873-5.676,2.873-8.089v-2.964H117.112z M118.606,89.988h-9.055v1.907h7.951v1.861H99.901v-1.861h7.468v-1.907
			h-8.916v-1.861h8.916v-1.907l2.735,0.161c-0.023,0.207-0.162,0.322-0.553,0.391v1.356h9.055V89.988z M107.415,97.158h-4.917v1.195
			c0,0.598-0.023,1.241-0.092,1.907h5.009V97.158z M114.93,100.26v-3.102h-5.4v3.102H114.93z"/>
	</g>
	<g>
		<path fill="#FFFFFF" d="M24.623,65.423h-6.412v2.941h5.883v1.977h-5.883v3.125h6.09v2h-6.09v5.906h-2.183V65.423h-1.471
			c-0.712,1.632-1.54,3.125-2.436,4.274c-0.253-0.207-0.644-0.529-1.034-0.804v7.238H5.872v2.022H3.849V61.379h7.239v5.952
			c1.241-1.976,2.275-4.71,2.918-7.376l2.688,0.735c-0.069,0.161-0.276,0.276-0.551,0.276c-0.23,0.804-0.483,1.631-0.782,2.436
			h9.261V65.423z M9.042,63.355H5.872v4.205h3.171V63.355z M5.872,74.156h3.171v-4.619H5.872V74.156z"/>
		<path fill="#FFFFFF" d="M29.752,61.264h15.304v19.67h-2.321V79.51H31.981v1.517h-2.229V61.264z M42.735,63.47H31.981v5.768h10.754
			V63.47z M31.981,77.304h10.754v-5.906H31.981V77.304z"/>
		<path fill="#FFFFFF" d="M62.388,64.688c-0.069,0.207-0.299,0.368-0.621,0.368c-0.896,7.538-3.24,12.892-7.101,12.892
			c-2.229,0-4.021-2.045-4.021-5.814c0-5.699,4.481-10.157,10.433-10.157c6.595,0,9.698,4.021,9.698,8.755
			c0,5.446-2.964,8.158-8.641,9.56c-0.345-0.529-0.873-1.333-1.448-1.954c5.263-1.034,7.652-3.562,7.652-7.537
			c0-3.746-2.482-6.687-7.285-6.687c-0.322,0-0.621,0.023-0.942,0.046L62.388,64.688z M59.447,64.297
			c-4.044,0.712-6.572,4.113-6.572,7.767c0,2.183,0.804,3.608,1.861,3.608C57.218,75.672,58.964,70.134,59.447,64.297z"/>
		<path fill="#FFFFFF" d="M16.212,92.033c-1.172,0.368-2.597,0.643-4.206,0.85c-0.023,1.264-0.023,2.597-0.023,3.746
			c1.678-0.551,3.447-0.919,4.78-0.919c3.815,0,6.503,2.022,6.503,5.492c0,3.217-1.861,5.584-5.63,5.584
			c-1.632,0-3.148-0.575-4.389-2.091c0.414-0.505,0.827-1.195,1.149-1.724c0.988,1.218,2.091,1.701,3.286,1.701
			c2.137,0,3.263-1.517,3.263-3.47c0-2.022-1.494-3.516-4.229-3.516c-1.379,0-3.102,0.368-4.734,0.919
			c0,1.746,0.023,4.228,0.023,4.826c0,2.068-1.355,3.792-3.929,3.792c-2.022,0-4.067-1.195-4.067-3.723
			c0-1.517,1.057-3.148,2.826-4.412c0.828-0.621,1.861-1.172,2.964-1.655v-4.366c-1.585,0.115-3.355,0.138-5.285,0.138l-0.023-2.206
			c1.953,0.023,3.723,0,5.308-0.092v-4.114l3.011,0.115c-0.023,0.276-0.253,0.482-0.621,0.528c-0.069,0.874-0.092,2.091-0.115,3.24
			c1.401-0.184,2.688-0.459,3.814-0.896L16.212,92.033z M9.801,99.524c-0.712,0.345-3.7,1.861-3.7,3.907
			c0,1.057,0.644,1.838,1.93,1.838c1.034,0,1.792-0.667,1.792-1.954C9.824,102.742,9.824,101.11,9.801,99.524z M22.785,94.515
			c-1.218-1.172-3.355-2.413-5.217-3.194l1.126-1.884c1.999,0.758,4.136,2.022,5.423,3.148L22.785,94.515z"/>
		<path fill="#FFFFFF" d="M41.862,92.033l1.631,0.896c-0.069,0.115-0.229,0.184-0.344,0.253c-1.057,1.608-2.505,2.987-4.229,4.182
			c2.528,1.057,5.538,1.77,8.709,2.137c-0.483,0.505-1.08,1.471-1.402,2.091c-0.965-0.138-1.884-0.322-2.804-0.529v6.664h-2.229
			v-0.712h-8.709v0.759H30.35v-6.503c-1.103,0.322-2.229,0.597-3.332,0.827c-0.207-0.551-0.667-1.448-1.057-1.93
			c3.01-0.506,6.112-1.425,8.801-2.712c-1.011-0.689-1.907-1.447-2.712-2.298c-0.965,0.689-2.068,1.356-3.309,1.953
			c-0.298-0.505-0.965-1.264-1.448-1.608c3.194-1.31,5.4-3.217,6.572-4.963h-4.619v2.643h-2.137v-4.619h8.525v-2.321l2.758,0.161
			c-0.023,0.207-0.161,0.322-0.529,0.391v1.77h8.687v4.619h-2.229V90.54H34.279l2.275,0.414c-0.046,0.207-0.23,0.322-0.552,0.322
			c-0.207,0.275-0.437,0.574-0.667,0.85h6.159L41.862,92.033z M41.586,100.582c-1.723-0.505-3.332-1.149-4.803-1.907
			c-1.356,0.735-2.803,1.378-4.297,1.907H41.586z M32.486,105.2h8.709v-2.803h-8.709V105.2z M33.728,93.803l-0.138,0.115
			c0.873,0.896,1.953,1.723,3.217,2.413c1.218-0.735,2.298-1.585,3.148-2.527H33.728z"/>
		<path fill="#FFFFFF" d="M56.23,93.228v1.287c0.643,0.851,2.367,3.47,2.757,4.091c-0.299,0.437-0.621,0.873-1.149,1.585
			c-0.322-0.735-0.988-2-1.608-3.103v10.686h-2v-9.951c-0.712,2.229-1.585,4.297-2.528,5.653c-0.207-0.575-0.712-1.402-1.034-1.884
			c1.402-1.907,2.735-5.377,3.378-8.365h-2.873v-2.022h3.056v-4.94l2.528,0.138c-0.023,0.184-0.161,0.299-0.528,0.368v4.435h2.527
			v2.022H56.23z M57.884,104.925c1.425-0.667,3.562-1.815,5.653-2.918l0.483,1.585c-1.724,1.126-3.562,2.252-4.757,2.964
			c0,0.184-0.092,0.345-0.253,0.437L57.884,104.925z M66.594,98.33c0.322,0.896,0.712,1.747,1.195,2.551
			c0.896-0.828,1.999-2,2.62-2.85l1.907,1.425c-0.069,0.092-0.207,0.138-0.345,0.138c-0.069,0-0.161,0-0.229-0.023
			c-0.758,0.781-2.114,1.93-3.057,2.62c1.08,1.356,2.436,2.459,4.021,3.103c-0.437,0.391-1.08,1.195-1.378,1.747
			c-1.977-1.034-3.562-2.758-4.734-4.872v3.332c0,2.114-0.965,2.321-4.067,2.321c-0.069-0.552-0.345-1.425-0.598-1.977
			c0.528,0.023,1.103,0.046,1.517,0.046c0.942,0,1.034,0,1.034-0.391v-7.951h-5.653v-1.792h5.653v-1.54H60.09V92.47h4.389v-1.494
			h-5.056v-1.792h2.528c-0.253-0.712-0.667-1.585-1.08-2.275l1.724-0.598c0.551,0.827,1.103,1.953,1.333,2.688l-0.505,0.184h4.044
			l-0.391-0.138c0.437-0.805,1.011-2,1.287-2.827L70.776,87c-0.092,0.161-0.276,0.23-0.551,0.23
			c-0.299,0.551-0.735,1.31-1.172,1.953h2.873v1.792h-5.331v1.494h4.734v1.747h-4.734v1.54h5.699v1.792h-5.699V98.33z
			 M61.676,102.167c-0.437-0.85-1.425-2.137-2.275-3.079l1.494-0.965c0.874,0.874,1.907,2.114,2.367,2.941L61.676,102.167z"/>
		<path fill="#FFFFFF" d="M86.292,91.114c-0.069,0.207-0.299,0.368-0.621,0.368c-0.896,7.538-3.24,12.892-7.101,12.892
			c-2.229,0-4.021-2.045-4.021-5.814c0-5.699,4.481-10.157,10.433-10.157c6.595,0,9.698,4.021,9.698,8.755
			c0,5.446-2.964,8.158-8.641,9.56c-0.345-0.529-0.873-1.333-1.448-1.954c5.262-1.034,7.652-3.562,7.652-7.537
			c0-3.746-2.482-6.687-7.285-6.687c-0.322,0-0.62,0.023-0.942,0.046L86.292,91.114z M83.351,90.723
			c-4.044,0.712-6.572,4.113-6.572,7.767c0,2.183,0.804,3.608,1.861,3.608C81.122,102.098,82.868,96.56,83.351,90.723z"/>
		<path fill="#FFFFFF" d="M117.112,95.365v7.951h-2.183v-1.195h-12.777c-0.437,2.068-1.287,4.183-2.964,5.768
			c-0.345-0.414-1.218-1.195-1.701-1.471c2.551-2.39,2.873-5.676,2.873-8.089v-2.964H117.112z M118.606,89.988h-9.055v1.907h7.951
			v1.861H99.901v-1.861h7.468v-1.907h-8.916v-1.861h8.916v-1.907l2.735,0.161c-0.023,0.207-0.162,0.322-0.553,0.391v1.356h9.055
			V89.988z M107.415,97.158h-4.917v1.195c0,0.598-0.023,1.241-0.092,1.907h5.009V97.158z M114.93,100.26v-3.102h-5.4v3.102H114.93z"
			/>
	</g>
</g>
</svg>
