<?xml version="1.0" encoding="utf-8"?>
<!-- Generator: Adobe Illustrator 21.0.0, SVG Export Plug-In . SVG Version: 6.00 Build 0)  -->
<svg version="1.1" id="Layer_1" xmlns="http://www.w3.org/2000/svg" xmlns:xlink="http://www.w3.org/1999/xlink" x="0px" y="0px"
	 viewBox="0 0 29 28" style="enable-background:new 0 0 29 28;" xml:space="preserve">
<style type="text/css">
	.st0{fill:#252525;}
</style>
<path class="st0" d="M28.7,12.5c0-4.1-3.3-7.4-7.3-7.5c-0.1-0.3-0.2-0.6-0.4-0.9c-0.9-1.8-2.5-3.1-4.4-3.7c-1.9-0.6-3.9-0.5-5.7,0.5
	C9.2,1.7,7.9,3.2,7.3,5C7,5,6.7,5,6.3,5.1c-2,0.3-3.7,1.4-4.9,3C-1,11.4-0.3,16,2.9,18.4c-0.1,0.3-0.2,0.6-0.2,0.9
	c-0.3,2,0.2,4,1.3,5.6C5.2,26.6,7,27.7,9,28c0.4,0.1,0.8,0.1,1.2,0.1c1.5,0,3-0.5,4.2-1.3c0.3,0.2,0.5,0.3,0.8,0.5
	c1.1,0.5,2.2,0.8,3.4,0.8c0.8,0,1.6-0.1,2.3-0.4c0,0,0,0,0,0c3.9-1.3,6-5.4,4.9-9.3C27.6,17.1,28.7,14.9,28.7,12.5z M27.3,12.5
	c0,3.4-2.7,6.1-6.1,6.1c-2.4,0-4.6-1.5-5.6-3.7c2.7-0.5,5-2.4,5.9-5.1c0.4-1.1,0.5-2.3,0.3-3.4C24.9,6.7,27.3,9.3,27.3,12.5z
	 M11.6,2.1c1.4-0.7,3.1-0.9,4.6-0.4c3.2,1,4.9,4.5,3.9,7.7c-0.8,2.3-2.8,3.9-5.2,4.2c0.4-2.7-0.7-5.5-3-7.2c-0.9-0.7-2-1.1-3.1-1.3
	C9.3,3.8,10.3,2.7,11.6,2.1z M2.6,8.9c1-1.3,2.4-2.2,4-2.4c0.3-0.1,0.6-0.1,1-0.1c1.3,0,2.5,0.4,3.6,1.2c2,1.4,2.9,3.9,2.4,6.2
	c-2.5-1.2-5.5-1-7.7,0.7C4.8,15.2,4,16,3.5,17.1C1.2,15,0.7,11.5,2.6,8.9z M9.2,26.6c-1.6-0.3-3-1.1-4-2.4h0c-1-1.3-1.3-2.9-1.1-4.5
	c0.3-1.6,1.1-3,2.4-4c1.1-0.8,2.3-1.2,3.6-1.2c1.1,0,2.1,0.3,3.1,0.8c-1.9,2-2.6,4.9-1.8,7.6c0.4,1.1,1,2.1,1.8,2.9
	C12,26.5,10.6,26.8,9.2,26.6z M20.5,26.3c-1.5,0.5-3.2,0.4-4.6-0.4c-1.4-0.7-2.5-2-3-3.5c-0.8-2.3,0-4.8,1.8-6.4
	c1.3,2.4,3.8,4,6.6,4c1.2,0,2.3-0.3,3.3-0.8C25.2,22.3,23.5,25.4,20.5,26.3z"/>
</svg>
