<?xml version="1.0" encoding="utf-8"?>
<!-- Generator: Adobe Illustrator 16.0.0, SVG Export Plug-In . SVG Version: 6.00 Build 0)  -->
<!DOCTYPE svg PUBLIC "-//W3C//DTD SVG 1.1//EN" "http://www.w3.org/Graphics/SVG/1.1/DTD/svg11.dtd">
<svg version="1.1" id="Layer_1" xmlns="http://www.w3.org/2000/svg" xmlns:xlink="http://www.w3.org/1999/xlink" x="0px" y="0px"
	 width="29.75px" height="19.75px" viewBox="0 0 29.75 19.75" enable-background="new 0 0 29.75 19.75" xml:space="preserve">
<g>
	<g>
		
			<path fill="none" stroke="#010101" stroke-width="1.2" stroke-linecap="round" stroke-linejoin="round" stroke-miterlimit="10" d="
			M25.079,9.365c-1.214-0.389-2.481-0.32-3.523,0.096c0.107-0.26,0.199-0.529,0.271-0.807c1.021-3.178-1.974-7.316-7.097-7.404
			C9.606,1.338,6.613,5.477,7.635,8.654c0.07,0.279,0.163,0.545,0.271,0.807c-1.043-0.418-2.31-0.48-3.523-0.096
			c-3.046,0.969-3.972,3.927-2.822,6.224c1.12,2.318,3.437,3.371,5.616,2.738c4.938-1.479,10.171-1.479,15.109,0
			c2.179,0.631,4.496-0.422,5.616-2.738C29.051,13.292,28.125,10.338,25.079,9.365z"/>
	</g>
	
		<line fill="none" stroke="#010101" stroke-width="0.9212" stroke-linecap="round" stroke-linejoin="round" stroke-miterlimit="10" x1="14.72" y1="10.886" x2="14.72" y2="14.878"/>
	<circle fill="#010101" cx="14.721" cy="8.936" r="0.536"/>
	
		<line fill="none" stroke="#010101" stroke-width="0.9212" stroke-linecap="round" stroke-linejoin="round" stroke-miterlimit="10" x1="19.702" y1="12.257" x2="16.494" y2="15.341"/>
	<circle fill="#010101" cx="20.781" cy="11.187" r="0.535"/>
	
		<line fill="none" stroke="#010101" stroke-width="0.9212" stroke-linecap="round" stroke-linejoin="round" stroke-miterlimit="10" x1="9.672" y1="12.257" x2="12.879" y2="15.341"/>
	<circle fill="#010101" cx="8.568" cy="11.187" r="0.535"/>
</g>
</svg>
